<?xml version="1.0" encoding="utf-8"?>
<!-- Generator: Adobe Illustrator 23.1.0, SVG Export Plug-In . SVG Version: 6.00 Build 0)  -->
<svg version="1.1" id="Capa_1" xmlns="http://www.w3.org/2000/svg" xmlns:xlink="http://www.w3.org/1999/xlink" x="0px" y="0px"
	 viewBox="0 0 123.1 123.1" style="enable-background:new 0 0 123.1 123.1;" xml:space="preserve">
<style type="text/css">
	.st0{fill:#9C2C38;}
</style>
<g>
	<g>
		<path class="st0" d="M121.3,10.9l-8.5-8.4c-2.3-2.3-6.1-2.3-8.5,0L61.9,44.9L18.7,1.7c-2.3-2.3-6.1-2.3-8.5,0l-8.5,8.5
			c-2.3,2.3-2.3,6.1,0,8.5l43.1,43.1L2.5,104.3c-2.3,2.3-2.3,6.1,0,8.5l8.5,8.5c2.3,2.3,6.1,2.3,8.5,0l42.4-42.4l42.4,42.4
			c2.3,2.3,6.1,2.3,8.5,0l8.5-8.5c2.3-2.3,2.3-6.1,0-8.5L78.8,61.9l42.4-42.4C123.6,17.1,123.6,13.3,121.3,10.9z"/>
	</g>
</g>
</svg>
