<?xml version="1.0" encoding="utf-8"?>
<!-- Generator: Adobe Illustrator 23.1.0, SVG Export Plug-In . SVG Version: 6.00 Build 0)  -->
<svg version="1.1" id="Layer_1" xmlns="http://www.w3.org/2000/svg" xmlns:xlink="http://www.w3.org/1999/xlink" x="0px" y="0px"
	 viewBox="0 0 183.9 307.2" style="enable-background:new 0 0 183.9 307.2;" xml:space="preserve">
<style type="text/css">
	.st0{fill:#1878B9;}
</style>
<path id="path40" class="st0" d="M169.8,55.5C163.3,26.9,147,3.7,144.8,0c-3.6,5.3-16.6,25.8-23.2,48.5c-7.2,25.4-8.3,47.9-5.8,69.9
	c2.5,22.1,11.8,44.9,11.8,44.9c5,11.9,12.4,24.7,17.3,31c7.1-9.2,23.4-36.8,28.5-72.7C176.2,101.5,176.4,84,169.8,55.5z
	 M144.8,187.1c-3.2-6-8.2-17.4-8.6-35.2c-0.1-17.1,6.7-31.8,8.7-34.9c1.8,3.1,7.7,15.9,8.4,33.4C153.7,167.5,148.1,181,144.8,187.1z
	 M168,103.9c-0.2,10.9-1.5,22.4-3.2,29.3c0.6-11.9-0.8-28.5-3.5-41.6c-2.7-13-10.4-34.8-16.6-44.8c-5.7,9.6-12.7,28.4-16.3,44.7
	c-3.7,16.3-3.8,36.1-3.8,42c-1-5-3.4-22.8-2.7-40.7c0.6-14.7,4-30,5.9-37c7.2-23.3,15.4-38.2,16.9-40.5c1.5,2.4,11.8,20.8,17.2,40
	C167.1,74.6,168.2,93,168,103.9"/>
<path id="path42" class="st0" d="M155.8,200.9h-49.5v33.2c0,0,0.1-0.1,0.1-0.1c11.7-11.7,30.6-11.7,42.3,0
	c11.7,11.6,11.7,30.5,0,42.2c-0.1,0.1-0.1,0.1-0.2,0.2l0,0c-0.1,0-0.1,0.1-0.2,0.2c-11.6,11.5-26.8,17.3-42.1,17.3
	c-15.3,0-30.6-5.8-42.2-17.4c-20.5-20.5-23-52.3-7.3-75.5c2.1-3.1,4.5-6.1,7.3-8.9c11.6-11.7,26.9-17.4,42.2-17.4V94.7
	C47.6,94.7,0,142.2,0,200.9c0,58.7,47.6,106.3,106.3,106.3c30.6,0,58.2-13,77.6-33.7v-72.6H155.8"/>
</svg>
