<?xml version="1.0" encoding="UTF-8"?>
<!DOCTYPE svg PUBLIC "-//W3C//DTD SVG 1.1//EN" "http://www.w3.org/Graphics/SVG/1.1/DTD/svg11.dtd">
<!-- Creator: CorelDRAW 2020 (64-Bit) -->
<svg xmlns="http://www.w3.org/2000/svg" xml:space="preserve" width="1068px" height="377px" version="1.1" style="shape-rendering:geometricPrecision; text-rendering:geometricPrecision; image-rendering:optimizeQuality; fill-rule:evenodd; clip-rule:evenodd"
viewBox="0 0 678.39 239.61"
 xmlns:xlink="http://www.w3.org/1999/xlink"
 xmlns:xodm="http://www.corel.com/coreldraw/odm/2003">
 <defs>
  <style type="text/css">
   <![CDATA[
    .fil0 {fill:#9D3236;fill-rule:nonzero}
   ]]>
  </style>
 </defs>
 <g id="Layer_x0020_1">
  <metadata id="CorelCorpID_0Corel-Layer"/>
  <path class="fil0" d="M643.47 239.61c-12.9,0 -21.92,-2.81 -27.06,-8.43 -5.14,-5.62 -7.71,-13.8 -7.71,-24.55l0 -44.44c0,-10.85 2.59,-18.98 7.78,-24.4 5.19,-5.43 14.19,-8.14 26.99,-8.14 13.09,0 22.18,2.71 27.27,8.14 5.1,5.42 7.65,13.55 7.65,24.4l0 44.44c0,5.43 -0.57,10.17 -1.69,14.24 -1.12,4.06 -3.03,7.5 -5.75,10.31 -2.71,2.81 -6.28,4.92 -10.72,6.32 -4.44,1.4 -10.03,2.11 -16.76,2.11zm-10.94 -73.35l0 36.6c0,6 0.92,10.31 2.74,12.93 1.82,2.61 4.56,3.92 8.2,3.92 3.65,0 6.41,-1.29 8.27,-3.85 1.88,-2.57 2.81,-6.9 2.81,-13l0 -36.6c0,-6.01 -0.93,-10.29 -2.81,-12.86 -1.86,-2.56 -4.62,-3.85 -8.27,-3.85 -3.64,0 -6.38,1.29 -8.2,3.85 -1.82,2.57 -2.74,6.85 -2.74,12.86zm-73.05 71.17l-41.22 0 0 -16.27c1.87,-0.49 3.2,-1.45 3.99,-2.91 0.8,-1.45 1.19,-4.55 1.19,-9.29l0 -49.53c0,-4.75 -0.39,-7.85 -1.19,-9.3 -0.79,-1.45 -2.12,-2.42 -3.99,-2.9l0 -15.54 39.82 0c12.34,0 21.22,2.25 26.64,6.75 5.42,4.5 8.13,11.74 8.13,21.71 0,5.62 -0.86,10.08 -2.59,13.37 -1.73,3.29 -5.07,6 -10.03,8.13 3.18,1.45 5.71,3.1 7.57,4.94 1.87,1.84 3.3,3.87 4.28,6.1 0.98,2.23 1.64,4.7 1.96,7.41 0.33,2.71 0.49,5.71 0.49,9 0,10.17 -2.61,17.43 -7.85,21.79 -5.23,4.36 -14.3,6.54 -27.2,6.54zm-12.06 -45.76l0 26.58 10.66 0c4.49,0 7.76,-1.06 9.81,-3.19 2.06,-2.13 3.09,-5.57 3.09,-10.31 0,-4.75 -1.1,-8.11 -3.3,-10.1 -2.19,-1.98 -5.58,-2.98 -10.16,-2.98l-10.1 0zm0 -40.96l0 23.1 9.4 0c4.39,0 7.57,-0.83 9.53,-2.47 1.96,-1.65 2.95,-4.45 2.95,-8.42 0,-4.46 -0.99,-7.61 -2.95,-9.45 -1.96,-1.84 -5.14,-2.76 -9.53,-2.76l-9.4 0zm-122.13 15.84l0 -37.77 81.61 0 0 37.77 -19.49 0 0 -8.43c0,-3.48 -0.54,-6.03 -1.62,-7.63 -1.07,-1.59 -3.25,-2.44 -6.52,-2.53l-1.26 0 0 61c0,4.74 0.47,7.96 1.4,9.66 0.94,1.69 2.29,2.54 4.07,2.54l0 16.27 -34.77 0 0 -16.27c1.77,0 3.13,-0.85 4.06,-2.54 0.94,-1.7 1.41,-4.92 1.41,-9.66l0 -61 -1.27 0c-3.27,0.09 -5.44,0.94 -6.52,2.53 -1.07,1.6 -1.61,4.15 -1.61,7.63l0 8.43 -19.49 0zm-10.94 0l-21.59 0 0 -4.36c0,-5.23 -1.15,-8.64 -3.44,-10.24 -2.29,-1.6 -5.16,-2.4 -8.62,-2.4 -3.65,0 -6.38,1.29 -8.2,3.85 -1.83,2.57 -2.74,6.85 -2.74,12.86l0 36.6c0,6 0.91,10.31 2.74,12.93 1.82,2.61 4.55,3.92 8.2,3.92 3.64,0 6.56,-1.29 8.76,-3.85 2.2,-2.57 3.3,-6.9 3.3,-13l0 -3.92 21.59 0 0 32.53c-10.19,5.42 -21.41,8.14 -33.65,8.14 -6.64,0 -12.2,-0.71 -16.69,-2.11 -4.49,-1.4 -8.11,-3.49 -10.86,-6.25 -2.76,-2.76 -4.75,-6.19 -5.96,-10.31 -1.22,-4.11 -1.83,-8.88 -1.83,-14.31l0 -46.04c0,-10.36 2.69,-18.11 8.06,-23.24 5.38,-5.13 14.47,-7.7 27.28,-7.7 11.5,0 22.71,2.57 33.65,7.7l0 29.2zm-82.59 70.88l-72.91 0 0 -16.27c1.87,-0.49 3.2,-1.45 3.99,-2.91 0.8,-1.45 1.19,-4.55 1.19,-9.29l0 -49.53c0,-4.75 -0.39,-7.85 -1.19,-9.3 -0.79,-1.45 -2.12,-2.42 -3.99,-2.9l0 -15.54 72.91 0 0 34.86 -22.43 0 0 -3.93c0,-4.55 -0.94,-7.72 -2.81,-9.51 -1.87,-1.79 -5.09,-2.69 -9.67,-2.69l-8.56 0 0 23.24 21.04 0 0 18.3 -21.04 0 0 26.58 10.38 0c3.83,0 6.57,-0.87 8.2,-2.61 1.64,-1.74 2.46,-5.03 2.46,-9.88l0 -6.97 22.43 0 0 38.35zm-121.71 -105.74l34.49 0 0 15.54c-1.87,0.48 -3.2,1.45 -3.99,2.9 -0.8,1.45 -1.2,4.55 -1.2,9.3l0 49.53c0,4.74 0.4,7.84 1.2,9.29 0.79,1.46 2.12,2.42 3.99,2.91l0 16.27 -35.61 0 0 -16.27c2.33,-0.49 3.99,-1.43 4.98,-2.83 0.98,-1.41 1.47,-4.53 1.47,-9.37l0 -9.44c-2.53,0.97 -5.8,1.69 -9.82,2.18 -4.02,0.48 -7.76,0.72 -11.22,0.72 -7.29,0 -13.04,-2.2 -17.24,-6.61 -4.21,-4.4 -6.31,-11.25 -6.31,-20.55l0 -15.83c0,-4.75 -0.44,-7.89 -1.33,-9.44 -0.89,-1.55 -1.94,-2.47 -3.16,-2.76l0 -15.54 33.23 0 0 15.54c-1.96,0.48 -3.32,1.45 -4.07,2.9 -0.74,1.45 -1.12,4.55 -1.12,9.3l0 14.67c0,3.29 0.89,5.86 2.67,7.7 1.77,1.84 4.02,2.76 6.73,2.76 2.62,0 4.88,-0.25 6.8,-0.73 1.92,-0.48 3.53,-0.92 4.84,-1.31l0 -23.09c0,-5.13 -0.49,-8.45 -1.47,-9.95 -0.99,-1.5 -2.27,-2.25 -3.86,-2.25l0 -15.54zm-92.12 105.74l-33.24 0 0 -16.27c1.41,-0.49 2.6,-1.48 3.58,-2.98 0.98,-1.5 1.8,-3.94 2.45,-7.33l10.8 -53.02c0.37,-1.84 0.37,-3.63 0,-5.37 -0.38,-1.75 -1.22,-2.62 -2.52,-2.62l0 -18.15 53.84 0 0 18.15c-1.31,0 -2.15,0.87 -2.53,2.62 -0.37,1.74 -0.37,3.53 0,5.37l10.94 53.02c0.75,3.39 1.54,5.83 2.39,7.33 0.84,1.5 2.01,2.49 3.5,2.98l0 16.27 -34.35 0 0 -16.27c1.68,0 2.85,-0.63 3.5,-1.89 0.66,-1.26 0.99,-2.23 0.99,-2.9 0,-2.52 -0.24,-4.99 -0.71,-7.41l-0.28 -1.6 -22.01 0 -0.28 1.6c-0.47,2.42 -0.7,4.89 -0.7,7.41 0,0.67 0.32,1.64 0.98,2.9 0.65,1.26 1.87,1.89 3.65,1.89l0 16.27zm6.72 -87.59l-7.43 41.4 16.13 0 -7.43 -41.4 -1.27 0zm-76.83 -18.15l29.16 0 0 15.54c-1.22,0 -2.27,0.36 -3.16,1.09 -0.88,0.72 -2.03,2.06 -3.43,3.99l-17.53 23.97c6.55,1.26 11.45,3.56 14.73,6.9 3.27,3.34 4.9,8.74 4.9,16.19l0 9.88c0,4.36 0.38,7.43 1.13,9.22 0.74,1.79 1.86,2.69 3.36,2.69l0 16.27 -26.5 0c-0.56,-1.46 -0.98,-3.17 -1.26,-5.16 -0.28,-1.98 -0.43,-5.25 -0.43,-9.8l0 -13.8c0,-5.43 -0.93,-9.47 -2.8,-12.13 -1.87,-2.66 -5.14,-3.99 -9.81,-3.99l-7.01 0 0 16.41c0,4.84 0.44,7.96 1.33,9.37 0.89,1.4 2.22,2.34 3.99,2.83l0 16.27 -34.49 0 0 -16.27c1.87,-0.49 3.2,-1.45 4,-2.91 0.79,-1.45 1.19,-4.55 1.19,-9.29l0 -49.53c0,-4.75 -0.4,-7.85 -1.19,-9.3 -0.8,-1.45 -2.13,-2.42 -4,-2.9l0 -15.54 34.49 0 0 15.54c-1.58,0 -2.87,0.75 -3.85,2.25 -0.98,1.5 -1.47,4.82 -1.47,9.95l0 16.99 14.3 -18.73c1.59,-2.14 2.71,-4.24 3.36,-6.32 0.66,-2.08 0.99,-4.24 0.99,-6.47l0 -13.21z"/>
  <path class="fil0" d="M630.42 107.77l-72.91 0 0 -16.26c1.87,-0.49 3.2,-1.46 4,-2.91 0.79,-1.45 1.19,-4.55 1.19,-9.29l0 -49.53c0,-4.75 -0.4,-7.85 -1.19,-9.3 -0.8,-1.45 -2.13,-2.42 -4,-2.9l0 -15.55 72.91 0 0 34.86 -22.43 0 0 -3.92c0,-4.55 -0.94,-7.72 -2.81,-9.51 -1.86,-1.79 -5.09,-2.69 -9.67,-2.69l-8.55 0 0 23.24 21.03 0 0 18.3 -21.03 0 0 26.58 10.37 0c3.83,0 6.57,-0.87 8.2,-2.61 1.64,-1.75 2.46,-5.04 2.46,-9.88l0 -6.97 22.43 0 0 38.34zm-121.14 2.18c-12.9,0 -21.93,-2.8 -27.07,-8.42 -5.14,-5.62 -7.71,-13.8 -7.71,-24.55l0 -44.44c0,-10.85 2.6,-18.98 7.79,-24.41 5.18,-5.42 14.18,-8.13 26.99,-8.13 13.08,0 22.18,2.71 27.27,8.13 5.09,5.43 7.64,13.56 7.64,24.41l0 44.44c0,5.42 -0.56,10.17 -1.68,14.24 -1.12,4.06 -3.04,7.5 -5.75,10.31 -2.71,2.81 -6.29,4.91 -10.73,6.32 -4.44,1.4 -10.02,2.1 -16.75,2.1zm-10.94 -73.35l0 36.61c0,6 0.91,10.31 2.73,12.92 1.83,2.62 4.56,3.92 8.21,3.92 3.64,0 6.4,-1.28 8.27,-3.84 1.87,-2.57 2.8,-6.9 2.8,-13l0 -36.61c0,-6 -0.93,-10.28 -2.8,-12.85 -1.87,-2.57 -4.63,-3.85 -8.27,-3.85 -3.65,0 -6.38,1.28 -8.21,3.85 -1.82,2.57 -2.73,6.85 -2.73,12.85zm-64.78 -34.57l29.16 0 0 15.55c-1.21,0 -2.26,0.36 -3.15,1.09 -0.89,0.72 -2.03,2.05 -3.44,3.99l-17.52 23.97c6.54,1.25 11.45,3.55 14.72,6.9 3.27,3.34 4.91,8.73 4.91,16.19l0 9.88c0,4.35 0.37,7.43 1.12,9.22 0.75,1.79 1.87,2.69 3.36,2.69l0 16.26 -26.5 0c-0.56,-1.45 -0.98,-3.17 -1.26,-5.15 -0.28,-1.99 -0.42,-5.26 -0.42,-9.8l0 -13.81c0,-5.42 -0.93,-9.46 -2.8,-12.12 -1.87,-2.67 -5.14,-4 -9.82,-4l-7.01 0 0 16.42c0,4.84 0.44,7.96 1.33,9.36 0.89,1.41 2.22,2.35 4,2.84l0 16.26 -34.5 0 0 -16.26c1.87,-0.49 3.2,-1.46 4,-2.91 0.79,-1.45 1.19,-4.55 1.19,-9.29l0 -49.53c0,-4.75 -0.4,-7.85 -1.19,-9.3 -0.8,-1.45 -2.13,-2.42 -4,-2.9l0 -15.55 34.5 0 0 15.55c-1.59,0 -2.88,0.75 -3.86,2.25 -0.98,1.5 -1.47,4.81 -1.47,9.95l0 16.99 14.3 -18.74c1.59,-2.13 2.71,-4.23 3.37,-6.31 0.65,-2.09 0.98,-4.24 0.98,-6.47l0 -13.22zm-97.31 107.92c-12.9,0 -21.92,-2.8 -27.07,-8.42 -5.14,-5.62 -7.71,-13.8 -7.71,-24.55l0 -44.44c0,-10.85 2.6,-18.98 7.79,-24.41 5.18,-5.42 14.18,-8.13 26.99,-8.13 13.08,0 22.18,2.71 27.27,8.13 5.09,5.43 7.64,13.56 7.64,24.41l0 44.44c0,5.42 -0.56,10.17 -1.68,14.24 -1.12,4.06 -3.04,7.5 -5.75,10.31 -2.71,2.81 -6.29,4.91 -10.73,6.32 -4.44,1.4 -10.02,2.1 -16.75,2.1zm-10.94 -73.35l0 36.61c0,6 0.91,10.31 2.73,12.92 1.83,2.62 4.56,3.92 8.21,3.92 3.64,0 6.4,-1.28 8.27,-3.84 1.87,-2.57 2.8,-6.9 2.8,-13l0 -36.61c0,-6 -0.93,-10.28 -2.8,-12.85 -1.87,-2.57 -4.63,-3.85 -8.27,-3.85 -3.65,0 -6.38,1.28 -8.21,3.85 -1.82,2.57 -2.73,6.85 -2.73,12.85zm-39.82 0.29l-21.6 0 0 -4.35c0,-5.23 -1.14,-8.65 -3.43,-10.24 -2.29,-1.6 -5.17,-2.4 -8.63,-2.4 -3.64,0 -6.38,1.28 -8.2,3.85 -1.82,2.57 -2.73,6.85 -2.73,12.85l0 36.61c0,6 0.91,10.31 2.73,12.92 1.82,2.62 4.56,3.92 8.2,3.92 3.65,0 6.57,-1.28 8.77,-3.84 2.19,-2.57 3.29,-6.9 3.29,-13l0 -3.93 21.6 0 0 32.54c-10.19,5.42 -21.41,8.13 -33.66,8.13 -6.63,0 -12.2,-0.7 -16.68,-2.1 -4.49,-1.41 -8.11,-3.49 -10.87,-6.25 -2.76,-2.76 -4.74,-6.2 -5.96,-10.31 -1.21,-4.12 -1.82,-8.89 -1.82,-14.31l0 -46.04c0,-10.36 2.69,-18.11 8.06,-23.24 5.38,-5.13 14.47,-7.7 27.27,-7.7 11.5,0 22.72,2.57 33.66,7.7l0 29.19zm-88.48 -7.11l0 49.53c0,4.84 0.37,7.96 1.12,9.36 0.75,1.41 2.01,2.35 3.79,2.84l0 16.26 -34.36 0 0 -16.26c1.78,-0.49 3.13,-1.46 4.07,-2.91 0.93,-1.45 1.4,-4.55 1.4,-9.29l0 -49.53c0,-4.75 -0.47,-7.85 -1.4,-9.3 -0.94,-1.45 -2.29,-2.42 -4.07,-2.9l0 -15.55 34.36 0 0 15.55c-1.78,0.48 -3.04,1.45 -3.79,2.9 -0.75,1.45 -1.12,4.55 -1.12,9.3zm-77.68 31.8l0 27.31 3.78 0c5.52,0 9.56,-1.11 12.13,-3.34 2.57,-2.22 3.86,-5.71 3.86,-10.46 0,-4.16 -1.29,-7.45 -3.86,-9.87 -2.57,-2.42 -6.61,-3.64 -12.13,-3.64l-3.78 0zm-29.17 -44l0 -15.55 35.34 0 0 15.55c-1.78,0 -3.25,0.87 -4.42,2.61 -1.17,1.74 -1.75,4.94 -1.75,9.59l0 12.92 7.29 0c11.22,0 20.19,2.67 26.92,7.99 6.73,5.33 10.1,13.46 10.1,24.4 0,11.14 -3.37,19.37 -10.1,24.69 -6.73,5.33 -15.7,7.99 -26.92,7.99l-36.46 0 0 -16.26c1.87,-0.49 3.2,-1.46 4,-2.91 0.79,-1.45 1.19,-4.55 1.19,-9.29l0 -49.53c0,-4.75 -0.4,-7.85 -1.19,-9.3 -0.8,-1.45 -2.13,-2.42 -4,-2.9zm-48.94 90.19l-41.22 0 0 -16.26c1.87,-0.49 3.2,-1.46 4,-2.91 0.79,-1.45 1.19,-4.55 1.19,-9.29l0 -49.53c0,-4.75 -0.4,-7.85 -1.19,-9.3 -0.8,-1.45 -2.13,-2.42 -4,-2.9l0 -15.55 39.82 0c12.34,0 21.22,2.26 26.64,6.76 5.43,4.5 8.14,11.74 8.14,21.71 0,5.62 -0.87,10.07 -2.6,13.37 -1.73,3.29 -5.07,6 -10.02,8.13 3.18,1.45 5.7,3.1 7.57,4.94 1.87,1.84 3.3,3.87 4.27,6.1 0.99,2.23 1.64,4.69 1.97,7.41 0.33,2.71 0.49,5.71 0.49,9 0,10.17 -2.62,17.43 -7.85,21.79 -5.24,4.36 -14.31,6.53 -27.21,6.53zm-12.05 -45.75l0 26.58 10.65 0c4.49,0 7.76,-1.06 9.82,-3.19 2.05,-2.14 3.08,-5.57 3.08,-10.32 0,-4.74 -1.1,-8.1 -3.29,-10.09 -2.2,-1.98 -5.59,-2.98 -10.17,-2.98l-10.09 0zm0 -40.96l0 23.09 9.39 0c4.39,0 7.57,-0.82 9.53,-2.46 1.97,-1.65 2.95,-4.46 2.95,-8.43 0,-4.45 -0.98,-7.6 -2.95,-9.44 -1.96,-1.84 -5.14,-2.76 -9.53,-2.76l-9.39 0z"/>
 </g>
</svg>
