<?xml version="1.0" encoding="UTF-8"?>
<!DOCTYPE svg PUBLIC "-//W3C//DTD SVG 1.1//EN" "http://www.w3.org/Graphics/SVG/1.1/DTD/svg11.dtd">
<!-- Creator: CorelDRAW 2020 (64-Bit) -->
<svg xmlns="http://www.w3.org/2000/svg" xml:space="preserve" width="171.727mm" height="123.188mm" version="1.1" style="shape-rendering:geometricPrecision; text-rendering:geometricPrecision; image-rendering:optimizeQuality; fill-rule:evenodd; clip-rule:evenodd"
viewBox="0 0 13212.89 9478.28"
 xmlns:xlink="http://www.w3.org/1999/xlink"
 xmlns:xodm="http://www.corel.com/coreldraw/odm/2003">
 <defs>
  <style type="text/css">
   <![CDATA[
    .str0 {stroke:#D763A1;stroke-width:18.3;stroke-miterlimit:22.9256}
    .fil3 {fill:none}
    .fil0 {fill:#2B2A29}
    .fil1 {fill:#FFED00}
    .fil2 {fill:#2B2A29;fill-rule:nonzero}
    .fil4 {fill:#9D3236;fill-rule:nonzero}
   ]]>
  </style>
 </defs>
 <g id="Layer_x0020_1">
  <metadata id="CorelCorpID_0Corel-Layer"/>
  <g id="_2251091434608">
   <polygon class="fil0" points="6437.12,3.45 6601.98,0 6790.01,0.2 6977.63,4.47 7164.44,12.8 7350.64,24.8 7536.23,40.66 7721.21,60.17 7905.58,82.94 8089.14,108.75 8272.29,137.82 8454.83,169.93 8636.76,204.49 8817.88,241.9 8998.59,281.54 9178.69,323.62 9358.38,367.73 9537.47,413.87 9715.95,462.04 9894.02,511.64 10071.48,562.86 10248.53,615.52 10424.97,669.38 10601.01,724.26 10776.64,779.96 10951.66,836.68 11126.47,893.8 11300.88,951.73 11474.69,1009.66 11648.08,1068.01 11821.27,1126.34 11994.05,1184.69 12166.43,1242.62 12338.4,1300.15 12658.97,1407.27 12553.27,1734.54 12550.82,1742.48 12550.62,1742.48 12550.42,1743.28 12549.4,1747.15 12546.35,1757.52 12546.15,1758.13 12545.54,1760.76 12544.52,1764.43 12543.91,1767.68 12543.5,1768.7 12541.47,1779.06 12539.44,1790.04 12537.61,1801.22 12536.19,1812.4 12534.97,1823.99 12534.15,1835.98 12533.75,1847.97 12533.55,1862 12533.55,1872.37 12533.75,1879.69 12534.97,1899.2 12537.2,1918.31 12540.46,1936.6 12544.32,1954.7 12549.2,1972.58 12554.68,1990.07 12560.78,2006.93 12567.9,2023.2 12575.42,2039.05 12583.75,2054.5 12592.7,2069.34 12602.26,2083.77 12612.62,2097.6 12623.19,2110.81 12634.37,2123.2 12645.96,2135 12658.15,2146.18 12670.76,2156.75 12683.56,2166.51 12696.98,2175.66 12710.6,2183.99 12724.42,2191.51 12738.45,2198.21 12752.88,2204.32 12767.52,2209.6 12782.35,2214.27 12797.39,2217.93 12812.84,2220.98 12828.29,2223.01 12843.94,2224.24 12848.42,2224.44 12862.24,2224.44 12874.24,2224.64 13212.89,2219.15 13212.89,7031.09 12888.67,7044.1 12887.25,7044.1 12876.47,7044.7 12867.93,7045.52 12859.19,7046.54 12850.86,7047.75 12842.52,7049.38 12833.78,7051.21 12825.04,7053.24 12813.05,7056.29 12808.57,7057.72 12800.45,7060.35 12792.32,7063.41 12784.59,7066.46 12776.87,7069.91 12768.73,7073.57 12761.01,7077.44 12755.52,7080.27 12734.59,7092.88 12715.88,7105.69 12698.2,7119.91 12681.12,7135.57 12665.06,7152.44 12649.82,7170.73 12635.79,7190.25 12622.78,7210.78 12611.2,7232.13 12600.62,7254.89 12591.68,7278.47 12584.16,7302.87 12578.27,7327.86 12573.8,7354.09 12571.15,7380.72 12569.93,7410.6 12574.4,7756.17 674.06,7756.17 678.13,7437.23 678.13,7394.34 678.13,7388.24 676.71,7369.14 674.27,7350.23 671.21,7331.73 667.35,7313.64 662.47,7295.96 656.99,7278.68 650.69,7261.6 643.78,7245.34 636.05,7229.48 627.92,7214.24 618.77,7199.2 609.42,7184.96 599.26,7171.14 588.49,7157.93 577.31,7145.53 565.72,7133.74 553.52,7122.56 540.91,7111.99 528.11,7102.23 514.9,7093.29 501.28,7084.75 487.25,7077.23 473.23,7070.52 458.79,7064.42 444.16,7059.14 429.32,7054.46 414.28,7050.81 399.03,7047.96 383.58,7045.72 367.53,7044.5 362.03,7044.3 348.41,7044.3 337.44,7044.1 -0,7048.37 -0,2233.79 328.49,2225.25 335.81,2225.05 345.57,2224.64 354.11,2224.04 362.65,2223.01 371.59,2221.8 380.13,2220.37 388.25,2218.75 396.59,2216.92 405.53,2214.48 413.46,2212.24 420.78,2209.8 428.71,2206.96 436.84,2203.91 444.97,2200.45 452.9,2196.79 460.82,2192.93 466.52,2189.88 488.47,2177.08 506.97,2164.27 524.86,2150.04 541.94,2134.39 558.19,2117.31 573.44,2099.22 587.47,2079.91 600.47,2059.17 612.47,2037.42 622.84,2014.86 631.78,1991.28 639.51,1966.68 645.4,1941.48 649.87,1915.26 652.52,1888.43 653.53,1856.71 653.53,1856.71 653.73,1848.18 653.73,1844.92 653.32,1838.01 652.92,1830.7 652.31,1822.97 651.5,1815.65 650.89,1810.57 646.42,1782.92 645.4,1778.65 644.18,1772.35 642.76,1766.46 641.34,1760.97 639.91,1755.49 638.08,1749.18 636.25,1742.88 537.46,1417.64 857.42,1314.99 873.88,1309.9 920.43,1294.86 965.15,1280.64 1007.84,1266.81 1048.5,1253.8 1087.73,1241.19 1125.13,1229 1161.31,1217.41 1196.28,1206.03 1230.22,1195.05 1262.95,1184.48 1294.86,1174.12 1326.17,1164.15 1356.86,1154.2 1387.15,1144.23 1417.04,1134.68 1446.71,1124.92 1605.27,1073.49 1763.82,1022.27 1922.37,971.05 2081.13,920.23 2239.89,869.61 2398.85,819.6 2558.02,770.01 2717.18,721.02 2876.75,673.04 3036.32,625.68 3196.1,579.33 3356.07,533.8 3516.26,489.69 3676.44,446.8 3837.03,405.13 3997.61,364.88 4158.6,326.25 4319.8,289.26 4481.2,253.89 4642.6,220.55 4804.62,189.04 4966.63,159.57 5128.84,132.12 5291.46,107.13 5454.49,84.36 5617.51,64.23 5780.94,46.55 5944.58,31.51 6108.42,19.1 6272.67,9.76 "/>
   <path class="fil1" d="M958.24 1615.22c1879.89,-601.9 3753.28,-1279.21 5646.99,-1299.54 1883.14,-20.13 3753.48,657.19 5628.28,1283.48 -23.99,73.18 -37.2,151.64 -37.2,233.76 0,390.69 297.59,707.6 664.5,707.6l15.04 -0.2 0 2058.37 0 2075.44c-356.75,12.2 -642.55,324.22 -642.55,707.19l0 4.27 -5628.08 0 -5590.07 0 0 -4.27c0,-390.69 -297.39,-707.6 -664.3,-707.6l-13.83 0.2 0 -2075.24 0 -2057.76c361.83,-6.1 653.53,-320.57 653.53,-707.4 0,-76.23 -11.38,-149.61 -32.32,-218.32l0.01 0.02z"/>
   <path class="fil2" d="M930.8 1543.87l16.27 -5.29c255.31,-81.72 415.29,-133.75 573.84,-185.18 1688.61,-548.03 3373.96,-1094.84 5083.51,-1113.13 1768.09,-18.9 3515.44,568.16 5265.44,1156.03l0 0.2c130.91,43.91 261.62,87.81 392.32,131.52l95.13 31.71 -32.32 100.01 -0.2 1.02 -0.41 0.41c-2.03,6.3 -4.68,15.24 -7.92,26.63l-0.2 -0.2c-2.24,8.54 -4.47,17.48 -6.71,26.83 -10.57,45.94 -16.27,94.72 -16.27,145.75l0 0.2 -0.41 0c0,166.69 63.62,317.92 166.28,427.29 102.86,109.36 244.54,177.26 400.86,177.46l0.41 0 0 -0.41 0.41 0 0 0.41 13.83 -0.41 97.98 -1.42 0 104.28 0 2058.37 0 2075.44 0 98.99 -93.31 3.66 -4.88 0.2 0 0c-41.87,1.83 -83.14,8.74 -123.18,20.13l-0.41 0c-39.43,11.18 -77.45,26.83 -113.02,46.35 -182.74,100.42 -307.76,303.29 -308.17,537.05l0.2 3.86 1.22 104.28 -97.78 0 -5628.08 0 -5590.07 0 -97.78 0 1.42 -104.28 0 -3.05 -0.41 0 0 -0.2 0.41 0 0 -0.82c-0.2,-166.49 -63.83,-317.31 -166.28,-426.47 -102.86,-109.36 -244.54,-177.26 -400.86,-177.46l-0.41 0 0 0.41 -0.41 0 0 -0.41 -12.6 0.2 -97.98 1.22 0 -103.87 0 -2075.24 0 -2057.76 0 -100.22 94.52 -2.44 9.76 -0.41c42.69,-1.22 84.57,-7.92 124.61,-18.9 39.43,-10.98 77.86,-26.63 114.65,-46.55 183.97,-100.01 310,-303.9 310,-538.88l0 -1.22 0.41 0c0,-31.51 -2.44,-63.01 -7.12,-93.91l-0.2 0 -2.85 -17.68 0.2 0c-4.68,-25.41 -10.57,-50.21 -17.89,-73.99l-30.29 -99.81 94.72 -30.29 0.01 0.02zm646.22 6.09c-186.41,60.38 -371.79,120.54 -502.5,162.62l0.2 0.61 2.85 17.68 0 1.22c6.1,41.26 9.56,83.75 9.56,127.45l0.41 0 0 1.22c0,315.28 -169.12,588.48 -416.11,722.44 -47.77,26.02 -99.2,46.75 -153.67,62 -27.44,7.52 -55.29,13.42 -83.95,17.68l0 1963.03 0 1977.05c177.05,20.33 335.61,105.5 454.93,232.34 117.09,124.81 196.36,290.08 217.51,474.44l5499 0 5537.22 0c30.9,-271.57 188.03,-501.68 406.96,-621.82 47.77,-26.43 98.79,-47.57 151.84,-62.61l0 0c25.21,-7.32 51.23,-13.21 77.86,-17.48l0 -1981.93 0 -1960.18c-177.46,-20.13 -336.63,-105.09 -456.15,-232.34 -137.62,-146.56 -222.99,-349.23 -222.99,-573.04l-0.41 0 0 -0.2c0,-56.31 5.49,-111.6 16.06,-165.46l-303.49 -101.84 -0.41 0c-1736.58,-583.2 -3470.32,-1165.78 -5205.68,-1147.29 -1681.29,17.89 -3353.64,560.63 -5029.03,1104.39l-0.01 -0.01z"/>
   <path class="fil2" d="M4441.36 3941.3c244.94,-47.37 491.32,-77.45 737.28,-103.87 0,213.04 0,425.86 0,638.49 -73.18,5.49 -146.36,10.98 -218.93,17.68 0,180.91 0,362.03 0,542.74 0,180.51 0,361.22 0,541.93 72.57,-3.25 145.75,-5.89 218.93,-8.33 0,160.58 0,321.78 0,481.97 0,160.79 0,321.58 0,481.76 -98.79,0 -196.77,0 -294.95,0 0,-64.24 0,-128.88 0,-193.32 0,-83.14 -56.91,-124 -169.73,-121.97 -223.6,4.06 -447.21,9.76 -670.81,16.47 -119.53,3.66 -178.68,44.52 -178.68,120.95 0,59.56 0,118.91 0,177.87 -97.37,0 -193.92,0 -290.68,0 0,-140.06 0,-280.31 0,-420.38 0,-140.26 0,-280.93 0,-421.39 74.6,-9.35 149,-18.5 223.6,-27.04 0,-180.1 0,-360.61 0,-540.71 0,-180.51 0,-360.82 0,-541.12 0,-166.08 49.2,-301.86 149.81,-407.57 99.61,-104.89 263.65,-189.65 494.16,-234.17l0 0.01zm209.98 585.23c-71.76,8.94 -143.72,18.3 -214.66,29.07 -122.38,18.5 -209.78,52.85 -261.21,99.2 -52.65,47.16 -78.66,116.47 -78.66,207.54 0,128.68 0,257.55 0,386.22 0,128.47 0,257.75 0,386.02 184.57,-15.45 369.35,-29.27 554.53,-41.06 0,-177.87 0,-355.53 0,-533.19 0,-177.67 0,-355.94 0,-533.8zm1944.53 461.84c106.93,36.19 178.47,77.45 214.25,122.38 36.19,45.73 53.67,107.73 53.67,186.61 0,151.24 0,302.68 0,454.12 0,133.35 -54.47,241.9 -163.02,326.46 -108.96,84.57 -252.67,127.25 -431.15,127.45 -278.69,0.61 -557.38,2.03 -835.87,3.66 0,-215.47 0,-430.94 0,-646.82 73.79,-1.42 148.39,-3.05 222.79,-4.47 0,-184.17 0,-369.15 0,-553.52 0,-184.17 0,-369.35 0,-553.92 -74.4,3.05 -149,6.3 -222.79,9.56 0,-214.25 0,-428.71 0,-643.37 246.98,-13.83 494.16,-23.78 741.95,-28.46 124.81,-2.44 230.31,14.03 314.87,46.14 85.17,32.32 150.42,79.89 196.77,142.09 46.35,62.41 69.12,135.79 69.12,219.34 0,187.62 0,375.24 0,562.66 0,85.78 -53.67,162.22 -160.58,230.11l-0.01 -0.01zm-639.1 129.28c0,145.75 0,290.88 0,436.23 130.91,-1.02 261.82,-2.03 393.34,-2.44 83.34,-0.2 141.07,-12.2 174,-36.19 32.93,-23.78 48.99,-65.05 48.99,-123.79 0,-41.67 0,-83.34 0,-125.21 0,-45.33 -20.94,-81.92 -62.41,-109.97 -41.67,-27.85 -95.34,-42.28 -160.58,-41.87 -131.52,0.82 -262.43,1.62 -393.34,3.25l0 -0.01zm0 -675.68c0,155.3 0,310.8 0,466.31 93.31,-1.42 187.21,-2.44 281.34,-3.25 80.5,-0.82 137.01,-15.04 169.73,-43.29 32.93,-28.46 49.2,-72.98 49.2,-133.95 0,-52.85 0,-106.11 0,-159.37 0,-88.02 -63.83,-131.92 -192.09,-130.91 -102.66,1.02 -205.51,2.64 -308.17,4.47l-0.01 0zm2498.46 -82.53c0,238.44 0,477.09 0,715.53 0,238.64 0,477.29 0,715.73 0,142.09 -55.9,249.83 -167.29,324.22 -112.21,75.01 -267.92,111.6 -467.33,109.56 -190.67,-2.03 -341.7,-43.7 -453.92,-126.64 -111.4,-82.74 -167.91,-196.77 -167.91,-340.9 0,-249.42 0,-498.83 0,-748.25 0,-249.42 0,-498.63 0,-748.05 0,-151.04 55.5,-266.49 165.87,-344.35 109.77,-77.24 262.02,-109.56 455.95,-91.27 202.87,19.1 359.19,80.3 469.37,175.23 109.97,94.72 165.26,214.66 165.26,359.19zm-504.94 1230.63c140.26,5.49 209.98,-49.6 209.98,-165.46 0,-124.41 0,-249.62 0,-374.23 0,-124.41 0,-249.42 0,-374.23 0,-63.42 -15.24,-109.56 -46.96,-138.63 -31.51,-29.07 -85.98,-47.37 -163.02,-53.46 -81.92,-6.71 -163.84,-12.4 -245.76,-17.48 -134.36,-8.33 -201.45,47.77 -201.45,166.28 0,127.86 0,255.72 0,383.18 0,127.25 0,255.51 0,382.57 0,118.71 67.08,179.7 201.45,183.56 81.92,2.24 163.84,5.08 245.76,7.92l0 -0.02zm1278.4 -349.63c0,136.39 0,272.6 0,408.99 83.14,6.91 166.49,13.42 250.44,20.94 0,191.69 0,383.38 0,574.86 -257.95,-7.32 -515.71,-13.83 -773.67,-19.72 0,-204.49 0,-408.79 0,-613.68 74.6,4.47 149.2,9.76 223.81,15.04 0,-171.36 0,-343.34 0,-514.69 0,-171.36 0,-343.13 0,-514.9 -74.6,-10.98 -149.2,-21.95 -223.81,-31.92 0,-203.28 0,-406.75 0,-610.64 274.01,51.64 548.44,108.75 822.66,176.24 161.4,39.84 287.64,104.28 379.92,184.37 92.28,80.09 139.04,167.5 139.04,264.06 0,158.96 0,317.92 0,476.88 0,109.77 -36.19,180.51 -107.33,213.24 -71.96,33.13 -206.12,35.98 -402.28,9.56 -103.26,-13.83 -206.12,-26.02 -308.77,-38.62l-0.01 0.01zm0 -219.54c99.4,13.83 199.42,28.25 299.42,43.5 80.5,12.4 134.98,12.8 163.02,1.22 28.25,-11.79 42.49,-39.03 42.49,-81.31 0,-43.5 0,-86.8 0,-130.71 0,-42.08 -14.23,-74.8 -42.49,-96.76 -28.05,-22.16 -82.53,-41.47 -163.02,-56.91 -100.01,-19.1 -200.02,-36.99 -299.42,-54.27 0,125.01 0,250.23 0,375.24z"/>
   <path class="fil2" d="M10808.14 2125.85c0,195.15 43.09,370.36 130.09,523.43 86.8,152.66 183.15,244.33 288.25,276.86 0,138.03 0,275.64 0,413.87 -65.05,-18.09 -129.28,-35.57 -193.52,-53.05 0,191.08 0,382.36 0,573.04 0,190.47 0,381.75 0,572.42 162.82,-306.74 326.46,-602.5 490.09,-887.7 0,-41.06 0,-82.12 0,-123.18 -63.22,-17.07 -126.44,-34.96 -189.65,-52.04 0,-136.19 0,-272.8 0,-409.4 113.43,34.96 212.42,6.5 299.42,-81.1 86.8,-87.41 131.12,-218.11 131.12,-396.39 74.4,28.05 149.61,56.71 225.02,84.57 0,164.25 0,328.29 0,491.92 0,163.84 0,327.48 0,491.12 -65.05,-18.09 -129.28,-35.57 -193.52,-53.67 0,286.82 0,573.04 0,858.83 0,286.21 0,572.01 0,858.23 64.24,6.5 128.47,13.01 193.52,20.13 0,164.65 0,329.71 0,493.96 0,164.65 0,329.31 0,493.35 -218.52,-0.41 -437.04,-1.02 -655.56,-2.03 0,-175.23 0,-350.85 0,-525.87 0,-175.63 0,-351.87 0,-527.5 63.22,6.5 126.44,13.01 189.65,19.51 0,-186.2 0,-373.42 0,-560.03 0,-186.2 0,-373.42 0,-560.63 -163.64,288.85 -327.27,587.26 -490.09,895.84 0,58.54 0,116.27 0,174.21 64.24,6.5 128.47,13.01 193.52,20.13 0,177.05 0,355.32 0,532.38 0,177.05 0,354.92 0,531.97 -218.52,-0.41 -437.04,-1.42 -654.55,-2.03 0,-187.62 0,-375.86 0,-563.89 0,-187.62 0,-376.47 0,-564.5 65.05,5.89 131.12,12.4 196.97,19.51 0,-315.28 0,-630.77 0,-946.04 0,-314.67 0,-630.36 0,-945.64 -65.86,-18.09 -131.92,-35.57 -196.97,-52.24 0,-187.01 0,-374.23 0,-561.45 0,-187.21 0,-374.23 0,-561.86 78.06,27.85 157.13,56.51 236.2,84.97l0.01 0z"/>
   <path class="fil2" d="M9315.5 2619.2c0,84.16 0,168.31 0,252.27 0,91.68 40.86,144.12 122.17,157.75 67.89,11.38 135.99,23.37 203.89,35.98 58.74,10.77 89.24,-20.94 89.24,-96.55 0,-54.47 0,-109.16 0,-163.64 0,-69.52 -34.96,-112 -104.08,-125.62 -103.87,-20.74 -208.16,-40.66 -311.21,-60.17l0 -0.01zm-173.19 -581.98c-37.4,-6.91 -73.59,-14.03 -109.77,-21.54 0,-136.6 0,-273.2 0,-409.81 127.86,27.65 255.72,57.53 383.78,88.02 0,134.16 0,268.33 0,402.49 -33.95,-7.52 -68.1,-15.04 -100.82,-22.16 0,126.24 0,252.27 0,377.48 103.06,20.53 207.34,40.86 311.21,63.01 183.56,39.03 274.01,144.53 274.01,314.67 0,113.23 0,226.25 0,338.86 0,94.72 -27.04,170.96 -81.51,228.28 -55.29,58.14 -127.86,79.68 -219.54,65.45 -122.17,-18.7 -216.28,-97.98 -284.18,-240.06 0,61.59 0,123.59 0,184.98 -95.13,-13.83 -189.04,-27.04 -282.96,-39.43 0,-136.6 0,-273.81 0,-410.41 36.19,6.1 72.36,11.59 109.77,17.07 0,-311.83 0,-624.06 0,-936.89l0 -0.01zm969.01 223.81c-38.62,-10.16 -76.03,-19.51 -113.23,-28.66 0,-129.48 0,-259.18 0,-388.87 129.08,35.17 257.95,70.54 387.04,108.14 0,126.24 0,252.88 0,379.31 -36.19,-9.96 -71.35,-18.9 -106.31,-28.46 0,292.72 0,585.43 0,877.74 34.96,7.52 70.13,14.63 106.31,22.16 0,126.44 0,253.08 0,379.31 -129.08,-23.17 -257.95,-45.13 -387.04,-66.68 0,-130.09 0,-259.78 0,-389.27 37.2,6.91 74.6,14.43 113.23,21.95 0,-295.15 0,-590.92 0,-886.69l0 0.01zm-1962.83 169.12c0,136.6 0,272.8 0,408.79 36.19,4.47 72.36,8.54 109.77,13.01 0,141.07 0,282.35 0,423.42 -131.12,-14.03 -262.43,-25.01 -392.72,-35.57 0,-142.5 0,-285.6 0,-428.3 36.19,3.45 72.57,6.91 109.77,10.36 0,-326.25 0,-652.92 0,-979.79 -37.2,-4.47 -73.59,-8.94 -109.77,-13.42 0,-142.7 0,-285.81 0,-428.5 130.3,17.48 261.62,35.17 392.72,57.12 0,141.07 0,282.14 0,423.42 -37.4,-6.1 -73.59,-10.98 -109.77,-16.67 0,133.15 0,266.29 0,399.43 138.23,18.5 276.25,38.01 414.28,58.54 0,-131.12 0,-262.22 0,-393.75 -36.19,-6.1 -72.36,-12.6 -108.55,-18.7 0,-140.06 0,-280.11 0,-420.38 127.86,24.6 255.72,49.2 383.58,74.19 0,138.03 0,275.64 0,413.87 -34.96,-6.1 -70.13,-12.6 -104.08,-18.7 0,318.33 0,636.66 0,954.38 33.95,4.68 69.12,9.15 104.08,14.23 0,138.03 0,276.25 0,413.67 -127.86,-15.45 -255.72,-30.9 -383.58,-45.94 0,-140.06 0,-280.11 0,-420.38 36.19,5.08 72.36,9.56 108.55,14.43 0,-133.95 0,-268.12 0,-403.3 -138.03,-19.51 -276.05,-37.4 -414.28,-55.5l0 0.01zm-1739.63 -1105.01c0,63.62 0,126.64 0,189.65 66.68,-139.24 158.35,-212.42 273.81,-212.22 126.85,0.2 220.76,73.59 284.18,212.63 81.51,-135.99 178.88,-198.39 292.11,-191.08 96.15,6.1 168.31,47.77 219.54,125.62 50.61,77.24 75.82,168.11 75.82,272.19 0,355.32 0,710.25 0,1064.55 37.4,2.44 74.8,5.49 113.23,8.54 0,143.1 0,286.61 0,429.73 -130.3,-7.92 -260.39,-16.47 -390.49,-20.94 0,-144.73 0,-289.26 0,-433.38 36.19,1.02 72.36,3.05 109.77,4.47 0,-280.72 0,-562.06 0,-843.18 0,-95.54 -40.86,-146.36 -121.15,-150.63 -56.51,-3.25 -112,-6.91 -167.5,-10.16 -40.86,-2.24 -70.33,8.13 -89.44,30.08 -18.09,20.94 -27.24,57.53 -27.24,110.17 0,282.76 0,564.9 0,847.66 36.39,0.61 72.57,1.02 109.77,3.05 0,144.53 0,289.87 0,434.4 -126.64,-3.05 -253.48,-4.47 -380.12,-6.5 0,-145.14 0,-290.28 0,-435.42 33.95,1.02 67.89,1.02 102.86,2.03 0,-282.76 0,-565.51 0,-848.27 0,-96.15 -40.66,-146.56 -122.17,-147.17 -61.18,-0.41 -122.17,2.64 -182.34,3.45 -66.68,1.22 -100.62,50.21 -100.62,146.16 0,282.76 0,565.51 0,847.86 36.19,-1.02 72.36,-1.02 109.77,-2.03 0,145.14 0,290.28 0,435.42 -131.32,1.42 -262.63,5.49 -392.72,9.96 0,-144.53 0,-289.26 0,-433.79 36.19,-1.02 72.36,-2.44 109.77,-4.68 0,-331.75 0,-664.1 0,-996.25 -37.4,2.03 -73.59,3.86 -109.77,5.49 0,-144.12 0,-288.85 0,-433.38 93.91,-5.49 187.83,-10.98 282.96,-14.03l-0.01 0zm-740.33 1062.52c-105.29,8.94 -209.37,19.92 -313.45,30.49 -73.59,7.32 -109.77,48.99 -109.77,124 0,58.54 0,117.09 0,175.63 0,81.72 31.71,118.71 97.37,112.61 65.45,-5.89 131.32,-11.79 197.99,-17.89 84.97,-7.92 127.86,-59.15 127.86,-156.72 0,-89.64 0,-178.68 0,-268.12zm-588.48 -227.26c0,-106.11 0,-212.22 0,-318.33 0,-267.31 126.64,-421.18 377.89,-454.93 122.38,-16.27 215.47,6.3 280.72,67.49 64.85,60.78 97.37,154.69 97.37,280.31 0,349.84 0,699.67 0,1049.51 37.4,-3.05 74.8,-5.49 113.23,-7.92 0,143.92 0,288.25 0,432.77 -93.91,5.49 -187.83,10.98 -280.72,16.47 0,-66.06 0,-131.52 0,-197.59 -73.59,145.54 -169.73,222.79 -289.67,232.14 -89.44,7.12 -160.99,-23.37 -216.28,-92.49 -54.47,-68.5 -82.53,-151.84 -82.53,-249.21 0,-122.17 0,-244.33 0,-366.3 0,-184.77 91.48,-289.87 275.03,-310.8 104.08,-12 208.16,-22.16 313.45,-32.12 0,-89.64 0,-179.09 0,-269.34 0,-96.55 -35.17,-142.7 -106.31,-133.95 -69.12,8.33 -138.23,16.06 -207.13,23.99 -73.59,8.54 -109.77,62 -109.77,157.75 0,50.41 0,101.02 0,150.42 -55.5,7.52 -110.99,15.04 -165.26,22.16l-0.02 -0.01zm-502.7 188.03c0,-129.08 0,-258.57 0,-387.65 -38.42,6.91 -76.84,14.43 -115.46,21.34 0,-137.62 0,-275.64 0,-413.26 129.08,-26.02 259.38,-49.6 389.48,-74.19 0,140.26 0,280.31 0,419.97 -36.19,6.5 -71.35,12.6 -106.31,17.89 0,320.36 0,640.11 0,960.07 34.96,-4.68 70.13,-9.15 106.31,-14.03 0,140.06 0,280.11 0,419.76 -130.09,15.04 -260.39,30.08 -389.48,46.14 0,-137.62 0,-275.84 0,-413.46 38.62,-5.49 77.04,-10.98 115.46,-17.07 0,-130.91 0,-262.02 0,-393.75 -106.31,17.48 -211.81,34.35 -316.91,52.44 -182.34,31.92 -273.81,-38.01 -273.81,-212.22 0,-94.52 0,-188.64 0,-283.16 -39.64,8.54 -79.28,17.07 -118.91,25.61 0,-134.16 0,-267.71 0,-401.87 135.79,-31.51 271.57,-62.61 408.58,-92.69 0,136.6 0,273.4 0,410.01 -38.42,6.91 -75.82,14.43 -113.02,22.57 0,92.9 0,186 0,279.1 0,67.69 32.73,94.52 97.17,83.14 105.29,-18.7 210.6,-36.59 316.91,-54.68l-0.01 -0.01zm-1048.09 201.25c0,-85.58 0,-171.56 0,-257.75 0,-75.01 -37.4,-104.69 -113.23,-85.98 -64.44,15.86 -127.86,31.51 -191.28,46.96 -68.91,17.07 -104.08,62.2 -104.08,135.59 0,84.16 0,168.31 0,251.86 135.79,-30.49 271.57,-60.58 408.58,-90.66l0.01 -0.01zm0 255.31c55.5,-10.57 110.99,-21.54 167.5,-32.52 0,108.14 0,216.08 0,323.82 0,115.46 -32.52,211.81 -98.38,286.61 -66.47,75.42 -156.32,121.35 -270.56,140.26 -115.46,19.1 -206.12,3.25 -272.8,-47.57 -65.86,-50.41 -98.38,-131.12 -98.38,-241.7 0,-321.78 0,-643.16 0,-965.35 0,-101.23 34.96,-192.3 106.31,-273.4 71.35,-82.94 162.01,-138.23 271.57,-167.5 109.97,-29.27 197.18,-20.33 263.85,27.85 65.65,47.97 98.38,127.65 98.38,237.23 0,193.32 0,386.02 0,578.11 -192.3,38.62 -384.8,79.48 -576.08,120.14 0,85.58 0,171.56 0,257.15 0,40.66 10.16,67.69 30.49,81.1 20.53,13.42 52.04,16.27 95.13,7.92 63.42,-12 126.85,-23.58 191.28,-35.98 61.18,-11.59 91.68,-55.5 91.68,-133.15 0,-54.47 0,-108.55 0,-163.02l0 0.01z"/>
   <path class="fil2" d="M2251.07 3269.88c-168.92,44.52 -337.84,90.05 -505.75,135.59 0,298.82 0,598.03 0,896.85 0,298.2 0,597.43 0,895.84 66.06,-6.5 132.94,-13.62 200.02,-20.13 0,178.68 0,357.97 0,536.04 0,178.27 0,357.35 0,535.43 -225.64,0 -451.07,0 -675.68,0 0,-166.69 0,-334.19 0,-501.48 0,-167.09 0,-334.59 0,-501.89 67.08,-6.91 134.98,-13.42 202.87,-20.53 0,-290.68 0,-581.98 0,-872.66 0,-290.88 0,-582.18 0,-873.27 -67.89,18.5 -135.79,36.39 -202.87,54.88 0,-166.08 0,-332.76 0,-498.83 0,-166.28 0,-333.37 0,-500.06 486.85,-181.12 973.89,-359.8 1461.75,-532.99 0,190.67 0,381.34 0,571.61 0,190.06 0,380.74 0,571 -67.08,17.07 -134.16,33.95 -200.02,51.02 0,320.77 0,642.14 0,962.91 0,320.16 0,640.93 0,961.9 65.86,-6.5 132.94,-12.6 200.02,-19.1 0,191.08 0,383.38 0,574.05 0,191.28 0,382.77 0,573.44 -225.64,0 -451.07,0 -676.71,0 0,-179.7 0,-360.82 0,-540.91 0,-179.7 0,-360.82 0,-540.91 65.05,-6.5 130.3,-13.01 196.36,-19.51 0,-312.84 0,-626.09 0,-938.93 0,-312.84 0,-626.09 0,-939.34z"/>
   <path class="fil0" d="M6159.04 6863.58c0,0 158.35,147.17 412.65,147.17 260.39,0 412.65,-147.17 412.65,-147.17 0,0 356.14,-33.34 560.03,135.38 9.35,-19.92 20.33,-41.67 37.61,-58.34 56.51,-68.5 141.28,-80.3 227.46,-85.37 1.62,18.5 14.23,81.92 103.67,81.92 92.49,-13.42 92.49,-66.88 95.75,-85.17 59.56,-3.25 127.05,-1.62 167.7,56.71 996.45,-78.46 3425.19,-51.64 3735.8,-58.34l0 -9.96c-310.6,-8.54 -2739.34,18.3 -3735.8,-60.38 -40.66,60.38 -108.14,62 -167.7,56.91 -3.25,-18.3 -3.25,-71.96 -95.75,-85.17 -89.44,0 -102.05,65.05 -103.67,81.92 -86.19,-5.08 -170.96,-16.87 -227.46,-85.37 -17.28,-16.67 -28.25,-38.42 -37.61,-56.71 -163.23,127.05 -360.82,140.26 -560.03,137.01 0,0 -152.25,-147.17 -412.65,-147.17 -254.3,0 -412.65,147.17 -412.65,147.17 -199.42,3.25 -398.63,-9.96 -560.23,-137.01 -9.35,18.3 -20.33,40.05 -39.23,56.71 -54.88,68.5 -141.07,80.3 -225.84,85.37 -1.62,-16.87 -14.23,-81.92 -105.09,-81.92 -91.07,13.21 -92.69,66.88 -95.75,85.17 -59.56,5.08 -127.05,3.45 -166.28,-56.91 -996.45,78.66 -3426.61,51.84 -3737.42,60.38l0 9.96c310.8,6.71 2740.97,-20.13 3737.42,58.34 39.23,-58.34 106.72,-59.97 166.28,-56.71 3.05,18.3 4.68,71.76 95.75,85.17 90.87,0 103.47,-63.42 105.09,-81.92 84.77,5.08 170.96,16.87 225.84,85.37 18.9,16.67 29.88,38.42 39.23,58.34 191.48,-163.64 560.23,-135.38 560.23,-135.38z"/>
   <path class="fil0" d="M10890.47 2148.82l783.02 296.38c-10.16,327.27 -132.54,482.37 -363.86,400.86 -321.58,-113.63 -419.15,-523.02 -419.15,-697.23z"/>
   <path class="fil3 str0" d="M930.8 1543.87l16.27 -5.29c255.31,-81.72 415.29,-133.75 573.84,-185.18 1688.61,-548.03 3373.96,-1094.84 5083.51,-1113.13 1952.26,-20.74 3819.95,674.26 5657.76,1287.75l95.13 31.71 -32.32 100.01 -0.2 1.02 -0.41 0.41c-2.03,6.3 -4.68,15.24 -7.92,26.63l-0.2 -0.2c-2.24,8.54 -4.47,17.48 -6.71,26.83 -10.57,45.94 -16.27,94.72 -16.27,145.75l0 0.2 -0.41 0c0,166.69 63.62,317.92 166.28,427.29 102.86,109.36 244.54,177.26 400.86,177.46l0.41 0 0 -0.41 0.41 0 0 0.41 13.83 -0.41 97.98 -1.42 0 104.28 0 2058.37 0 2075.44 0 98.99 -93.31 3.66 -4.88 0.2 0 0c-41.87,1.83 -83.14,8.74 -123.18,20.13l-0.41 0c-39.43,11.18 -77.45,26.83 -113.02,46.35 -182.74,100.42 -307.76,303.29 -308.17,537.05l0.2 3.86 1.22 104.28 -97.78 0 -5628.08 0 -5590.07 0 -97.78 0 1.42 -104.28 0 -3.05 -0.41 0 0 -0.2 0.41 0 0 -0.82c-0.2,-166.49 -63.83,-317.31 -166.28,-426.47 -102.86,-109.36 -244.54,-177.26 -400.86,-177.46l-0.41 0 0 0.41 -0.41 0 0 -0.41 -12.6 0.2 -97.98 1.22 0 -103.87 0 -2075.24 0 -2057.76 0 -100.22 94.52 -2.44 9.76 -0.41c42.69,-1.22 84.57,-7.92 124.61,-18.9 39.43,-10.98 77.86,-26.63 114.65,-46.55 183.97,-100.01 310,-303.9 310,-538.88l0 -1.22 0.41 0c0,-31.51 -2.44,-63.01 -7.12,-93.91l-0.2 0 -2.85 -17.68 0.2 0c-4.68,-25.41 -10.57,-50.21 -17.89,-73.99l-30.29 -99.81 94.72 -30.29 0.01 0.01z"/>
  </g>
  <path class="fil4" d="M12289.33 9478.16c-113.97,0 -193.65,-24.82 -239.06,-74.47 -45.41,-49.65 -68.12,-121.92 -68.12,-216.89l0 -392.62c0,-95.85 22.88,-167.68 68.73,-215.57 45.86,-47.97 125.37,-71.91 238.45,-71.91 115.65,0 195.95,23.94 240.92,71.91 45.06,47.89 67.59,119.71 67.59,215.57l0 392.62c0,47.97 -5.03,89.84 -14.93,125.81 -9.89,35.86 -26.77,66.25 -50.8,91.08 -23.94,24.83 -55.47,43.46 -94.71,55.84 -39.22,12.36 -88.61,18.64 -148.07,18.64l0 -0.01zm-96.65 -648.02l0 323.35c0,53 8.13,91.08 24.21,114.23 16.08,23.06 40.29,34.64 72.45,34.64 32.25,0 56.63,-11.4 73.06,-34.02 16.6,-22.71 24.82,-60.96 24.82,-114.85l0 -323.35c0,-53.1 -8.22,-90.91 -24.82,-113.61 -16.43,-22.62 -40.82,-34.02 -73.06,-34.02 -32.16,0 -56.37,11.4 -72.45,34.02 -16.08,22.71 -24.21,60.51 -24.21,113.61l0 -0.01zm-645.37 628.76l-364.16 0 0 -143.74c16.52,-4.32 28.27,-12.81 35.25,-25.71 7.07,-12.81 10.52,-40.19 10.52,-82.07l0 -437.58c0,-41.96 -3.45,-69.35 -10.52,-82.17 -6.98,-12.81 -18.73,-21.37 -35.25,-25.62l0 -137.29 351.8 0c109.02,0 187.47,19.88 235.35,59.64 47.89,39.76 71.83,103.72 71.83,191.8 0,49.65 -7.6,89.05 -22.88,118.11 -15.29,29.07 -44.8,53.01 -88.61,71.83 28.09,12.81 50.44,27.38 66.88,43.64 16.52,16.26 29.15,34.19 37.81,53.89 8.66,19.7 14.49,41.53 17.32,65.47 2.92,23.94 4.33,50.44 4.33,79.51 0,89.84 -23.06,153.98 -69.35,192.5 -46.2,38.52 -126.34,57.78 -240.3,57.78l0 0zm-106.55 -404.27l0 234.83 94.18 0c39.66,0 68.55,-9.36 86.67,-28.18 18.2,-18.81 27.3,-49.21 27.3,-91.08 0,-41.96 -9.72,-71.65 -29.16,-89.23 -19.34,-17.5 -49.3,-26.33 -89.76,-26.33l-89.23 0 0 0zm0 -361.87l0 204.09 83.05 0c38.79,0 66.88,-7.33 84.2,-21.82 17.31,-14.58 26.06,-39.32 26.06,-74.39 0,-39.4 -8.75,-67.23 -26.06,-83.48 -17.32,-16.26 -45.41,-24.39 -84.2,-24.39l-83.05 0zm-1078.97 139.94l0 -333.68 720.99 0 0 333.68 -172.19 0 0 -74.47c0,-30.75 -4.77,-53.27 -14.31,-67.41 -9.46,-14.05 -28.71,-21.56 -57.61,-22.35l-11.13 0 0 538.91c0,41.88 4.15,70.32 12.36,85.34 8.31,14.93 20.24,22.44 35.96,22.44l0 143.74 -307.18 0 0 -143.74c15.63,0 27.65,-7.51 35.86,-22.44 8.31,-15.02 12.46,-43.46 12.46,-85.34l0 -538.91 -11.22 0c-28.89,0.79 -48.06,8.3 -57.6,22.35 -9.46,14.13 -14.23,36.66 -14.23,67.41l0 74.47 -172.19 0 0 0zm-96.65 0l-190.74 0 0 -38.52c0,-46.2 -10.16,-76.33 -30.39,-90.47 -20.24,-14.13 -45.59,-21.2 -76.16,-21.2 -32.25,0 -56.36,11.4 -72.44,34.01 -16.17,22.71 -24.21,60.52 -24.21,113.61l0 323.35c0,53 8.03,91.08 24.21,114.23 16.08,23.06 40.19,34.64 72.44,34.64 32.16,0 57.96,-11.4 77.4,-34.02 19.44,-22.71 29.15,-60.96 29.15,-114.85l0 -34.63 190.74 0 0 287.39c-90.02,47.88 -189.14,71.91 -297.29,71.91 -58.66,0 -107.78,-6.27 -147.45,-18.64 -39.66,-12.37 -71.65,-30.84 -95.94,-55.22 -24.39,-24.38 -41.97,-54.68 -52.66,-91.08 -10.78,-36.31 -16.17,-78.46 -16.17,-126.42l0 -406.75c0,-91.53 23.77,-159.99 71.21,-205.32 47.53,-45.32 127.84,-68.02 241,-68.02 101.6,0 200.64,22.71 297.29,68.02l0 257.98 -0.01 -0.01zm-729.65 626.2l-644.14 0 0 -143.74c16.52,-4.32 28.27,-12.81 35.25,-25.71 7.07,-12.81 10.52,-40.19 10.52,-82.07l0 -437.58c0,-41.96 -3.45,-69.35 -10.52,-82.17 -6.98,-12.81 -18.73,-21.37 -35.25,-25.62l0 -137.29 644.14 0 0 307.97 -198.16 0 0 -34.72c0,-40.19 -8.3,-68.2 -24.83,-84.02 -16.52,-15.81 -44.96,-23.76 -85.43,-23.76l-75.63 0 0 205.31 185.88 0 0 161.68 -185.88 0 0 234.83 91.7 0c33.84,0 58.04,-7.69 72.45,-23.05 14.49,-15.37 21.74,-44.44 21.74,-87.29l0 -61.58 198.15 0 0 338.8 0.01 0zm-1075.27 -934.18l304.71 0 0 137.29c-16.53,4.25 -28.28,12.81 -35.25,25.62 -7.06,12.81 -10.6,40.2 -10.6,82.17l0 437.58c0,41.87 3.53,69.26 10.6,82.07 6.98,12.9 18.73,21.38 35.25,25.71l0 143.74 -314.61 0 0 -143.74c20.58,-4.32 35.25,-12.63 44,-25 8.66,-12.46 12.99,-40.02 12.99,-82.78l0 -83.4c-22.35,8.57 -51.24,14.93 -86.76,19.27 -35.51,4.24 -68.55,6.36 -99.12,6.36 -64.4,0 -115.2,-19.44 -152.31,-58.4 -37.19,-38.87 -55.75,-99.39 -55.75,-181.55l0 -139.85c0,-41.96 -3.89,-69.71 -11.75,-83.4 -7.86,-13.69 -17.13,-21.82 -27.91,-24.38l0 -137.29 293.57 0 0 137.29c-17.31,4.24 -29.33,12.81 -35.95,25.62 -6.54,12.81 -9.89,40.19 -9.89,82.16l0 129.61c0,29.07 7.86,51.77 23.59,68.02 15.63,16.26 35.52,24.39 59.46,24.39 23.14,0 43.11,-2.21 60.08,-6.46 16.96,-4.24 31.18,-8.13 42.76,-11.57l0 -203.99c0,-45.33 -4.32,-74.66 -12.99,-87.91 -8.74,-13.25 -20.05,-19.88 -34.1,-19.88l0 -137.29 0 0zm-813.85 934.18l-293.66 0 0 -143.74c12.46,-4.32 22.97,-13.07 31.62,-26.33 8.66,-13.25 15.9,-34.81 21.64,-64.75l95.41 -468.41c3.27,-16.26 3.27,-32.07 0,-47.44 -3.35,-15.47 -10.78,-23.15 -22.26,-23.15l0 -160.35 475.65 0 0 160.35c-11.57,0 -18.99,7.69 -22.34,23.15 -3.27,15.37 -3.27,31.18 0,47.44l96.65 468.41c6.62,29.95 13.6,51.5 21.11,64.75 7.42,13.26 17.76,22.01 30.92,26.33l0 143.74 -303.47 0 0 -143.74c14.84,0 25.18,-5.56 30.92,-16.7 5.83,-11.13 8.74,-19.7 8.74,-25.62 0,-22.26 -2.12,-44.08 -6.27,-65.46l-2.47 -14.13 -194.45 0 -2.48 14.13c-4.15,21.38 -6.18,43.2 -6.18,65.46 0,5.92 2.82,14.49 8.66,25.62 5.74,11.13 16.52,16.7 32.25,16.7l0 143.74 0.01 0zm59.37 -773.82l-65.64 365.75 142.5 0 -65.65 -365.75 -11.22 0 0 0zm-678.77 -160.35l257.62 0 0 137.29c-10.78,0 -20.06,3.19 -27.92,9.63 -7.77,6.36 -17.94,18.2 -30.3,35.25l-154.88 211.77c57.87,11.13 101.16,31.45 130.14,60.95 28.89,29.51 43.29,77.22 43.29,143.03l0 87.29c0,38.52 3.35,65.64 9.99,81.46 6.53,15.81 16.43,23.76 29.68,23.76l0 143.74 -234.12 0c-4.95,-12.9 -8.66,-28.01 -11.13,-45.59 -2.47,-17.5 -3.79,-46.38 -3.79,-86.58l0 -121.91c0,-47.97 -8.22,-83.67 -24.74,-107.16 -16.53,-23.5 -45.41,-35.25 -86.67,-35.25l-61.93 0 0 144.98c0,42.76 3.89,70.32 11.75,82.78 7.86,12.37 19.61,20.67 35.25,25.01l0 143.73 -304.7 0 0 -143.73c16.52,-4.33 28.27,-12.81 35.34,-25.71 6.98,-12.81 10.51,-40.19 10.51,-82.07l0 -437.58c0,-41.96 -3.53,-69.35 -10.51,-82.17 -7.07,-12.8 -18.82,-21.37 -35.34,-25.61l0 -137.29 304.7 0 0 137.29c-13.96,0 -25.35,6.62 -34.01,19.87 -8.66,13.26 -12.99,42.59 -12.99,87.91l0 150.1 126.33 -165.48c14.05,-18.9 23.94,-37.46 29.68,-55.84 5.83,-18.37 8.75,-37.46 8.75,-57.16l0 -116.7 0 0z"/>
  <path class="fil4" d="M6216.12 9459.02l-644.14 0 0 -143.65c16.53,-4.33 28.27,-12.9 35.34,-25.71 6.98,-12.81 10.52,-40.19 10.52,-82.07l0 -437.58c0,-41.96 -3.54,-69.35 -10.52,-82.16 -7.06,-12.81 -18.81,-21.38 -35.34,-25.62l0 -137.38 644.14 0 0 307.97 -198.16 0 0 -34.63c0,-40.19 -8.3,-68.2 -24.82,-84.02 -16.43,-15.81 -44.97,-23.76 -85.44,-23.76l-75.53 0 0 205.32 185.79 0 0 161.67 -185.79 0 0 234.83 91.61 0c33.84,0 58.04,-7.69 72.44,-23.05 14.49,-15.47 21.74,-44.53 21.74,-87.29l0 -61.58 198.16 0 0 338.72 0 0zm-1070.23 19.26c-113.97,0 -193.75,-24.74 -239.16,-74.39 -45.4,-49.65 -68.11,-121.92 -68.11,-216.89l0 -392.62c0,-95.85 22.97,-167.68 68.82,-215.65 45.76,-47.89 125.28,-71.83 238.45,-71.83 115.56,0 195.95,23.94 240.92,71.83 44.97,47.97 67.5,119.8 67.5,215.65l0 392.62c0,47.88 -4.95,89.84 -14.84,125.8 -9.89,35.87 -26.86,66.26 -50.8,91.09 -23.94,24.82 -55.57,43.38 -94.79,55.84 -39.22,12.36 -88.53,18.55 -147.98,18.55zm-96.65 -648.02l0 323.44c0,53.01 8.04,91.08 24.12,114.14 16.17,23.15 40.29,34.63 72.53,34.63 32.16,0 56.54,-11.3 73.06,-33.92 16.52,-22.71 24.74,-60.96 24.74,-114.85l0 -323.44c0,-53 -8.22,-90.82 -24.74,-113.53 -16.53,-22.71 -40.9,-34.01 -73.06,-34.01 -32.25,0 -56.37,11.31 -72.53,34.01 -16.08,22.71 -24.12,60.52 -24.12,113.53zm-572.31 -305.41l257.62 0 0 137.38c-10.69,0 -19.97,3.18 -27.83,9.63 -7.86,6.36 -17.94,18.11 -30.38,35.25l-154.78 211.77c57.78,11.04 101.15,31.36 130.05,60.96 28.88,29.51 43.37,77.13 43.37,143.03l0 87.28c0,38.43 3.27,65.65 9.89,81.46 6.62,15.81 16.53,23.77 29.68,23.77l0 143.65 -234.12 0c-4.95,-12.81 -8.66,-28.01 -11.13,-45.5 -2.47,-17.58 -3.71,-46.46 -3.71,-86.57l0 -122.01c0,-47.89 -8.22,-83.58 -24.74,-107.08 -16.52,-23.59 -45.41,-35.34 -86.76,-35.34l-61.93 0 0 145.07c0,42.76 3.89,70.32 11.76,82.69 7.86,12.46 19.61,20.77 35.34,25.09l0 143.65 -304.8 0 0 -143.65c16.52,-4.32 28.27,-12.9 35.34,-25.71 6.98,-12.81 10.51,-40.19 10.51,-82.07l0 -437.58c0,-41.96 -3.53,-69.35 -10.51,-82.17 -7.07,-12.81 -18.82,-21.37 -35.34,-25.62l0 -137.38 304.8 0 0 137.38c-14.05,0 -25.44,6.63 -34.11,19.88 -8.66,13.25 -12.99,42.49 -12.99,87.91l0 150.1 126.34 -165.55c14.05,-18.82 23.94,-37.37 29.78,-55.75 5.74,-18.47 8.66,-37.46 8.66,-57.16l0 -116.79 0 0zm-859.7 953.43c-113.97,0 -193.65,-24.74 -239.15,-74.39 -45.41,-49.65 -68.12,-121.92 -68.12,-216.89l0 -392.62c0,-95.85 22.97,-167.68 68.82,-215.65 45.76,-47.89 125.28,-71.83 238.45,-71.83 115.56,0 195.95,23.94 240.92,71.83 44.97,47.97 67.5,119.8 67.5,215.65l0 392.62c0,47.88 -4.95,89.84 -14.84,125.8 -9.89,35.87 -26.86,66.26 -50.8,91.09 -23.94,24.82 -55.57,43.38 -94.79,55.84 -39.22,12.36 -88.52,18.55 -147.98,18.55zm-96.65 -648.02l0 323.44c0,53.01 8.03,91.08 24.11,114.14 16.17,23.15 40.29,34.63 72.53,34.63 32.16,0 56.54,-11.3 73.06,-33.92 16.52,-22.71 24.74,-60.96 24.74,-114.85l0 -323.44c0,-53 -8.22,-90.82 -24.74,-113.53 -16.52,-22.71 -40.9,-34.01 -73.06,-34.01 -32.25,0 -56.36,11.31 -72.53,34.01 -16.08,22.71 -24.11,60.52 -24.11,113.53zm-351.8 2.56l-190.83 0 0 -38.43c0,-46.2 -10.07,-76.42 -30.3,-90.47 -20.24,-14.13 -45.68,-21.2 -76.25,-21.2 -32.15,0 -56.36,11.31 -72.44,34.01 -16.08,22.71 -24.12,60.52 -24.12,113.53l0 323.44c0,53.01 8.04,91.08 24.12,114.14 16.08,23.15 40.29,34.63 72.44,34.63 32.25,0 58.04,-11.3 77.48,-33.92 19.35,-22.71 29.07,-60.96 29.07,-114.85l0 -34.72 190.83 0 0 287.48c-90.03,47.89 -189.15,71.82 -297.38,71.82 -58.57,0 -107.78,-6.18 -147.36,-18.55 -39.67,-12.46 -71.65,-30.83 -96.03,-55.21 -24.39,-24.38 -41.88,-54.77 -52.66,-91.09 -10.69,-36.39 -16.08,-78.53 -16.08,-126.42l0 -406.74c0,-91.53 23.77,-160 71.21,-205.32 47.53,-45.33 127.84,-68.03 240.92,-68.03 101.6,0 200.72,22.71 297.38,68.03l0 257.88 0 -0.01zm-781.69 -62.81l0 437.58c0,42.76 3.27,70.32 9.89,82.69 6.62,12.46 17.76,20.77 33.48,25.1l0 143.65 -303.56 0 0 -143.65c15.72,-4.33 27.65,-12.9 35.95,-25.71 8.22,-12.81 12.36,-40.19 12.36,-82.07l0 -437.58c0,-41.96 -4.15,-69.35 -12.36,-82.16 -8.3,-12.81 -20.24,-21.38 -35.95,-25.62l0 -137.38 303.56 0 0 137.38c-15.73,4.24 -26.86,12.81 -33.48,25.62 -6.62,12.8 -9.89,40.19 -9.89,82.16zm-686.27 280.94l0 241.27 33.39 0c48.77,0 84.46,-9.8 107.16,-29.51 22.71,-19.61 34.1,-50.44 34.1,-92.41 0,-36.75 -11.4,-65.82 -34.1,-87.2 -22.71,-21.38 -58.4,-32.16 -107.16,-32.16l-33.39 0 0 0zm-257.72 -388.72l0 -137.38 312.22 0 0 137.38c-15.73,0 -28.71,7.69 -39.05,23.06 -10.34,15.37 -15.46,43.64 -15.46,84.72l0 114.14 64.4 0c99.12,0 178.37,23.59 237.83,70.59 59.45,47.09 89.23,118.91 89.23,215.56 0,98.42 -29.78,171.13 -89.23,218.13 -59.46,47.09 -138.71,70.59 -237.83,70.59l-322.11 0 0 -143.65c16.52,-4.33 28.27,-12.9 35.34,-25.71 6.98,-12.81 10.51,-40.19 10.51,-82.07l0 -437.58c0,-41.96 -3.53,-69.35 -10.51,-82.16 -7.07,-12.81 -18.82,-21.38 -35.34,-25.62l-0.01 0zm-432.36 796.8l-364.16 0 0 -143.65c16.52,-4.33 28.27,-12.9 35.34,-25.71 6.98,-12.81 10.51,-40.19 10.51,-82.07l0 -437.58c0,-41.96 -3.53,-69.35 -10.51,-82.16 -7.06,-12.81 -18.82,-21.38 -35.34,-25.62l0 -137.38 351.8 0c109.02,0 187.47,19.97 235.35,59.72 47.97,39.76 71.92,103.72 71.92,191.8 0,49.65 -7.69,88.96 -22.97,118.11 -15.29,29.07 -44.8,53.01 -88.53,71.83 28.09,12.81 50.36,27.38 66.88,43.64 16.52,16.26 29.15,34.19 37.72,53.89 8.75,19.7 14.49,41.43 17.4,65.47 2.92,23.94 4.33,50.44 4.33,79.51 0,89.84 -23.15,153.98 -69.35,192.5 -46.3,38.52 -126.42,57.69 -240.39,57.69l0 0.01zm-106.46 -404.19l0 234.83 94.08 0c39.67,0 68.56,-9.36 86.76,-28.18 18.11,-18.9 27.21,-49.21 27.21,-91.17 0,-41.88 -9.72,-71.56 -29.07,-89.14 -19.44,-17.5 -49.39,-26.33 -89.85,-26.33l-89.14 0zm0 -361.86l0 203.99 82.96 0c38.78,0 66.88,-7.24 84.19,-21.73 17.4,-14.58 26.07,-39.41 26.07,-74.48 0,-39.31 -8.66,-67.14 -26.07,-83.4 -17.31,-16.26 -45.4,-24.38 -84.19,-24.38l-82.96 0z"/>
 </g>
</svg>
