<?xml version="1.0" encoding="UTF-8"?>
<!DOCTYPE svg PUBLIC "-//W3C//DTD SVG 1.1//EN" "http://www.w3.org/Graphics/SVG/1.1/DTD/svg11.dtd">
<!-- Creator: CorelDRAW 2020 (64-Bit) -->
<svg xmlns="http://www.w3.org/2000/svg" xml:space="preserve" width="650px" height="381px" version="1.1" style="shape-rendering:geometricPrecision; text-rendering:geometricPrecision; image-rendering:optimizeQuality; fill-rule:evenodd; clip-rule:evenodd"
viewBox="0 0 650 381.56"
 xmlns:xlink="http://www.w3.org/1999/xlink"
 xmlns:xodm="http://www.corel.com/coreldraw/odm/2003">
 <defs>
  <style type="text/css">
   <![CDATA[
    .str0 {stroke:#D763A1;stroke-width:0.9;stroke-miterlimit:22.9256}
    .fil3 {fill:none;fill-rule:nonzero}
    .fil0 {fill:#2B2A29}
    .fil1 {fill:#FFED00}
    .fil2 {fill:#2B2A29;fill-rule:nonzero}
   ]]>
  </style>
 </defs>
 <g id="Layer_x0020_1">
  <metadata id="CorelCorpID_0Corel-Layer"/>
  <polygon class="fil0" points="316.67,0.17 324.78,0 334.03,0.01 343.26,0.22 352.45,0.63 361.61,1.22 370.74,2 379.84,2.96 388.91,4.08 397.94,5.35 406.95,6.78 415.93,8.36 424.88,10.06 433.79,11.9 442.68,13.85 451.54,15.92 460.38,18.09 469.19,20.36 477.97,22.73 486.73,25.17 495.46,27.69 504.17,30.28 512.85,32.93 521.51,35.63 530.15,38.37 538.76,41.16 547.36,43.97 555.94,46.82 564.49,49.67 573.02,52.54 581.54,55.41 590.04,58.28 598.52,61.13 606.98,63.96 622.75,69.23 617.55,85.33 617.43,85.72 617.42,85.72 617.41,85.76 617.36,85.95 617.21,86.46 617.2,86.49 617.17,86.62 617.12,86.8 617.09,86.96 617.07,87.01 616.97,87.52 616.87,88.06 616.78,88.61 616.71,89.16 616.65,89.73 616.61,90.32 616.59,90.91 616.58,91.6 616.58,92.11 616.59,92.47 616.65,93.43 616.76,94.37 616.92,95.27 617.11,96.16 617.35,97.04 617.62,97.9 617.92,98.73 618.27,99.53 618.64,100.31 619.05,101.07 619.49,101.8 619.96,102.51 620.47,103.19 620.99,103.84 621.54,104.45 622.11,105.03 622.71,105.58 623.33,106.1 623.96,106.58 624.62,107.03 625.29,107.44 625.97,107.81 626.66,108.14 627.37,108.44 628.09,108.7 628.82,108.93 629.56,109.11 630.32,109.26 631.08,109.36 631.85,109.42 632.07,109.43 632.75,109.43 633.34,109.44 650,109.17 650,345.89 634.05,346.53 633.98,346.53 633.45,346.56 633.03,346.6 632.6,346.65 632.19,346.71 631.78,346.79 631.35,346.88 630.92,346.98 630.33,347.13 630.11,347.2 629.71,347.33 629.31,347.48 628.93,347.63 628.55,347.8 628.15,347.98 627.77,348.17 627.5,348.31 626.47,348.93 625.55,349.56 624.68,350.26 623.84,351.03 623.05,351.86 622.3,352.76 621.61,353.72 620.97,354.73 620.4,355.78 619.88,356.9 619.44,358.06 619.07,359.26 618.78,360.49 618.56,361.78 618.43,363.09 618.37,364.56 618.59,381.56 33.16,381.56 33.36,365.87 33.36,363.76 33.36,363.46 33.29,362.52 33.17,361.59 33.02,360.68 32.83,359.79 32.59,358.92 32.32,358.07 32.01,357.23 31.67,356.43 31.29,355.65 30.89,354.9 30.44,354.16 29.98,353.46 29.48,352.78 28.95,352.13 28.4,351.52 27.83,350.94 27.23,350.39 26.61,349.87 25.98,349.39 25.33,348.95 24.66,348.53 23.97,348.16 23.28,347.83 22.57,347.53 21.85,347.27 21.12,347.04 20.38,346.86 19.63,346.72 18.87,346.61 18.08,346.55 17.81,346.54 17.14,346.54 16.6,346.53 0,346.74 0,109.89 16.16,109.47 16.52,109.46 17,109.44 17.42,109.41 17.84,109.36 18.28,109.3 18.7,109.23 19.1,109.15 19.51,109.06 19.95,108.94 20.34,108.83 20.7,108.71 21.09,108.57 21.49,108.42 21.89,108.25 22.28,108.07 22.67,107.88 22.95,107.73 24.03,107.1 24.94,106.47 25.82,105.77 26.66,105 27.46,104.16 28.21,103.27 28.9,102.32 29.54,101.3 30.13,100.23 30.64,99.12 31.08,97.96 31.46,96.75 31.75,95.51 31.97,94.22 32.1,92.9 32.15,91.34 32.15,91.34 32.16,90.92 32.16,90.76 32.14,90.42 32.12,90.06 32.09,89.68 32.05,89.32 32.02,89.07 31.8,87.71 31.75,87.5 31.69,87.19 31.62,86.9 31.55,86.63 31.48,86.36 31.39,86.05 31.3,85.74 26.44,69.74 42.18,64.69 42.99,64.44 45.28,63.7 47.48,63 49.58,62.32 51.58,61.68 53.51,61.06 55.35,60.46 57.13,59.89 58.85,59.33 60.52,58.79 62.13,58.27 63.7,57.76 65.24,57.27 66.75,56.78 68.24,56.29 69.71,55.82 71.17,55.34 78.97,52.81 86.77,50.29 94.57,47.77 102.38,45.27 110.19,42.78 118.01,40.32 125.84,37.88 133.67,35.47 141.52,33.11 149.37,30.78 157.23,28.5 165.1,26.26 172.98,24.09 180.86,21.98 188.76,19.93 196.66,17.95 204.58,16.05 212.51,14.23 220.45,12.49 228.39,10.85 236.36,9.3 244.33,7.85 252.31,6.5 260.31,5.27 268.33,4.15 276.35,3.16 284.39,2.29 292.44,1.55 300.5,0.94 308.58,0.48 "/>
  <path class="fil1" d="M47.14 79.46c92.48,-29.61 184.64,-62.93 277.8,-63.93 92.64,-0.99 184.65,32.33 276.88,63.14 -1.18,3.6 -1.83,7.46 -1.83,11.5 0,19.22 14.64,34.81 32.69,34.81l0.74 -0.01 0 101.26 0 102.1c-17.55,0.6 -31.61,15.95 -31.61,34.79l0 0.21 -276.87 0 -275 0 0 -0.21c0,-19.22 -14.63,-34.81 -32.68,-34.81l-0.68 0.01 0 -102.09 0 -101.23c17.8,-0.3 32.15,-15.77 32.15,-34.8 0,-3.75 -0.56,-7.36 -1.59,-10.74z"/>
  <path class="fil2" d="M45.79 75.95l0.8 -0.26c12.56,-4.02 20.43,-6.58 28.23,-9.11 83.07,-26.96 165.98,-53.86 250.08,-54.76 86.98,-0.93 172.94,27.95 259.03,56.87l0 0.01c6.44,2.16 12.87,4.32 19.3,6.47l4.68 1.56 -1.59 4.92 -0.01 0.05 -0.02 0.02c-0.1,0.31 -0.23,0.75 -0.39,1.31l-0.01 -0.01c-0.11,0.42 -0.22,0.86 -0.33,1.32 -0.52,2.26 -0.8,4.66 -0.8,7.17l0 0.01 -0.02 0c0,8.2 3.13,15.64 8.18,21.02 5.06,5.38 12.03,8.72 19.72,8.73l0.02 0 0 -0.02 0.02 0 0 0.02 0.68 -0.02 4.82 -0.07 0 5.13 0 101.26 0 102.1 0 4.87 -4.59 0.18 -0.24 0.01 0 0c-2.06,0.09 -4.09,0.43 -6.06,0.99l-0.02 0c-1.94,0.55 -3.81,1.32 -5.56,2.28 -8.99,4.94 -15.14,14.92 -15.16,26.42l0.01 0.19 0.06 5.13 -4.81 0 -276.87 0 -275 0 -4.81 0 0.07 -5.13 0 -0.15 -0.02 0 0 -0.01 0.02 0 0 -0.04c-0.01,-8.19 -3.14,-15.61 -8.18,-20.98 -5.06,-5.38 -12.03,-8.72 -19.72,-8.73l-0.02 0 0 0.02 -0.02 0 0 -0.02 -0.62 0.01 -4.82 0.06 0 -5.11 0 -102.09 0 -101.23 0 -4.93 4.65 -0.12 0.48 -0.02c2.1,-0.06 4.16,-0.39 6.13,-0.93 1.94,-0.54 3.83,-1.31 5.64,-2.29 9.05,-4.92 15.25,-14.95 15.25,-26.51l0 -0.06 0.02 0c0,-1.55 -0.12,-3.1 -0.35,-4.62l-0.01 0 -0.14 -0.87 0.01 0c-0.23,-1.25 -0.52,-2.47 -0.88,-3.64l-1.49 -4.91 4.66 -1.49zm31.79 0.3c-9.17,2.97 -18.29,5.93 -24.72,8l0.01 0.03 0.14 0.87 0 0.06c0.3,2.03 0.47,4.12 0.47,6.27l0.02 0 0 0.06c0,15.51 -8.32,28.95 -20.47,35.54 -2.35,1.28 -4.88,2.3 -7.56,3.05 -1.35,0.37 -2.72,0.66 -4.13,0.87l0 96.57 0 97.26c8.71,1 16.51,5.19 22.38,11.43 5.76,6.14 9.66,14.27 10.7,23.34l270.52 0 272.4 0c1.52,-13.36 9.25,-24.68 20.02,-30.59 2.35,-1.3 4.86,-2.34 7.47,-3.08l0 0c1.24,-0.36 2.52,-0.65 3.83,-0.86l0 -97.5 0 -96.43c-8.73,-0.99 -16.56,-5.17 -22.44,-11.43 -6.77,-7.21 -10.97,-17.18 -10.97,-28.19l-0.02 0 0 -0.01c0,-2.77 0.27,-5.49 0.79,-8.14l-14.93 -5.01 -0.02 0c-85.43,-28.69 -170.72,-57.35 -256.09,-56.44 -82.71,0.88 -164.98,27.58 -247.4,54.33z"/>
  <path class="fil2" d="M218.49 193.89c12.05,-2.33 24.17,-3.81 36.27,-5.11 0,10.48 0,20.95 0,31.41 -3.6,0.27 -7.2,0.54 -10.77,0.87 0,8.9 0,17.81 0,26.7 0,8.88 0,17.77 0,26.66 3.57,-0.16 7.17,-0.29 10.77,-0.41 0,7.9 0,15.83 0,23.71 0,7.91 0,15.82 0,23.7 -4.86,0 -9.68,0 -14.51,0 0,-3.16 0,-6.34 0,-9.51 0,-4.09 -2.8,-6.1 -8.35,-6 -11,0.2 -22,0.48 -33,0.81 -5.88,0.18 -8.79,2.19 -8.79,5.95 0,2.93 0,5.85 0,8.75 -4.79,0 -9.54,0 -14.3,0 0,-6.89 0,-13.79 0,-20.68 0,-6.9 0,-13.82 0,-20.73 3.67,-0.46 7.33,-0.91 11,-1.33 0,-8.86 0,-17.74 0,-26.6 0,-8.88 0,-17.75 0,-26.62 0,-8.17 2.42,-14.85 7.37,-20.05 4.9,-5.16 12.97,-9.33 24.31,-11.52zm10.33 28.79c-3.53,0.44 -7.07,0.9 -10.56,1.43 -6.02,0.91 -10.32,2.6 -12.85,4.88 -2.59,2.32 -3.87,5.73 -3.87,10.21 0,6.33 0,12.67 0,19 0,6.32 0,12.68 0,18.99 9.08,-0.76 18.17,-1.44 27.28,-2.02 0,-8.75 0,-17.49 0,-26.23 0,-8.74 0,-17.51 0,-26.26zm95.66 22.72c5.26,1.78 8.78,3.81 10.54,6.02 1.78,2.25 2.64,5.3 2.64,9.18 0,7.44 0,14.89 0,22.34 0,6.56 -2.68,11.9 -8.02,16.06 -5.36,4.16 -12.43,6.26 -21.21,6.27 -13.71,0.03 -27.42,0.1 -41.12,0.18 0,-10.6 0,-21.2 0,-31.82 3.63,-0.07 7.3,-0.15 10.96,-0.22 0,-9.06 0,-18.16 0,-27.23 0,-9.06 0,-18.17 0,-27.25 -3.66,0.15 -7.33,0.31 -10.96,0.47 0,-10.54 0,-21.09 0,-31.65 12.15,-0.68 24.31,-1.17 36.5,-1.4 6.14,-0.12 11.33,0.69 15.49,2.27 4.19,1.59 7.4,3.93 9.68,6.99 2.28,3.07 3.4,6.68 3.4,10.79 0,9.23 0,18.46 0,27.68 0,4.22 -2.64,7.98 -7.9,11.32zm-31.44 6.36c0,7.17 0,14.31 0,21.46 6.44,-0.05 12.88,-0.1 19.35,-0.12 4.1,-0.01 6.94,-0.6 8.56,-1.78 1.62,-1.17 2.41,-3.2 2.41,-6.09 0,-2.05 0,-4.1 0,-6.16 0,-2.23 -1.03,-4.03 -3.07,-5.41 -2.05,-1.37 -4.69,-2.08 -7.9,-2.06 -6.47,0.04 -12.91,0.08 -19.35,0.16zm0 -33.24c0,7.64 0,15.29 0,22.94 4.59,-0.07 9.21,-0.12 13.84,-0.16 3.96,-0.04 6.74,-0.74 8.35,-2.13 1.62,-1.4 2.42,-3.59 2.42,-6.59 0,-2.6 0,-5.22 0,-7.84 0,-4.33 -3.14,-6.49 -9.45,-6.44 -5.05,0.05 -10.11,0.13 -15.16,0.22zm122.91 -4.06c0,11.73 0,23.47 0,35.2 0,11.74 0,23.48 0,35.21 0,6.99 -2.75,12.29 -8.23,15.95 -5.52,3.69 -13.18,5.49 -22.99,5.39 -9.38,-0.1 -16.81,-2.15 -22.33,-6.23 -5.48,-4.07 -8.26,-9.68 -8.26,-16.77 0,-12.27 0,-24.54 0,-36.81 0,-12.27 0,-24.53 0,-36.8 0,-7.43 2.73,-13.11 8.16,-16.94 5.4,-3.8 12.89,-5.39 22.43,-4.49 9.98,0.94 17.67,3.95 23.09,8.62 5.41,4.66 8.13,10.56 8.13,17.67zm-24.84 60.54c6.9,0.27 10.33,-2.44 10.33,-8.14 0,-6.12 0,-12.28 0,-18.41 0,-6.12 0,-12.27 0,-18.41 0,-3.12 -0.75,-5.39 -2.31,-6.82 -1.55,-1.43 -4.23,-2.33 -8.02,-2.63 -4.03,-0.33 -8.06,-0.61 -12.09,-0.86 -6.61,-0.41 -9.91,2.35 -9.91,8.18 0,6.29 0,12.58 0,18.85 0,6.26 0,12.57 0,18.82 0,5.84 3.3,8.84 9.91,9.03 4.03,0.11 8.06,0.25 12.09,0.39zm62.89 -17.2c0,6.71 0,13.41 0,20.12 4.09,0.34 8.19,0.66 12.32,1.03 0,9.43 0,18.86 0,28.28 -12.69,-0.36 -25.37,-0.68 -38.06,-0.97 0,-10.06 0,-20.11 0,-30.19 3.67,0.22 7.34,0.48 11.01,0.74 0,-8.43 0,-16.89 0,-25.32 0,-8.43 0,-16.88 0,-25.33 -3.67,-0.54 -7.34,-1.08 -11.01,-1.57 0,-10 0,-20.01 0,-30.04 13.48,2.54 26.98,5.35 40.47,8.67 7.94,1.96 14.15,5.13 18.69,9.07 4.54,3.94 6.84,8.24 6.84,12.99 0,7.82 0,15.64 0,23.46 0,5.4 -1.78,8.88 -5.28,10.49 -3.54,1.63 -10.14,1.77 -19.79,0.47 -5.08,-0.68 -10.14,-1.28 -15.19,-1.9zm0 -10.8c4.89,0.68 9.81,1.39 14.73,2.14 3.96,0.61 6.64,0.63 8.02,0.06 1.39,-0.58 2.09,-1.92 2.09,-4 0,-2.14 0,-4.27 0,-6.43 0,-2.07 -0.7,-3.68 -2.09,-4.76 -1.38,-1.09 -4.06,-2.04 -8.02,-2.8 -4.92,-0.94 -9.84,-1.82 -14.73,-2.67 0,6.15 0,12.31 0,18.46z"/>
  <path class="fil2" d="M531.7 104.58c0,9.6 2.12,18.22 6.4,25.75 4.27,7.51 9.01,12.02 14.18,13.62 0,6.79 0,13.56 0,20.36 -3.2,-0.89 -6.36,-1.75 -9.52,-2.61 0,9.4 0,18.81 0,28.19 0,9.37 0,18.78 0,28.16 8.01,-15.09 16.06,-29.64 24.11,-43.67 0,-2.02 0,-4.04 0,-6.06 -3.11,-0.84 -6.22,-1.72 -9.33,-2.56 0,-6.7 0,-13.42 0,-20.14 5.58,1.72 10.45,0.32 14.73,-3.99 4.27,-4.3 6.45,-10.73 6.45,-19.5 3.66,1.38 7.36,2.79 11.07,4.16 0,8.08 0,16.15 0,24.2 0,8.06 0,16.11 0,24.16 -3.2,-0.89 -6.36,-1.75 -9.52,-2.64 0,14.11 0,28.19 0,42.25 0,14.08 0,28.14 0,42.22 3.16,0.32 6.32,0.64 9.52,0.99 0,8.1 0,16.22 0,24.3 0,8.1 0,16.2 0,24.27 -10.75,-0.02 -21.5,-0.05 -32.25,-0.1 0,-8.62 0,-17.26 0,-25.87 0,-8.64 0,-17.31 0,-25.95 3.11,0.32 6.22,0.64 9.33,0.96 0,-9.16 0,-18.37 0,-27.55 0,-9.16 0,-18.37 0,-27.58 -8.05,14.21 -16.1,28.89 -24.11,44.07 0,2.88 0,5.72 0,8.57 3.16,0.32 6.32,0.64 9.52,0.99 0,8.71 0,17.48 0,26.19 0,8.71 0,17.46 0,26.17 -10.75,-0.02 -21.5,-0.07 -32.2,-0.1 0,-9.23 0,-18.49 0,-27.74 0,-9.23 0,-18.52 0,-27.77 3.2,0.29 6.45,0.61 9.69,0.96 0,-15.51 0,-31.03 0,-46.54 0,-15.48 0,-31.01 0,-46.52 -3.24,-0.89 -6.49,-1.75 -9.69,-2.57 0,-9.2 0,-18.41 0,-27.62 0,-9.21 0,-18.41 0,-27.64 3.84,1.37 7.73,2.78 11.62,4.18z"/>
  <path class="fil2" d="M458.27 128.85c0,4.14 0,8.28 0,12.41 0,4.51 2.01,7.09 6.01,7.76 3.34,0.56 6.69,1.15 10.03,1.77 2.89,0.53 4.39,-1.03 4.39,-4.75 0,-2.68 0,-5.37 0,-8.05 0,-3.42 -1.72,-5.51 -5.12,-6.18 -5.11,-1.02 -10.24,-2 -15.31,-2.96zm-8.52 -28.63c-1.84,-0.34 -3.62,-0.69 -5.4,-1.06 0,-6.72 0,-13.44 0,-20.16 6.29,1.36 12.58,2.83 18.88,4.33 0,6.6 0,13.2 0,19.8 -1.67,-0.37 -3.35,-0.74 -4.96,-1.09 0,6.21 0,12.41 0,18.57 5.07,1.01 10.2,2.01 15.31,3.1 9.03,1.92 13.48,7.11 13.48,15.48 0,5.57 0,11.13 0,16.67 0,4.66 -1.33,8.41 -4.01,11.23 -2.72,2.86 -6.29,3.92 -10.8,3.22 -6.01,-0.92 -10.64,-4.82 -13.98,-11.81 0,3.03 0,6.08 0,9.1 -4.68,-0.68 -9.3,-1.33 -13.92,-1.94 0,-6.72 0,-13.47 0,-20.19 1.78,0.3 3.56,0.57 5.4,0.84 0,-15.34 0,-30.7 0,-46.09zm47.67 11.01c-1.9,-0.5 -3.74,-0.96 -5.57,-1.41 0,-6.37 0,-12.75 0,-19.13 6.35,1.73 12.69,3.47 19.04,5.32 0,6.21 0,12.44 0,18.66 -1.78,-0.49 -3.51,-0.93 -5.23,-1.4 0,14.4 0,28.8 0,43.18 1.72,0.37 3.45,0.72 5.23,1.09 0,6.22 0,12.45 0,18.66 -6.35,-1.14 -12.69,-2.22 -19.04,-3.28 0,-6.4 0,-12.78 0,-19.15 1.83,0.34 3.67,0.71 5.57,1.08 0,-14.52 0,-29.07 0,-43.62zm-96.56 8.32c0,6.72 0,13.42 0,20.11 1.78,0.22 3.56,0.42 5.4,0.64 0,6.94 0,13.89 0,20.83 -6.45,-0.69 -12.91,-1.23 -19.32,-1.75 0,-7.01 0,-14.05 0,-21.07 1.78,0.17 3.57,0.34 5.4,0.51 0,-16.05 0,-32.12 0,-48.2 -1.83,-0.22 -3.62,-0.44 -5.4,-0.66 0,-7.02 0,-14.06 0,-21.08 6.41,0.86 12.87,1.73 19.32,2.81 0,6.94 0,13.88 0,20.83 -1.84,-0.3 -3.62,-0.54 -5.4,-0.82 0,6.55 0,13.1 0,19.65 6.8,0.91 13.59,1.87 20.38,2.88 0,-6.45 0,-12.9 0,-19.37 -1.78,-0.3 -3.56,-0.62 -5.34,-0.92 0,-6.89 0,-13.78 0,-20.68 6.29,1.21 12.58,2.42 18.87,3.65 0,6.79 0,13.56 0,20.36 -1.72,-0.3 -3.45,-0.62 -5.12,-0.92 0,15.66 0,31.32 0,46.95 1.67,0.23 3.4,0.45 5.12,0.7 0,6.79 0,13.59 0,20.35 -6.29,-0.76 -12.58,-1.52 -18.87,-2.26 0,-6.89 0,-13.78 0,-20.68 1.78,0.25 3.56,0.47 5.34,0.71 0,-6.59 0,-13.19 0,-19.84 -6.79,-0.96 -13.58,-1.84 -20.38,-2.73zm-85.58 -54.36c0,3.13 0,6.23 0,9.33 3.28,-6.85 7.79,-10.45 13.47,-10.44 6.24,0.01 10.86,3.62 13.98,10.46 4.01,-6.69 8.8,-9.76 14.37,-9.4 4.73,0.3 8.28,2.35 10.8,6.18 2.49,3.8 3.73,8.27 3.73,13.39 0,17.48 0,34.94 0,52.37 1.84,0.12 3.68,0.27 5.57,0.42 0,7.04 0,14.1 0,21.14 -6.41,-0.39 -12.81,-0.81 -19.21,-1.03 0,-7.12 0,-14.23 0,-21.32 1.78,0.05 3.56,0.15 5.4,0.22 0,-13.81 0,-27.65 0,-41.48 0,-4.7 -2.01,-7.2 -5.96,-7.41 -2.78,-0.16 -5.51,-0.34 -8.24,-0.5 -2.01,-0.11 -3.46,0.4 -4.4,1.48 -0.89,1.03 -1.34,2.83 -1.34,5.42 0,13.91 0,27.79 0,41.7 1.79,0.03 3.57,0.05 5.4,0.15 0,7.11 0,14.26 0,21.37 -6.23,-0.15 -12.47,-0.22 -18.7,-0.32 0,-7.14 0,-14.28 0,-21.42 1.67,0.05 3.34,0.05 5.06,0.1 0,-13.91 0,-27.82 0,-41.73 0,-4.73 -2,-7.21 -6.01,-7.24 -3.01,-0.02 -6.01,0.13 -8.97,0.17 -3.28,0.06 -4.95,2.47 -4.95,7.19 0,13.91 0,27.82 0,41.71 1.78,-0.05 3.56,-0.05 5.4,-0.1 0,7.14 0,14.28 0,21.42 -6.46,0.07 -12.92,0.27 -19.32,0.49 0,-7.11 0,-14.23 0,-21.34 1.78,-0.05 3.56,-0.12 5.4,-0.23 0,-16.32 0,-32.67 0,-49.01 -1.84,0.1 -3.62,0.19 -5.4,0.27 0,-7.09 0,-14.21 0,-21.32 4.62,-0.27 9.24,-0.54 13.92,-0.69zm-36.42 52.27c-5.18,0.44 -10.3,0.98 -15.42,1.5 -3.62,0.36 -5.4,2.41 -5.4,6.1 0,2.88 0,5.76 0,8.64 0,4.02 1.56,5.84 4.79,5.54 3.22,-0.29 6.46,-0.58 9.74,-0.88 4.18,-0.39 6.29,-2.91 6.29,-7.71 0,-4.41 0,-8.79 0,-13.19zm-28.95 -11.18c0,-5.22 0,-10.44 0,-15.66 0,-13.15 6.23,-20.72 18.59,-22.38 6.02,-0.8 10.6,0.31 13.81,3.32 3.19,2.99 4.79,7.61 4.79,13.79 0,17.21 0,34.42 0,51.63 1.84,-0.15 3.68,-0.27 5.57,-0.39 0,7.08 0,14.18 0,21.29 -4.62,0.27 -9.24,0.54 -13.81,0.81 0,-3.25 0,-6.47 0,-9.72 -3.62,7.16 -8.35,10.96 -14.25,11.42 -4.4,0.35 -7.92,-1.15 -10.64,-4.55 -2.68,-3.37 -4.06,-7.47 -4.06,-12.26 0,-6.01 0,-12.02 0,-18.02 0,-9.09 4.5,-14.26 13.53,-15.29 5.12,-0.59 10.24,-1.09 15.42,-1.58 0,-4.41 0,-8.81 0,-13.25 0,-4.75 -1.73,-7.02 -5.23,-6.59 -3.4,0.41 -6.8,0.79 -10.19,1.18 -3.62,0.42 -5.4,3.05 -5.4,7.76 0,2.48 0,4.97 0,7.4 -2.73,0.37 -5.46,0.74 -8.13,1.09zm-24.73 9.25c0,-6.35 0,-12.72 0,-19.07 -1.89,0.34 -3.78,0.71 -5.68,1.05 0,-6.77 0,-13.56 0,-20.33 6.35,-1.28 12.76,-2.44 19.16,-3.65 0,6.9 0,13.79 0,20.66 -1.78,0.32 -3.51,0.62 -5.23,0.88 0,15.76 0,31.49 0,47.23 1.72,-0.23 3.45,-0.45 5.23,-0.69 0,6.89 0,13.78 0,20.65 -6.4,0.74 -12.81,1.48 -19.16,2.27 0,-6.77 0,-13.57 0,-20.34 1.9,-0.27 3.79,-0.54 5.68,-0.84 0,-6.44 0,-12.89 0,-19.37 -5.23,0.86 -10.42,1.69 -15.59,2.58 -8.97,1.57 -13.47,-1.87 -13.47,-10.44 0,-4.65 0,-9.28 0,-13.93 -1.95,0.42 -3.9,0.84 -5.85,1.26 0,-6.6 0,-13.17 0,-19.77 6.68,-1.55 13.36,-3.08 20.1,-4.56 0,6.72 0,13.45 0,20.17 -1.89,0.34 -3.73,0.71 -5.56,1.11 0,4.57 0,9.15 0,13.73 0,3.33 1.61,4.65 4.78,4.09 5.18,-0.92 10.36,-1.8 15.59,-2.69zm-51.56 9.9c0,-4.21 0,-8.44 0,-12.68 0,-3.69 -1.84,-5.15 -5.57,-4.23 -3.17,0.78 -6.29,1.55 -9.41,2.31 -3.39,0.84 -5.12,3.06 -5.12,6.67 0,4.14 0,8.28 0,12.39 6.68,-1.5 13.36,-2.98 20.1,-4.46zm0 12.56c2.73,-0.52 5.46,-1.06 8.24,-1.6 0,5.32 0,10.63 0,15.93 0,5.68 -1.6,10.42 -4.84,14.1 -3.27,3.71 -7.69,5.97 -13.31,6.9 -5.68,0.94 -10.14,0.16 -13.42,-2.34 -3.24,-2.48 -4.84,-6.45 -4.84,-11.89 0,-15.83 0,-31.64 0,-47.49 0,-4.98 1.72,-9.46 5.23,-13.45 3.51,-4.08 7.97,-6.8 13.36,-8.24 5.41,-1.44 9.7,-1 12.98,1.37 3.23,2.36 4.84,6.28 4.84,11.67 0,9.51 0,18.99 0,28.44 -9.46,1.9 -18.93,3.91 -28.34,5.91 0,4.21 0,8.44 0,12.65 0,2 0.5,3.33 1.5,3.99 1.01,0.66 2.56,0.8 4.68,0.39 3.12,-0.59 6.24,-1.16 9.41,-1.77 3.01,-0.57 4.51,-2.73 4.51,-6.55 0,-2.68 0,-5.34 0,-8.02z"/>
  <path class="fil2" d="M110.74 160.86c-8.31,2.19 -16.62,4.43 -24.88,6.67 0,14.7 0,29.42 0,44.12 0,14.67 0,29.39 0,44.07 3.25,-0.32 6.54,-0.67 9.84,-0.99 0,8.79 0,17.61 0,26.37 0,8.77 0,17.58 0,26.34 -11.1,0 -22.19,0 -33.24,0 0,-8.2 0,-16.44 0,-24.67 0,-8.22 0,-16.46 0,-24.69 3.3,-0.34 6.64,-0.66 9.98,-1.01 0,-14.3 0,-28.63 0,-42.93 0,-14.31 0,-28.64 0,-42.96 -3.34,0.91 -6.68,1.79 -9.98,2.7 0,-8.17 0,-16.37 0,-24.54 0,-8.18 0,-16.4 0,-24.6 23.95,-8.91 47.91,-17.7 71.91,-26.22 0,9.38 0,18.76 0,28.12 0,9.35 0,18.73 0,28.09 -3.3,0.84 -6.6,1.67 -9.84,2.51 0,15.78 0,31.59 0,47.37 0,15.75 0,31.53 0,47.32 3.24,-0.32 6.54,-0.62 9.84,-0.94 0,9.4 0,18.86 0,28.24 0,9.41 0,18.83 0,28.21 -11.1,0 -22.19,0 -33.29,0 0,-8.84 0,-17.75 0,-26.61 0,-8.84 0,-17.75 0,-26.61 3.2,-0.32 6.41,-0.64 9.66,-0.96 0,-15.39 0,-30.8 0,-46.19 0,-15.39 0,-30.8 0,-46.21z"/>
  <path class="fil0" d="M302.99 337.65c0,0 7.79,7.24 20.3,7.24 12.81,0 20.3,-7.24 20.3,-7.24 0,0 17.52,-1.64 27.55,6.66 0.46,-0.98 1,-2.05 1.85,-2.87 2.78,-3.37 6.95,-3.95 11.19,-4.2 0.08,0.91 0.7,4.03 5.1,4.03 4.55,-0.66 4.55,-3.29 4.71,-4.19 2.93,-0.16 6.25,-0.08 8.25,2.79 49.02,-3.86 168.5,-2.54 183.78,-2.87l0 -0.49c-15.28,-0.42 -134.76,0.9 -183.78,-2.97 -2,2.97 -5.32,3.05 -8.25,2.8 -0.16,-0.9 -0.16,-3.54 -4.71,-4.19 -4.4,0 -5.02,3.2 -5.1,4.03 -4.24,-0.25 -8.41,-0.83 -11.19,-4.2 -0.85,-0.82 -1.39,-1.89 -1.85,-2.79 -8.03,6.25 -17.75,6.9 -27.55,6.74 0,0 -7.49,-7.24 -20.3,-7.24 -12.51,0 -20.3,7.24 -20.3,7.24 -9.81,0.16 -19.61,-0.49 -27.56,-6.74 -0.46,0.9 -1,1.97 -1.93,2.79 -2.7,3.37 -6.94,3.95 -11.11,4.2 -0.08,-0.83 -0.7,-4.03 -5.17,-4.03 -4.48,0.65 -4.56,3.29 -4.71,4.19 -2.93,0.25 -6.25,0.17 -8.18,-2.8 -49.02,3.87 -168.57,2.55 -183.86,2.97l0 0.49c15.29,0.33 134.84,-0.99 183.86,2.87 1.93,-2.87 5.25,-2.95 8.18,-2.79 0.15,0.9 0.23,3.53 4.71,4.19 4.47,0 5.09,-3.12 5.17,-4.03 4.17,0.25 8.41,0.83 11.11,4.2 0.93,0.82 1.47,1.89 1.93,2.87 9.42,-8.05 27.56,-6.66 27.56,-6.66z"/>
  <path class="fil0" d="M535.75 105.71l38.52 14.58c-0.5,16.1 -6.52,23.73 -17.9,19.72 -15.82,-5.59 -20.62,-25.73 -20.62,-34.3z"/>
  <path class="fil3 str0" d="M45.79 75.95l0.8 -0.26c12.56,-4.02 20.43,-6.58 28.23,-9.11 83.07,-26.96 165.98,-53.86 250.08,-54.76 96.04,-1.02 187.92,33.17 278.33,63.35l4.68 1.56 -1.59 4.92 -0.01 0.05 -0.02 0.02c-0.1,0.31 -0.23,0.75 -0.39,1.31l-0.01 -0.01c-0.11,0.42 -0.22,0.86 -0.33,1.32 -0.52,2.26 -0.8,4.66 -0.8,7.17l0 0.01 -0.02 0c0,8.2 3.13,15.64 8.18,21.02 5.06,5.38 12.03,8.72 19.72,8.73l0.02 0 0 -0.02 0.02 0 0 0.02 0.68 -0.02 4.82 -0.07 0 5.13 0 101.26 0 102.1 0 4.87 -4.59 0.18 -0.24 0.01 0 0c-2.06,0.09 -4.09,0.43 -6.06,0.99l-0.02 0c-1.94,0.55 -3.81,1.32 -5.56,2.28 -8.99,4.94 -15.14,14.92 -15.16,26.42l0.01 0.19 0.06 5.13 -4.81 0 -276.87 0 -275 0 -4.81 0 0.07 -5.13 0 -0.15 -0.02 0 0 -0.01 0.02 0 0 -0.04c-0.01,-8.19 -3.14,-15.61 -8.18,-20.98 -5.06,-5.38 -12.03,-8.72 -19.72,-8.73l-0.02 0 0 0.02 -0.02 0 0 -0.02 -0.62 0.01 -4.82 0.06 0 -5.11 0 -102.09 0 -101.23 0 -4.93 4.65 -0.12 0.48 -0.02c2.1,-0.06 4.16,-0.39 6.13,-0.93 1.94,-0.54 3.83,-1.31 5.64,-2.29 9.05,-4.92 15.25,-14.95 15.25,-26.51l0 -0.06 0.02 0c0,-1.55 -0.12,-3.1 -0.35,-4.62l-0.01 0 -0.14 -0.87 0.01 0c-0.23,-1.25 -0.52,-2.47 -0.88,-3.64l-1.49 -4.91 4.66 -1.49z"/>
 </g>
</svg>
