<svg xmlns="http://www.w3.org/2000/svg" viewBox="0 0 214.33 112.85"><defs><style>.cls-1{fill:#fff;}.cls-2{fill:#1d1d1b;}</style></defs><title>Asset 1</title><g id="Layer_2" data-name="Layer 2"><g id="Layer_1-2" data-name="Layer 1"><path class="cls-1" d="M213.67,61.58a123.36,123.36,0,0,0-5.31-24.1c-.54-1.77-.75-3.88-2-5.31A5.24,5.24,0,0,0,205,31c-1.63-1.15-3.5-1.31-5.48-1.58-3.31-.44-6.62-1.06-9.91-1.68-4.26-.79-8.45-1.88-12.68-2.8-2.44-.53-5.3-1.19-7.8-.76a2.58,2.58,0,0,0-1.73.91c-2.51-1.42-5-2.82-7.44-4.44-6.29-4.21-12.11-9.08-19-12.22-6.53-3-13.73-4.28-20.61-6.18-3.63-1-7.24-2.11-11-2.27a45.09,45.09,0,0,0-8.75.84c-3.81-.07-7.63.22-11.41.5A115.09,115.09,0,0,1,68.77.77C62.33.12,56.13-.45,49.7.66c-5.37.93-10.57,2.43-16.05,2.62-8.87.32-30.82-2-33,10.29a7.07,7.07,0,0,0,1,7.52c2.14,2.39,6.14,2.73,9.12,2.89a61.84,61.84,0,0,0,11.45-.89,13.59,13.59,0,0,0,3-.36c1-.11,2-.2,3-.23,2.57-.09,4.88,1.36,7.29.35,6.12.71,12.2-.48,18.4-.31a60.5,60.5,0,0,1,7.53.86c-.49.13-1,.27-1.46.43-4.15,1.35-7.79,3.74-9.47,8.09C48,38.24,53.44,45.27,59.07,48c-3.66,3.13-4.47,9.65-2.79,13.83a9.86,9.86,0,0,0,5.25,5l.16.06c.29.18.58.35.82.53.75.54,2.25,1.57,2.68,2.66a2.21,2.21,0,0,1-.06.34c-.24,1.05-1.09,1.78-1.45,2.78-.14.41-.28.83-.41,1.25s-.28.67-.41,1c-1.08,3.06.14,5.67,2,8s5.85,3.5,8.84,3.86a62.07,62.07,0,0,0,13.76-.07,1,1,0,0,0,.72-.38.57.57,0,0,0,.18,0c3.25.21,6.45,0,9.67.53s6.41,1.79,9.64,2.55a76.76,76.76,0,0,0,18.15,2.18,89,89,0,0,0,18.24-2.36c3.47-.8,7-1.82,10.51-2.6a32.8,32.8,0,0,1,.16,3.62,9.53,9.53,0,0,0,1.92,4.72c2.64,3.68,7.34,4.11,11.38,5.07,3.18.75,5.91,2.26,8.91,3.47a47,47,0,0,0,9.57,2.45,66.52,66.52,0,0,1,9.57,2.25,38,38,0,0,0,3.66,1.06c.57.26,1.14.52,1.72.76a18.65,18.65,0,0,0,2.07.64,14.61,14.61,0,0,1,1.53.87,3.32,3.32,0,0,0,1.48.52.69.69,0,0,0,.68.06.71.71,0,0,0,.79-.51C213.92,96,215.36,78.72,213.67,61.58Z"/><path class="cls-2" d="M120.61,22.72c-3.11,0-6,.55-9.18.1-1.16-.16-4.62-.52-5.33-1.46a.4.4,0,0,0-.44-.17c-1.22.38-1.23-1.19-1.47-1.83a.07.07,0,0,0-.13,0c.19,1,0,1.93,1,2.46.58.33,1,1.1,1.62,1.32,1.8.6,3.83.41,5.71.58a22.26,22.26,0,0,0,8.29-.64A.2.2,0,0,0,120.61,22.72ZM107.86,5.43a5.91,5.91,0,0,0-3.55-.13.49.49,0,0,0-.55-.07c-.05,0-1.75,1-1.14,1.27a1.26,1.26,0,0,0,1-.21.58.58,0,0,0,.35.06,17.52,17.52,0,0,0,3.88-.53A.2.2,0,0,0,107.86,5.43ZM97.28,8.82c.08-.46-.33-.84-.75-1.08a0,0,0,0,1,0,0,.36.36,0,0,0-.13-.49c-.65-.49-.9-1.36-1.55-1.85h0l0,0-.08,0a.17.17,0,0,0-.16.26c.39.64.79,1.29,1.2,1.92l-.11.15a.42.42,0,0,0,.18.68C96,8.4,97.13,9.56,97.28,8.82Zm-19.1,23a6.78,6.78,0,0,0-3,.26,6.76,6.76,0,0,1-4.1-.1c-.06,0-.11.08,0,.11a8.23,8.23,0,0,0,7.23.14A.23.23,0,0,0,78.18,31.83ZM110.1,6.13a2.39,2.39,0,0,0,1,0,.2.2,0,0,0,.11-.28A.94.94,0,0,0,110,5.58.3.3,0,0,0,110.1,6.13Zm18.24,13.94c-.71.24-1.35.65-2.07.9a7.91,7.91,0,0,0-2,.94c-.06,0,0,.15,0,.12,1.29-.47,3.31-.6,4.19-1.76A.14.14,0,0,0,128.34,20.07Zm-27.79-.7a10.73,10.73,0,0,1-2.08,4,26.79,26.79,0,0,1-2.88,3.23c-1.28,1.07-3.26.88-4.73,1.53a55.65,55.65,0,0,1-7.17,2.89s0,.08,0,.07a54.17,54.17,0,0,0,7.3-2.6c1.76-.71,3.88-.43,5.5-1.49a12.71,12.71,0,0,0,3.43-3.31c1.06-1.51.86-2.6.69-4.35A0,0,0,0,0,100.55,19.37Zm-28-15.59a.07.07,0,0,0,0,.15,9.39,9.39,0,0,1,1.75.28.09.09,0,0,0,.07-.16A2.84,2.84,0,0,0,72.53,3.78Zm4.59,81.71-.1,0c-.5-.14-.5.73,0,.59l.1,0A.27.27,0,0,0,77.12,85.49ZM87.2,80.55a.47.47,0,0,0-.12-.07.27.27,0,0,0-.44-.09,1.59,1.59,0,0,0-.49.82,0,0,0,0,0,.06.05,1,1,0,0,0,.4-.2,1.05,1.05,0,0,1,.33.9,4.71,4.71,0,0,0-.06,1,0,0,0,0,0,.09,0,4.05,4.05,0,0,1,.44-1.49.78.78,0,0,0,0-.65A1.44,1.44,0,0,0,87.2,80.55ZM77,78.27a5.23,5.23,0,0,0-1.7-3.11,16.88,16.88,0,0,1-1.59-5,0,0,0,0,0-.08,0,6.24,6.24,0,0,0,.37,4h-.14a1,1,0,0,0-.54-.24.2.2,0,0,0-.17.3l0,0a.49.49,0,0,0,.07.55c.14.17.28.35.43.51a.29.29,0,0,0,.13.08.94.94,0,0,0,.3.33,2,2,0,0,0,1,.47h0l.1.07c.58.67,1,1.46,1.55,2.17A.16.16,0,0,0,77,78.27Zm24.92,5.85c-.62.24-1.33.87-2,.77-1.24-.17-2.32-.63-3.61-.72a37.31,37.31,0,0,1-4.08-.4c-1.48-.27-1.55-.53-1.46-1.92,0-.23-.32-.26-.38,0A12.08,12.08,0,0,0,90,83.58a.36.36,0,0,0,.23.41c1,.27,2,1.07,3.15,1.09,2,0,3.82-.47,5.87.06,1.16.3,2.94,1.28,3.07-.75A.29.29,0,0,0,101.92,84.12ZM90.56,79.38l.09-.08a.26.26,0,0,0,.34-.12c.54-1,1.81-1.1,2.72-1.67a.13.13,0,0,0-.07-.24,3.51,3.51,0,0,0-3,1.32.28.28,0,0,0-.21.19.91.91,0,0,1-.17.34C90.2,79.28,90.4,79.49,90.56,79.38ZM70.43,83a1.74,1.74,0,0,0-.48-.22.37.37,0,0,0-.35.61,2.22,2.22,0,0,0,.42.32C70.47,84,70.88,83.27,70.43,83Zm14.78-5a74.58,74.58,0,0,0-6,4.42s0,.1,0,.07c2-1.42,4.08-2.82,6.21-4.1,1.85-1.11,4.1-.91,5.71-2.52a.19.19,0,0,0-.19-.32c-1,.21-2,.46-2.95.7S86.12,77.45,85.21,78Zm36.35-40c0-.75.37-2,0-2.67-.46-.93-1.23-1.53-1.49-2.58a.48.48,0,0,0-.48-.36,1,1,0,0,0-.76.26.06.06,0,0,0,0,.09c.5.41.38,1.28,1,1.75a8.92,8.92,0,0,0,.86.47c1.27.74.68,2.59.54,3.69-.28,2.3,2.09,4.51,3.47,6,.2.23.51,0,.47-.27C124.68,41.85,121.58,40.85,121.56,38Zm11.87-19.86a.3.3,0,0,0-.34-.14,3.54,3.54,0,0,0-1,.6c-.08.07,0,.19.1.17.35-.07.7-.09,1-.18a.32.32,0,0,0,.22-.38ZM74.82,84.33a1.16,1.16,0,0,0-1,.21c-.8-.12-1.48-.62-2.32-.5a.08.08,0,0,0,0,.15,15.85,15.85,0,0,0,2.19,1,1,1,0,0,0,1.76-.06C75.5,84.82,75.07,84.36,74.82,84.33Zm-.88-16c1.76-.07,3.51-.39,5.27-.36,1.13,0,4.85-.08,5.28-1.38a.56.56,0,0,0,.38.68c1.51.5,1.65,2.32,3.11,2.78a.14.14,0,0,0,.13-.23,10,10,0,0,1-1.9-3c-.09-.18-.92-1-.69-.34a.53.53,0,0,0-.64-.36,25.33,25.33,0,0,1-5.67,1c-1.74.14-3.52.87-5.27,1.09C73.88,68.28,73.87,68.37,73.94,68.37ZM49.62,17.75A32,32,0,0,0,48.89,7c0-.07-.13,0-.12,0a19.52,19.52,0,0,1,.15,4.89c0,1.38,0,2.77-.1,4.14a4.68,4.68,0,0,1-.56-1.35c0-.25-.43-.23-.48,0a25.42,25.42,0,0,0-.49,3.47c0,.2.25.25.35.1a3,3,0,0,0,.5-1.76c.13.45.3.9.47,1.39A.52.52,0,0,0,49.62,17.75ZM97.68,56.1a.15.15,0,0,0-.08.29c1.29.47,2.7.09,4,0,1-.06,2.16-.51,3.11-.28a2,2,0,0,0,1.07-.28.17.17,0,0,0,0-.31,8.08,8.08,0,0,0-3,.41A12,12,0,0,1,97.68,56.1Zm5.73,3.13a1.65,1.65,0,0,0-.85.08,3.64,3.64,0,0,0-1,.33c-.06,0,0,.11,0,.11a3.66,3.66,0,0,0,1,0,1.7,1.7,0,0,0,.84-.18A.2.2,0,0,0,103.41,59.23ZM91.79,61.61c.91-.2,1.58.06,2.47-.14,1.38-.31,2.76-.63,4.15-.89.15,0,.16-.29,0-.31-4.28-.59-8.32,1.63-12.49,2.3,0,0,0,.06,0,.06C88,62.83,89.83,62,91.79,61.61Zm1-21.15s0,0,0,0a9,9,0,0,1,2.45-3.81c-.3,1.83,1.14,3.64.61,5.55,0,0,.06.08.08,0a4.41,4.41,0,0,0,.28-2.9c-.1-.41-.22-.79-.3-1.19a.25.25,0,0,0,.22-.22c.24-1.2,2.41-1.57,3.37-1.78a14,14,0,0,0,3.17-.69.08.08,0,0,0,0-.15A25,25,0,0,0,98,36a5.48,5.48,0,0,0-2.16.77c0-.2,0-.4,0-.6a7.13,7.13,0,0,1,1.38-.61c1.17-.39,2.4-.59,3.58-1,.85-.26,2-.93,2.89-.84a.8.8,0,0,0,.28,0c.46,1.16,1.19,2.22,1.64,3.4a10.35,10.35,0,0,1,.62,5.15L106,42a.28.28,0,0,0-.38,0,.61.61,0,0,1-.07.1c-2.18-.66-4.77-.1-7-.13,0,0,0,.06,0,.07a15.71,15.71,0,0,0,3.2.52,14.45,14.45,0,0,1,3.64.94c-2.19.91-4.95.33-7.17-.09-1.51-.29-4.22-1.37-5-2.67a.08.08,0,0,0-.15,0,.11.11,0,0,0,0,.06c.71,2.8,2.39,2.91,5,3.29,1.8.26,3.56.48,5.39.59,1,.07,2,.15,2.46-.83a.33.33,0,0,0,0-.24.72.72,0,0,0,.53-1.06h0a10.21,10.21,0,0,0-2.29-9.68c-.23-.33-.63-.5-.91,0-.62,1.21-2.82,1.24-4,1.41a10.38,10.38,0,0,0-4,1.41,6.22,6.22,0,0,0-2.44,4.7S92.74,40.46,92.76,40.46Zm5.45,17.59a18.19,18.19,0,0,0,3.46-.08c1.33-.13,2.64.05,4,0a1,1,0,0,0,.3,0c.71,0,1-1,1.22-1.49a.18.18,0,0,0-.16-.27.24.24,0,0,0-.12,0c-.22.21-.38.54-.6.4s-.73,0-1.05.05c-.76.21-1.45.12-2.14.29-1.76.17-3.6.68-5.33.29-2.47-.57-4.31-2.92-3.08-5.41a5.07,5.07,0,0,1,1-1.37,2.58,2.58,0,0,0-.12,1.07v.11l.06.5a11.79,11.79,0,0,0,.41,1.55A13.79,13.79,0,0,1,96.36,56c0,.07.1.11.14,0a3.28,3.28,0,0,0,.07-2.41c-.12-.48-.24-.93-.33-1.36a2.37,2.37,0,0,0,1-.6A7.87,7.87,0,0,1,99,50.73c.07,0,0-.15,0-.15a4.82,4.82,0,0,0-1.71.3,8.53,8.53,0,0,1,1.24-1,10.7,10.7,0,0,1,3.07-1.46s0-.07,0-.07a8.2,8.2,0,0,0-3.33,1.07,9.29,9.29,0,0,0-2.06,1.25c0-.18,0-.36.06-.56a31.47,31.47,0,0,1,2.75-1.89,0,0,0,0,0,0,0h0c-3.17,1.32-6.42,3.85-4.76,7.56C94.88,57.35,96.55,57.92,98.21,58.05ZM80,44.84c.22.49.43,1,.69,1.48a.12.12,0,0,0,.21-.07,12.09,12.09,0,0,0-.76-3.11.45.45,0,0,0-.81-.11,12.45,12.45,0,0,1,.22-5.66,0,0,0,0,0-.06,0c-1.4,2.19-.93,5.14-.29,7.49A.42.42,0,0,0,80,44.84ZM72.33,5.64a.15.15,0,0,0-.2.05c-.22.32-.07.72,0,1.08A3.48,3.48,0,0,0,72.3,8a.1.1,0,0,0,.19,0,3,3,0,0,0,.16-1.34C72.65,6.25,72.67,5.86,72.33,5.64Zm11.29,40.3a9.84,9.84,0,0,0,3.55.1,15.66,15.66,0,0,0,4.16-.44.17.17,0,0,0,0-.32,8.93,8.93,0,0,0-3.57-.08,17.29,17.29,0,0,0-4.14.46A.15.15,0,0,0,83.62,45.94Zm-22.84-.87a28,28,0,0,0,4.3.63,21.92,21.92,0,0,1,7.12.87s.08,0,0-.08c-2.73-1.48-6.4-1.75-9.44-2.21a3.35,3.35,0,0,0-1.91,0c-1,.46-1.73-5.23-1.88-5.95,0-.05-.1,0-.1,0C58.88,39.74,58.66,44.77,60.78,45.07Zm14.16,1.67s0-.06,0-.06a5.27,5.27,0,0,1-1.63-.18,0,0,0,1,0,0,0A5.3,5.3,0,0,0,74.94,46.74Zm-30-28.11c-2.32-.72-3.94.16-6.28.09-2.16-.06-4.58-.16-6.47,1,0,0,0,.1,0,.09a29.85,29.85,0,0,1,7.25-.45c1.38.08,1.94.48,3.17.47A7,7,0,0,0,44.94,19,.21.21,0,0,0,44.94,18.63ZM49.48,5a0,0,0,0,0,.07,0c.11-.21.23-.42.33-.63a.63.63,0,0,0-.23-.76.2.2,0,0,0-.27,0,.63.63,0,0,0-.23.76C49.25,4.55,49.37,4.76,49.48,5Zm-20.41.48-.3-.32a.71.71,0,0,0-.69-.19,1,1,0,0,1-.74,0,.62.62,0,0,0-.71.09c-.22.21-1.22,0-1.52.06a1.69,1.69,0,0,0-.95.32s0,.08,0,.08c.54,0,2-.06,2.45.37A1.6,1.6,0,0,0,28,6.36a5.8,5.8,0,0,1,.5.58.71.71,0,0,0,1.31-.36c0-.45,1.27-.78,1.63-.91,0,0,0-.08,0-.09C30.43,5.41,29.67,5.05,29.07,5.45Zm40.09-2A.2.2,0,0,0,69,3.12a3.78,3.78,0,0,0-1.84-.23c-1.69.55-3.71.12-5.45,0a14.64,14.64,0,0,0-5.41.57,0,0,0,0,0,0-.09l-.2,0a.06.06,0,0,0,0,.12c2,.4,4.46-.17,6.58,0,1.67.11,3.52.64,5.15.64C68.59,4.18,68.78,4,69.16,3.41ZM80.42,63.52a.27.27,0,0,0,.4.23c.23-.12.77,0,1,0a2.24,2.24,0,0,0,1.28-.23.24.24,0,0,0-.06-.43C82.45,63,80.33,62.19,80.42,63.52Zm-1.64.25c.08,0,.07-.18,0-.16-2.81.37-5.62.78-8.44,1.07-1.36.14-5,.93-5.87-.53a.36.36,0,0,0-.61,0c-.21.46-1-2-1-2.19-.18-.72-.32-1.45-.45-2.18,0,0,0,0,0,0a18.79,18.79,0,0,0,.84,4.46,1.13,1.13,0,0,0,.52.65c.43.23.27-.15.33,0,.55,1.17,2.93,1,3.9.84A81.53,81.53,0,0,0,78.78,63.77Zm24,6.21c-.06.17-.11.34-.17.51s0,.06.06.05.68,4.39.71,4.68a35.69,35.69,0,0,1-.22,7.08,0,0,0,0,0,.07,0c.31-2,.43-4.13.66-6.2a21,21,0,0,0-.64-6.13C103.19,69.72,102.83,69.77,102.76,70Zm-21.47-10a.18.18,0,0,0,.27-.15A7.79,7.79,0,0,0,81,57.73a16.16,16.16,0,0,1-.34-3,0,0,0,1,0-.08,0C80.49,56.2,79.83,58.89,81.29,59.94Zm-2.94,0a2.53,2.53,0,0,0,1.23,2.26c.12.09.29-.05.25-.19a11.92,11.92,0,0,1-.92-2.59.27.27,0,0,0-.18-.23c-1.41-.5-.43-4.12-.46-5.22,0-.07-.12-.07-.12,0-.17,1.62-.86,3.29-.35,4.92C78,59.4,78.42,59.4,78.35,59.94Zm92.43-16.69c-.66,2-.67,4.17-1.36,6.21-1,3.09-3.32,4.08-5.79,5.79-.15.11-.11.39.11.38,5.31-.13,8.45-7.93,7.12-12.38A0,0,0,0,0,170.78,43.25Zm-49.87,26c.07,0,.16.06.21.13a.17.17,0,0,0,.27,0,.48.48,0,0,0-.58-.7.26.26,0,0,0-.06.48Zm90.83,4.32A4,4,0,0,0,212.1,71c-.09-.69.42-1.9.07-2.5-.72-1.22-.11-2.8-1.09-3.94,0-.06-.13,0-.09.07a4.15,4.15,0,0,1,.35,2.65,6.6,6.6,0,0,1,0,1.83c-.55,1.7-.79,2.81.08,4.43A.18.18,0,0,0,211.74,73.54Zm-63-14a.07.07,0,0,0,0,.13,2,2,0,0,0,1.63,0,.13.13,0,0,0,0-.23A2,2,0,0,0,148.74,59.54Zm29.1-1.25a2.68,2.68,0,0,0,.34-2.74.12.12,0,0,0-.21,0A12.29,12.29,0,0,0,177.7,57a4.81,4.81,0,0,0-.21,1.25C177.49,58.4,177.73,58.43,177.84,58.29ZM163.77,95.46c-.31.1-.62.17-.93.25a.81.81,0,0,0-.7-.44.78.78,0,0,0,0,1.55c.5,0,.7-.38.78-.79.31-.14.59-.31.89-.47A.05.05,0,0,0,163.77,95.46Zm.68-24a36.42,36.42,0,0,1-5,6.33A26.93,26.93,0,0,1,152.61,82c-.08,0,0,.18,0,.18,4.87-.23,11.9-5.52,12.21-10.63C164.89,71.34,164.57,71.3,164.45,71.47Zm-18,13a38.24,38.24,0,0,0-8.37,2.25c-3.74,1.23-7.05,2.37-11.06,2.47-.07,0-.07.1,0,.11,6.58.21,13.56-1.74,19.55-4.39A.24.24,0,0,0,146.49,84.43Zm13.63,11.32a.34.34,0,0,0-.2.5c.12.15.22.29.41.32a.39.39,0,0,0,.44-.57A.54.54,0,0,0,160.12,95.75Zm-10.34-13a1.2,1.2,0,0,0-.87.31.43.43,0,0,0,.08.67.85.85,0,0,0,1.19-.28A.47.47,0,0,0,149.78,82.78Zm27-19.65a1.41,1.41,0,0,0,.56-1.13,2.49,2.49,0,0,0-.19-1.5.06.06,0,0,0-.12,0,5.45,5.45,0,0,0-.34,1.32,3.52,3.52,0,0,0-.2,1.2A.2.2,0,0,0,176.82,63.13Zm1.92-11.74c.07-2.14,0-4.28.08-6.42.06-1.66.28-3.17-.5-4.68-.06-.11-.22,0-.22.07-.13,1.81.33,3.58.29,5.41s-.44,3.74-.42,5.62A.39.39,0,0,0,178.74,51.39ZM207.35,95.7c-.29.1-.4.33-.64.51s-.26.15-.37.25-.16.44-.29.64A5.21,5.21,0,0,0,204.94,99c0,.09.1.13.17.1a4.37,4.37,0,0,0,.8-.75c.26-.3.56-.89,1-1a1.33,1.33,0,0,0,.74-1.55A.23.23,0,0,0,207.35,95.7Zm4.81-14.12a.1.1,0,0,0-.13-.11.4.4,0,0,0-.65.18.74.74,0,0,1,0,.14,3.59,3.59,0,0,0-1.42.22.12.12,0,0,0,0,.22,7.08,7.08,0,0,0,1.56.37h.08c-.06.19-.11.37-.16.56a1,1,0,0,0-.27-.08,25.11,25.11,0,0,0-6-.47,0,0,0,0,0,0,.09,17.37,17.37,0,0,1,3.76.86c.56.18,1.11.35,1.66.57.27.11.37.52.39,1-.26,1.34-.48,2.69-.82,4a43.56,43.56,0,0,1-2.13,5.6s.05.08.08,0c1.29-1.26,1.83-3.16,2.39-4.83A36.77,36.77,0,0,0,212.11,82s0-.1,0-.16a.34.34,0,0,0,0-.2S212.16,81.61,212.16,81.58Zm.08-5.23A.6.6,0,0,0,212,76c-.2-.12-.23-.31-.28-.52,0,0,0,0,0,0,0,.22.06.4-.12.57a.6.6,0,0,0-.14.39,9.21,9.21,0,0,0,0,1.05.55.55,0,1,0,1.08-.15C212.42,77,212.34,76.69,212.24,76.35Zm1.43-14.77a123.36,123.36,0,0,0-5.31-24.1c-.54-1.77-.75-3.88-2-5.31A5.24,5.24,0,0,0,205,31c-1.63-1.15-3.5-1.31-5.48-1.58-3.31-.44-6.62-1.06-9.91-1.68-4.26-.79-8.45-1.88-12.68-2.8-2.44-.53-5.3-1.19-7.8-.76a2.58,2.58,0,0,0-1.73.91c-2.51-1.42-5-2.82-7.44-4.44-6.29-4.21-12.11-9.08-19-12.22-6.53-3-13.73-4.28-20.61-6.18-3.63-1-7.24-2.11-11-2.27a45.09,45.09,0,0,0-8.75.84c-3.81-.07-7.63.22-11.41.5A115.09,115.09,0,0,1,68.77.77C62.33.12,56.13-.45,49.7.66c-5.37.93-10.57,2.43-16.05,2.62-8.87.32-30.82-2-33,10.29a7.07,7.07,0,0,0,1,7.52c2.14,2.39,6.14,2.73,9.12,2.89a61.84,61.84,0,0,0,11.45-.89,13.59,13.59,0,0,0,3-.36c1-.11,2-.2,3-.23,2.57-.09,4.88,1.36,7.29.35,6.12.71,12.2-.48,18.4-.31a60.5,60.5,0,0,1,7.53.86c-.49.13-1,.27-1.46.43-4.15,1.35-7.79,3.74-9.47,8.09C48,38.24,53.44,45.27,59.07,48c-3.66,3.13-4.47,9.65-2.79,13.83a9.86,9.86,0,0,0,5.25,5l.16.06c.29.18.58.35.82.53.75.54,2.25,1.57,2.68,2.66a2.21,2.21,0,0,1-.06.34c-.24,1.05-1.09,1.78-1.45,2.78-.14.41-.28.83-.41,1.25s-.28.67-.41,1c-1.08,3.06.14,5.67,2,8s5.85,3.5,8.84,3.86a62.07,62.07,0,0,0,13.76-.07,1,1,0,0,0,.72-.38.57.57,0,0,0,.18,0c3.25.21,6.45,0,9.67.53s6.41,1.79,9.64,2.55a76.76,76.76,0,0,0,18.15,2.18,89,89,0,0,0,18.24-2.36c3.47-.8,7-1.82,10.51-2.6a32.8,32.8,0,0,1,.16,3.62,9.53,9.53,0,0,0,1.92,4.72c2.64,3.68,7.34,4.11,11.38,5.07,3.18.75,5.91,2.26,8.91,3.47a47,47,0,0,0,9.57,2.45,66.52,66.52,0,0,1,9.57,2.25,38,38,0,0,0,3.66,1.06c.57.26,1.14.52,1.72.76a18.65,18.65,0,0,0,2.07.64,14.61,14.61,0,0,1,1.53.87,3.32,3.32,0,0,0,1.48.52.69.69,0,0,0,.68.06.71.71,0,0,0,.79-.51C213.92,96,215.36,78.72,213.67,61.58ZM171.31,27.74l0,.05,0,0A0,0,0,0,0,171.31,27.74Zm-1.13-.95h0s0,0,0,0ZM28.7,20.05a.88.88,0,0,0,.05-.15l0,.15ZM57.62,42.94a12.3,12.3,0,0,1-.45-5.42,44.8,44.8,0,0,1,1.63-8.14s0-.05,0,0a15.92,15.92,0,0,0-1.63,5.27,40.7,40.7,0,0,0-1,5.65,11.27,11.27,0,0,0,.07,1.52,7.65,7.65,0,0,1-.44-1A24.16,24.16,0,0,1,55,35s0,0,0,0c-.37,2.62-.41,6.62,1.14,9.2a19.93,19.93,0,0,1-1.85-1.71c-2.81-3-3.89-6.88-2.24-10.71,1.2-2.82,3.76-4.72,6.35-6.19a11.29,11.29,0,0,1,1.84-.85,9.55,9.55,0,0,1,3.31-.55l.91,0-.38.13c-1.11.5-2.32.39-3.38,1.08,0,0,0,.12,0,.11a7.28,7.28,0,0,1,3.5-.05,6.81,6.81,0,0,0,2.25.33,12.94,12.94,0,0,0-.05,2.08,8.87,8.87,0,0,0,6.32,8.19c2.64.94,5.36.12,7.79-1.15a46.49,46.49,0,0,1,7.62-3.07c1.22-.38,2.45-.73,3.67-1.06-.4.24-.79.48-1.2.7-2.29,1.25-5,1.59-7.31,2.79,0,0,0,.09,0,.07,3.92-1.2,7.76-2.54,11.63-3.83a18.5,18.5,0,0,1,4.93-.82,11.69,11.69,0,0,0-5.64,2.32.15.15,0,0,0,.14.26,18.2,18.2,0,0,1,7.69-1.21,13.58,13.58,0,0,1,4.48,1.3l.6.52c3.63,3.43,3.71,9.53-.74,12.27a12.06,12.06,0,0,1-4.09,1.19c-1.5.27-2.56-.49-4-.52l-.58,0a.14.14,0,0,0-.06-.23,6.24,6.24,0,0,0-1.3-.15.28.28,0,0,0,0,.55c-1.1.2-2.21.49-3.29.58-1.35.11-2.69.12-4,.24l-1,0c-3.78.1-7.42,1.18-11.22,1.19-3.6,0-7.21-.65-10.8-.93a30.08,30.08,0,0,1-6.62-1.61A6.68,6.68,0,0,1,57.62,42.94ZM102.68,22.5a.14.14,0,0,0,0,.06,0,0,0,0,0,0,0A.17.17,0,0,1,102.68,22.5ZM64,66.54a10.13,10.13,0,0,1-3.68-3.73c-1.51-2.73-1.2-6-.8-8.91a.05.05,0,0,0-.1,0c-1.2,3.65-.91,8.24,1.31,11.22a3.24,3.24,0,0,0-1-.37,9.15,9.15,0,0,1-2.15-2.49c-1.8-3.09-.83-6.75.82-9.89a10.67,10.67,0,0,1,7.36-3.2c2.11-.12,4.2.08,6.3,0l2.66.13c4.1.21,8.11-.91,12.16-1.39.63-.08,1.28-.11,1.92-.13a23.26,23.26,0,0,0,4.72,0l.86,0-.76.09c-2.89.3-5.79.73-8.67,1.17,0,0,0,.11,0,.1,3.2-.3,6.43-.17,9.61-.52,1.75-.2,3.47-.54,5.2-.89,0,0,0,.11,0,.11,2.32-.27,4.62-1.5,6.2,1,1.28,2,1.24,4.4,1.1,6.69a.14.14,0,0,0,0,.11.17.17,0,0,0,.24-.07,8.89,8.89,0,0,0-1.18-7.84,3.49,3.49,0,0,0-1-.94,5.32,5.32,0,0,0,2-.83c1.52,1.72,2.37,3,2.38,5.54A9.3,9.3,0,0,1,107,58c-2.47,2.61-7,3.26-10.72,4l-.24,0a36.74,36.74,0,0,0-5.51,1.23c-3.89.83-7.79,1.57-11.74,2.13-2.8.4-5.62.67-8.42,1.07a36.81,36.81,0,0,1-3.77.41A11.1,11.1,0,0,1,64,66.54Zm25-1.13a25.89,25.89,0,0,0,.61,2.79.07.07,0,0,0,.13,0,2.43,2.43,0,0,0,0-1.72c-.07-.27-.14-.54-.2-.81l.05,0a.53.53,0,0,0,.17-.08,2.55,2.55,0,0,1,.81-.3l.83-.28a.05.05,0,0,0,0-.1,4.22,4.22,0,0,0-.62.1,2.77,2.77,0,0,1-.91.17.61.61,0,0,0-.07-.14,9,9,0,0,1,3.63-.79c1.29-.14,2.61-.11,3.9-.3.12,0,.07-.19,0-.2-2.08-.28-4.15.35-6.22.31h-.57l1.58-.46A28.52,28.52,0,0,1,98,63a5.82,5.82,0,0,1,1.28,1.86c.49,1.53-.81,2.26-.85,3.6,0,1.17-3.73,1.18-4.5,1.25a15.87,15.87,0,0,1-4.11-.52,3.71,3.71,0,0,1-1.27-1.62,2.44,2.44,0,0,1,.54-2.6,2.77,2.77,0,0,0,0,.41ZM86.64,85.73l-.21,0,.22-.08S86.64,85.72,86.64,85.73Zm65-1a63.67,63.67,0,0,1-10.11,3.69c-2.57.73-5.28,1.11-7.85,1.81a45.32,45.32,0,0,1-7.83.44c-3-.11-6.08-.8-9.1-1.2-2.79-.36-5.6-.59-8.38-1a12.71,12.71,0,0,1-4.11-2.06.47.47,0,0,0-.27-.21h0a.18.18,0,0,0-.21,0c-2.09.53-3.67.06-5.72-.36-2.33-.47-4.76-.55-7.1-.91a.09.09,0,0,0-.08,0,8.25,8.25,0,0,1-1-.27,3.85,3.85,0,0,0-.63-.19L89,84.37a.41.41,0,0,0-.6-.24l-.41.21a20,20,0,0,1-6.23,1.74c-1.37.18-2.76.06-4.14.19a6.59,6.59,0,0,0-.76.1h0c-.43-.08-.86-.13-1.29-.19a39.29,39.29,0,0,1-7.33-2.38c-5.68-2.47-5.17-7.07-2.89-11.21a.08.08,0,0,1,0,0,4,4,0,0,0,0,3.34c.79,2,1.1,4.34,3.09,5.53a.14.14,0,0,0,.17-.21,9.79,9.79,0,0,1-2.69-6,7.25,7.25,0,0,1,.62-3.25l.1-.17a9.16,9.16,0,0,1,1.78-2.36,7.3,7.3,0,0,1,1.62-1.06c1-.22,1.89-.56,2.79-.82a50.31,50.31,0,0,1,6.22-1.11,88.62,88.62,0,0,0,9.17-1.86c-1.34,1.55-.22,4.89,2,5.45,1,.56,2.37.12,3.65,0a31.37,31.37,0,0,0,5.31-1c1.24-.34,1-2.48.88-3.37a5.46,5.46,0,0,0-1-2.59,3.42,3.42,0,0,1,3,2.4,6.72,6.72,0,0,1-2.14,4.23,50.52,50.52,0,0,1-6,4.43.06.06,0,0,0,.07.1A35.32,35.32,0,0,0,99.71,71a20.7,20.7,0,0,1-5.77,4.24c-1.61.89-3.22,1.75-4.82,2.62a.59.59,0,0,0-.39.21A71.93,71.93,0,0,0,77.5,85.22c-.09.07,0,.19.08.19h0c3.72-1.82,6.94-4.3,10.58-6.27-.41,1.39-.2,3-.64,4.38a.08.08,0,0,0,.11.09h0c.62-.58.63-1.48,1-2.21s.6-1.83,1-2.69a.6.6,0,0,0,0-.34c3.2-1.59,6.61-3.06,9.41-5.25a11.75,11.75,0,0,0,4.16-6.25,7.72,7.72,0,0,0-.3-3c1.35,1.94,1.55,5.85,1.65,7.6.24,4.6.78,9-.67,13.44a.17.17,0,0,0,.31.13,13.11,13.11,0,0,0,1.23-5.86c.42-2.81.39-5.72.65-8.54,0-.46.09-.91.15-1.36a10.92,10.92,0,0,0,.75,3.29s0,0,0,0c.17-2.8-.18-5.77,1.78-8.07,3.11-3.65,6.4,1.21,8.63,3.07.11.09.28,0,.2-.15a23.43,23.43,0,0,0-2.41-3.41l.17.1a33.05,33.05,0,0,1,3.46,3.46s.11,0,.08-.07a17.67,17.67,0,0,0-3.25-4.4c-.61-1-1.19-2-1.72-3a9.17,9.17,0,0,1-1-2.85,6.72,6.72,0,0,0,1.77,2.14.06.06,0,1,0,.08-.08c-4.14-5.28,1.56-9.22,6.77-8.52,4.57.62,8.09,4.72,11.52,7.48,0,0,0,0,0,0-4.74-4-8.16-10-15.16-9a11,11,0,0,1,2.32-.5,9,9,0,0,1,4.74.94l.37.24c2.07,1.32,3.84,3.2,5.81,4.67,4.56,3.4,9.42,4.72,15,5.57.17,0,.25-.22.08-.26-5.35-1.28-10.23-2.38-14.61-5.9-1.6-1.29-3-2.82-4.5-4.19a7.44,7.44,0,0,0-.84-.64c-.42-.38-.86-.74-1.31-1.1-.64-.71-1.3-1.41-1.91-2.14s-1.49-1.65-2.21-2.49a12.81,12.81,0,0,1-2.42-5.17c-.67-2.28-2-4.63-2-7a6.13,6.13,0,0,1,1.58-3.52,5.68,5.68,0,0,1,1.63-1.17c.5-.1,1-.22,1.48-.36.76-.22,1.52-.5,2.27-.8-.27.17-.53.35-.79.53-1.63,1.11-3.71,2.35-4.06,4.45,0,.15.18.33.3.17A26.87,26.87,0,0,1,124.37,26c1.38-1,2.83-2,4.2-3l1.08-.55c2.87-1.46,5.61-2.84,7.69-5.36.11-.13,0-.37-.2-.25a39.29,39.29,0,0,1-16.35,7.52c-2.26.4-4.35,1.1-6.54,1.42-5-.2-10.77-.3-11.62-5.55a3.17,3.17,0,0,0-.35-2.63.08.08,0,0,0-.14.06c.21,1.81-.53,3.17-1,4.87-.1.35-.31.87-.43,1.4a12.13,12.13,0,0,1-1.88,2.72c-1.64,1.63-4.38,2.54-6.48,3.32-1.43.53-2.9,1-4.4,1.45-3.28,1-6.64,1.78-9.91,2.55-2.22.53-4.92,1.35-7.06.25a7.12,7.12,0,0,1-3.12-4.23,7.09,7.09,0,0,1-.19-3.55c1.9.94,4.77,1.07,6.81,1.29l.19,0a10.28,10.28,0,0,0,7-2.55c2-1.57,3.37-3.39,2.78-6-.48-2.11-2.72-2.52-4.47-2a.16.16,0,0,0-.1.21.15.15,0,0,0,.14.11c2.83.21,3,3.15,2.27,5.22A3.54,3.54,0,0,0,82,22.2c-.84-1.33-2.77-1.3-2.94-3,0,0,0,0,0,0A1.66,1.66,0,0,0,79.59,21c.35.32.77.58,1.11.91a2.23,2.23,0,0,1,.8,2.25,8.94,8.94,0,0,1-6.3,3h-.49a24.47,24.47,0,0,1-4.61-1.27c1.28-2.17,3.69-3.76,5.77-5.06a0,0,0,0,0,0-.08A13.65,13.65,0,0,0,69,25.4a.51.51,0,0,0-.09.22l-.53,0a2.51,2.51,0,0,1,.25-1.21,15.24,15.24,0,0,1,1.84-1.93,20.79,20.79,0,0,0,3.06-2.07,34.5,34.5,0,0,0,5.56-2.72s0-.08,0-.08a14.8,14.8,0,0,0-2.92.53c1.13-1.06,2.24-2.16,3.42-3.26,2.16-2,4.72-3.69,7-5.6l.51-.44a.31.31,0,0,0,.16.06,14.37,14.37,0,0,1,4.83,1.21,13.83,13.83,0,0,1,4.25,4.16s.12,0,.09,0c-1.33-3.41-4.29-6.43-8.06-6.43a19.69,19.69,0,0,1,5.35-3.2,24.9,24.9,0,0,0,3.12.05,3,3,0,0,1,1.51.61A5.6,5.6,0,0,0,99.54,6c1.48,1.06,1.31,3.24,1.94,4.78a.07.07,0,0,0,.13,0,13.84,13.84,0,0,0-.84-5,2.83,2.83,0,0,1,1.93-1c.68-.15,1.35-.27,2-.38s1.53,0,2.29,0a19.59,19.59,0,0,1,2.42.21c2.1.34,3.79,1.74,5.94,2a30.58,30.58,0,0,0,3.56-.25,21.19,21.19,0,0,0,3.74-.27.1.1,0,0,0,0-.19c-2.58-.53-5.25-.55-7.86-1A36.64,36.64,0,0,0,108.65,4L107,4c-4.4-.16-8.62-.85-13-.34a4.35,4.35,0,0,0-1.48-.13,6.75,6.75,0,0,0-.86.15,22.42,22.42,0,0,0-3.26.08c-2.49.08-5-.17-7.45.11a.12.12,0,0,0,0,.24c2.16.27,4.35.37,6.52.52.55,0,1.11.12,1.67.19-2.59,1.65-5,4.46-6.63,6-2.09,1.9-4.22,3.74-6.38,5.56a.74.74,0,0,0-.64-.36,1.81,1.81,0,0,0-1.1.4.71.71,0,0,0,.14,1.11,4.7,4.7,0,0,0-1,.19,6.46,6.46,0,0,0-.69.26c-.09-.44-.22-.89-.27-1.35-.11-1-.15-2.05-.28-3.07a.11.11,0,0,0-.22,0C72,14.4,72,15.27,72,16.15a6.49,6.49,0,0,1-.19,1.26.82.82,0,0,0-.22,0c-.45,0,1-7.67,1.14-8.63,0-.06-.1-.07-.1,0a37.33,37.33,0,0,1-.81,3.92c-.29,1.16-.41,4.05-1.22,4.92a.8.8,0,0,0-.12,1,.35.35,0,0,1,0,.08l-.09.23a12.32,12.32,0,0,0-2.18.27,27.14,27.14,0,0,1-5.68.91c-3.67.05-7.35-.62-11-.31-.07,0-.07.09,0,.1,3.66.41,7.34.77,11,1.12,1.68.16,3.43.43,5.13.44a16.22,16.22,0,0,1-3.64.43l-1.27-.15c-3.32-.32-6.66-.11-10-.38a71.54,71.54,0,0,0-17,.47,10.09,10.09,0,0,0-3.93-.64A7.44,7.44,0,0,1,30.76,21c-1.43-.35-1.42-2.06-1.64-3.43,0-.35.05-.7.07-1a17.93,17.93,0,0,0,.18-1.94c.29-2,.88-4.3.23-6.07a.39.39,0,0,0-.77.1c-.09,1.63,0,3.27,0,4.92-.09.54-.16,1.09-.26,1.63A5.18,5.18,0,0,1,28,16.69v0a.31.31,0,0,0-.31-.31c-1.27.11-2.39.77-3.68,1-2.84.46-5.72.69-8.57,1.06a.05.05,0,1,0,0,.1c3.18-.15,6.35-.39,9.53-.43.61,0,1.21.09,1.71.06L26,18.6c-1.88,1.31-3.9.86-6.06.83-2.33,0-4.69.37-7,.45a19.53,19.53,0,0,1-9.17-1.76,0,0,0,0,0,0,.07c4.4,4.57,11.93,2.25,17.45,2.53a26.49,26.49,0,0,0,3.78,0c.61-.06,1.29.09,1.9,0A8.83,8.83,0,0,1,23.49,22l-1.39.12c-1.06.09-2.13.16-3.19.22h-.05c-1.56.09-3.13.16-4.71.19-3.35.09-7,.19-10.07-1.27s-3-4-2.69-6.67C5.1,1.46,25.52,5.13,36,4.43,41.1,4.09,46,2.6,51,1.75c6.22-1.06,12.55-.24,18.77.5a100,100,0,0,0,18.3.87C89.55,3,91,2.91,92.49,2.79c3.18-.27,6.34-.58,9.53-.76.55,0,1.1,0,1.65-.07,1.17,0,2.34-.08,3.52-.07a54.41,54.41,0,0,1,10.79,1A111.28,111.28,0,0,1,139,9.79c6.63,2.9,12.51,7,18.42,11.11,1.07.73,2.13,1.45,3.21,2.16,1.33,1,2.67,2,3.91,3.15A26.17,26.17,0,0,1,172,37a16.27,16.27,0,0,1-1.15,13.14c-.21.41-.43.8-.65,1.18-3.08,4.11-8.34,6.4-13.23,7.49a0,0,0,0,0,0,0,15.78,15.78,0,0,0,10.59-3.58c-.22.28-.42.56-.61.84a10.69,10.69,0,0,0-1.77,6.67c.2,3.42,1.51,6.27.49,9.74C164,78.57,156.82,82.26,151.62,84.74Zm-52-80.2h.07v0ZM210,92.15a24.35,24.35,0,0,1-6.29,10,15.83,15.83,0,0,1-5.86,3.49,8,8,0,0,1-3.24.4,56.74,56.74,0,0,0-6.51-1.6c-5.86-1.12-11.38-2-17-4.12-4.42-1.64-10-2-13.37-5.57-1.39-1.49-1.69-3.3-2-5.19.15-1.11.29-2.59,1.53-2.06.61.27.75,1.19.75,1.76a1.8,1.8,0,0,1-.18.89c-.14.24-.46.15-.68.25a.16.16,0,0,0-.08.14.11.11,0,0,0,0,.11c.46,1.35,1,3.63,2.83,3.63,2.24,0,3.75-2.51,4.7-4.19a37.51,37.51,0,0,0,2.8-7.63c1.11-3.65,2.49-7.21,3.68-10.83a91,91,0,0,0,4.83-23.9c0-.59.06-1.18.07-1.78a5.07,5.07,0,0,0,0-2.51,44.13,44.13,0,0,0-.41-5.16c.09-.72,0-1.5.12-2.19s.43-1.65,1.23-1.52a1,1,0,0,1,.54.36,14.68,14.68,0,0,0,.67,1.86,2.15,2.15,0,0,0,.1.27.22.22,0,0,0,.37,0,5.91,5.91,0,0,0,.39-2,8,8,0,0,1,.6-1.7,6.14,6.14,0,0,0,.37-.94l.33-.41c1.53-1.72,4.42-1.92,6.53-2a24.59,24.59,0,0,1,11.49,2.63c3.52,1.8,6,5.73,7.94,9a74.18,74.18,0,0,1,4.6,9.65,113.16,113.16,0,0,1,1.91,14.2q.22,2.9.29,5.81C212.8,78.42,212.27,85.32,210,92.15Zm-41.81-2.72a9.06,9.06,0,0,0,.61-1.1,2.61,2.61,0,0,0,.31-1s-.06,0-.07,0c-.26.72-1,1.27-1,2.06C168.05,89.48,168.17,89.49,168.21,89.43Zm2.7-7.46c0,.17.16.4.34.26.47-.36.8-.52.81-1.19a1.71,1.71,0,0,0-.15-.71c-.21-.4,0-.91.22-1.27a1.57,1.57,0,0,1-.24.62.08.08,0,0,0,.1.1,1.93,1.93,0,0,0,.61-.72c.16-.34.34-.7.1-1s-.64-.27-.71.08a1.08,1.08,0,0,0,0,.4c0,.12.14.22.15.33V79s-.06,0-.08,0a3.76,3.76,0,0,0-.25.54,4.64,4.64,0,0,1-.55.93,2.6,2.6,0,0,0-.39.76C170.8,81.49,171,81.73,170.91,82Zm2.77-6.21c1.28-2.6,1.67-5.62,2.24-8.43,0,0,0,0,0,0-.78,1.51-1,3.19-1.71,4.74-.5,1.13-1.4,2.39-1,3.65A.26.26,0,0,0,173.68,75.76Zm30.22,24.67a1.05,1.05,0,0,0,0-.38c0-.23-.32-.28-.5-.2-1,.43-1.93.83-2.89,1.27a.69.69,0,0,0-.67-.16c-.84.24-2.34-.61-3.12-.88L193.76,99s-.08.06,0,.08a30.42,30.42,0,0,0,3.95,2c.43.18,1.57.45,1.63,1a1.1,1.1,0,0,0,.23.58l.06.08a20.93,20.93,0,0,1-6.82-.48,49.91,49.91,0,0,1-9.4-2.84c-.08,0-.13.1-.06.14a57.49,57.49,0,0,0,11,4.24l-.1,0c-3.18-.63-6.73-.36-9.84-1.32a95.94,95.94,0,0,1-9.75-3.51c-1.35-.57-2.65-.09-4-.54-1.55-.51-3.08-.86-4.67-1.24-.06,0-.11.08,0,.11,1.46.66,3.07,1,4.59,1.57a12.74,12.74,0,0,0,3.84,1.11,25.71,25.71,0,0,1,6.66,1.66c2.09.75,4.38,1.44,6.41,2.34a17.51,17.51,0,0,0,4.33.86,24.81,24.81,0,0,0,4.28.41c2.58-.14,4.92-2,6.86-3.78.35-.2.69-.4,1-.57.18-.09.13-.29,0-.39A0,0,0,0,0,203.9,100.43Zm-4.17,2.91c-.1.06-.2.09-.29.14l.44-.23Zm3.41-2.34c-.23.19-.48.37-.72.55l.8-.67h0Zm-36.68-7.37a12.56,12.56,0,0,0,.78-1.5.05.05,0,0,0-.08-.06,13.44,13.44,0,0,0-1,1c-.37.32-1,.65-1.06,1.19a.22.22,0,0,0,.16.26C165.83,94.63,166.19,94.06,166.46,93.63Zm15.35-60.19c6.25-2.34,16-.72,19.76,5.34.92,1.47,1,3.17,1.7,4.7.87,1.87,2.65,3.19,3.7,5,2.43,4.07,2.09,8.9,3.17,13.32a.09.09,0,0,0,.17,0c.47-4.51-.95-9.55-2.77-13.63A64.77,64.77,0,0,0,204.23,42a27.73,27.73,0,0,0-3.61-5.41c-4.32-4.49-13.43-7.13-19-3.43C181.52,33.23,181.62,33.51,181.81,33.44ZM156.7,59.53a.3.3,0,0,0,0,.6A.3.3,0,0,0,156.7,59.53Zm1.89.52a.38.38,0,0,0,.17-.64.91.91,0,0,0-.63-.27.35.35,0,0,0-.33.44A.6.6,0,0,0,158.59,60.05Zm-4.4-.8a3,3,0,0,0-1.37.49.05.05,0,0,0,0,.1,3.55,3.55,0,0,0,1.52,0,.27.27,0,0,0,.2-.2.37.37,0,0,0,0-.23A.3.3,0,0,0,154.19,59.25ZM140,56.11a13.9,13.9,0,0,1-5.65-2.38.08.08,0,0,0-.12.12,8.81,8.81,0,0,0,4.07,2.58c1.48.56,3.71,1.57,5.31,1.22a.23.23,0,0,0,.11-.39C142.79,56.41,141.23,56.39,140,56.11Zm23.47,8.62a1.65,1.65,0,0,0-.22,1.35,8.31,8.31,0,0,0,.46,1.62.21.21,0,0,0,.36,0,5.3,5.3,0,0,0,.38-1.57,1.46,1.46,0,0,0-.54-1.46A.29.29,0,0,0,163.5,64.73Zm5.92-27.15a1.54,1.54,0,0,0,.47,1.41c.2.2.43.37.63.56s.45.53.7.77a.21.21,0,0,0,.32,0,1.36,1.36,0,0,0-.38-1.52c-.21-.19-.44-.34-.64-.53a.94.94,0,0,1-.18-.78.43.43,0,0,0-.64-.37.76.76,0,0,0-.19.12h0l-.06-.06a.14.14,0,0,0-.19.19A2.49,2.49,0,0,0,169.42,37.58Zm-7.31,23.05a4.84,4.84,0,0,1,1.16.35,1.78,1.78,0,0,0,.65.28s0,0,0,0c.17-.64-.79-1.09-1.26-1.25a3.37,3.37,0,0,0-2.44.07.1.1,0,0,0,0,.18A5.89,5.89,0,0,0,162.11,60.63ZM123,87.86c-.5.14-.36.38-1,.4a19.48,19.48,0,0,1-4.44-.35c-2-.36-4-1.07-6-1.29a15.08,15.08,0,0,0-2.92-.24c-1.23.13-1.55-.09-2-1.38a.11.11,0,0,0-.21,0c-.19,2.72,1.08,2.25,3.3,2.61s4.41.12,6.67.57c.7.15,5.74.44,6,.87a.85.85,0,0,0,1.31.17l1.33-.27c.15.07.35-.13.19-.25A2.59,2.59,0,0,0,123,87.86Zm40.6-59.22a21.78,21.78,0,0,1,3,3.17c.81,1.24.91,3.18,1.3,4.6a.2.2,0,0,0,.4,0c.22-5.42-3.12-9-7.39-11.79-4.8-3.12-10.12-5.38-14.77-8.77,0,0-.08,0,0,.07,3.63,3,7.82,5.13,11.67,7.8A42.67,42.67,0,0,1,163.62,28.64ZM120.24,67.2a.18.18,0,0,0,.08-.2c0-.21-.24-.31-.38-.45a2.4,2.4,0,0,1-.37-.47c-.17-.32-.27-.62-.61-.8a.16.16,0,0,0-.21.21c.07.16.08.34.15.51a4.83,4.83,0,0,0,.25.58C119.33,66.9,119.83,67.45,120.24,67.2Zm38.54,5.34c1.53-2,3.7-5.69,1.54-7.88-.27-.28-.68.14-.43.42,2,2.26-.24,6-2.1,7.63-.58.49-4.83,3.18-4.69,3.84a.46.46,0,0,0-.76-.2c-1.57,2-4.32,3.25-6.54,4.26a53,53,0,0,1-8.4,3.29s0,.08,0,.07A41.61,41.61,0,0,0,145,81.3c1.18-.52,2.37-1,3.51-1.65s2.43-1.89,3.83-2.4a.54.54,0,0,0,.18.11C154.84,78.06,157.62,74,158.78,72.54Zm-11-9.94c2.41.18,7-.89,8.88.85,0,0,.08,0,.07,0-.71-2-4.15-1.58-5.78-1.55a40.92,40.92,0,0,1-6.45-.21,29.22,29.22,0,0,1-7-2.35c-.14-.06-.21.16-.1.23C140.39,61.68,144.11,62.34,147.75,62.6ZM152.48,65s0,0,0,.06c1.34.55,3.28.43,3.84,2,.75,2.1-.68,4.32-1.62,6.07a.17.17,0,0,0,.27.2,7.63,7.63,0,0,0,2.46-2.81,4.82,4.82,0,0,0-.48-3.63C156.15,65,154.22,65.24,152.48,65Zm11.86-12.58a4.21,4.21,0,0,0,2.2-2.1A12.05,12.05,0,0,0,168,42.9c0-.15-.23-.16-.23,0-.12,2.18-1.89,9.46-5,8.38a.51.51,0,0,0-.52.14A15.18,15.18,0,0,0,161,53a.36.36,0,0,0,.11.53,1.93,1.93,0,0,0-1,.48,18.29,18.29,0,0,1-3.32,1.41,21.42,21.42,0,0,1-5.26,1c-.1,0-.1.16,0,.15a22.77,22.77,0,0,0,9.81-2.94.41.41,0,0,0,.29-.11h-.1l.26-.14a.19.19,0,0,0,0-.28C161.59,52.87,164,52.51,164.34,52.44Zm2.45-12a1.51,1.51,0,0,0,0-1.23c-.17-.4-.83-.12-.69.29s.23.63.36.94A.15.15,0,0,0,166.79,40.4ZM154.33,24.16c-.05,0-.1,0-.07.06,1.88,1.77,4,3.19,6,4.89,2.27,2,3,4.43,4.1,7.11a.16.16,0,0,0,.25.07c1.5-1.2-.75-3.92-1.55-4.95C160.65,28.3,157.2,26.63,154.33,24.16Zm-7.05,33a.5.5,0,0,0,0-1A.5.5,0,0,0,147.28,57.2Zm-17.81-8.88a.22.22,0,0,0-.27.21,2,2,0,0,0,.56,1.22c.24.28.63.44.84.7a.41.41,0,0,0,.68-.18C131.57,49.27,130.31,48.49,129.47,48.32Zm-1.78-1.88a.39.39,0,0,0-.53.52c0-.07,0,.08,0,.09s.11.13.13.23a.09.09,0,0,0,.18,0c0-.15.18-.14,0-.12A.39.39,0,0,0,127.69,46.44Zm25.88,7.24c1.64-.18,3.39-.1,4.45-1.54.18-.25-.12-.51-.36-.47-1.91.38-3.38,1.57-5.41,1.8s-3.85.16-5.76.28a0,0,0,0,0,0,.09C148.85,53.79,151.21,53.93,153.57,53.68Zm9.83-4.57a.17.17,0,0,0,.24.1,3.59,3.59,0,0,0,1.48-3c-.08-.53-.8-.39-1,0s-.31,1.1-.55,1.64A2,2,0,0,0,163.4,49.11ZM67.24,17.89a1.69,1.69,0,0,0-1.59-.23,4.29,4.29,0,0,1-2.49.49c-1.5,0-3-.19-4.27.78,0,0,0,.12,0,.09,1.41-.86,3.49-.33,5.05-.25.5,0,1.21-.22,1.66.08s1.2-.16,1.59-.43A.31.31,0,0,0,67.24,17.89Zm2.38-.58a.8.8,0,0,0-.88,0,.56.56,0,0,0,0,1,.78.78,0,0,0,.88-.05.31.31,0,0,0,.15-.1.47.47,0,0,0,0-.66A.42.42,0,0,0,69.62,17.31ZM50,18.51a1.58,1.58,0,0,0-1,.11.56.56,0,0,0,0,1,1.58,1.58,0,0,0,1,.12A.63.63,0,0,0,50,18.51ZM36.84,6.17a5.57,5.57,0,0,0,2-.41c.14-.06.08-.24,0-.28a2.68,2.68,0,0,0-1.61,0,8.49,8.49,0,0,1-.88.14c-.12,0-.4.13-.5.06s-.17,0-.12.09C36,6.2,36.39,6.19,36.84,6.17Zm9.39-2a1.57,1.57,0,0,0-1.15,0,2.7,2.7,0,0,0-1.17.45s0,.06,0,.09A1.59,1.59,0,0,0,45,5a1.69,1.69,0,0,0,1.24-.38A.25.25,0,0,0,46.23,4.19ZM92.37,56.48c.12.05.24-.08.24-.19a4.65,4.65,0,0,0,0-.75.34.34,0,0,0,.22-.44,2.93,2.93,0,0,1,0-1.61c.07-.32.07-.7.14-1,0-.06-.05-.08-.09,0a2.31,2.31,0,0,0-.38.36,4.24,4.24,0,0,0-.3.77c0,.11,0,.21-.07.32a.49.49,0,0,0-.5.35A1.88,1.88,0,0,0,92.37,56.48ZM90.82,43.11a.2.2,0,0,0,.29-.12,6.69,6.69,0,0,0,.12-1.2.54.54,0,0,0,.16-.21c.15-.4.67-2-.2-2,0,0,0,0-.06,0s-.1.32-.17.49a.49.49,0,0,0-.69.33C90.06,41.32,89.93,42.62,90.82,43.11ZM147,64.82l.65.15c0,.44.46.9.91.57a2.27,2.27,0,0,0,.51-.56.47.47,0,0,0-.17-.64,1.35,1.35,0,0,0-.36-.09.87.87,0,0,0-.52-.14,2.55,2.55,0,0,0-1.09.2.27.27,0,0,0-.13.24v.07h0A.26.26,0,0,0,147,64.82Zm3.2-.44a.49.49,0,0,0,0,1A.49.49,0,0,0,150.21,64.38Zm2.23,9.69h0c-.08.2-.16.45,0,.63s.32,0,.48,0a1.21,1.21,0,0,0,.44-.18.42.42,0,0,0,0-.72.65.65,0,0,0-.92.28h0Zm-7.84,6.07a32.2,32.2,0,0,1,3.23-1.86,20,20,0,0,1,2.82-2c.27-.12.26-.55-.08-.55-1.12,0-1.93.91-2.63,1.69a26.37,26.37,0,0,1-3.38,2.66S144.57,80.16,144.6,80.14ZM159.52,52l0,0a.11.11,0,0,0,.07,0v0l.08-.06c.41-.37.87-.69,1.31-1,.13-.1.25-.22.39-.32a3.17,3.17,0,0,1,.49-.13.9.9,0,0,0,.6-.69c.07-.51-.51-1-.95-.55a1.05,1.05,0,0,0-.3.75.89.89,0,0,1-.41.77l-.61.5a.15.15,0,0,0-.06-.09.91.91,0,0,0-1.11,0,.52.52,0,0,0,.45.87Zm4.71-9c.19-.15.44-.25.53-.49a.52.52,0,0,0-.38-.72.18.18,0,0,0-.23.13,1,1,0,0,0,0,.46c0,.21.13.29,0,.5S164.17,43.07,164.23,43Z"/></g></g></svg>