<?xml version="1.0" encoding="utf-8"?>
<!-- Generator: Adobe Illustrator 23.1.0, SVG Export Plug-In . SVG Version: 6.00 Build 0)  -->
<svg version="1.1" id="Layer_1" xmlns="http://www.w3.org/2000/svg" xmlns:xlink="http://www.w3.org/1999/xlink" x="0px" y="0px"
	 viewBox="0 0 141.73 141.73" style="enable-background:new 0 0 141.73 141.73;" xml:space="preserve">
<style type="text/css">
	.st0{fill-rule:evenodd;clip-rule:evenodd;fill:#FFFFFF;}
	.st1{fill:#00487A;}
	.st2{fill:#F7A600;}
</style>
<path class="st0" d="M70.69,0.17c39.14,0,70.86,31.73,70.86,70.87c0,39.14-31.73,70.86-70.86,70.86
	c-39.14,0-70.87-31.73-70.87-70.86C-0.17,31.9,31.56,0.17,70.69,0.17"/>
<path class="st1" d="M121.48,70.97c0.05,28.05-22.66,50.82-50.71,50.86c-28.05,0.04-50.82-22.66-50.86-50.71
	C19.87,43.07,42.57,20.3,70.61,20.26C98.66,20.21,121.44,42.91,121.48,70.97"/>
<polygon class="st2" points="73.71,47.78 76.5,37.18 72.55,30.8 74.49,28.36 70.21,23.87 67.84,23.84 70.88,31.2 67.55,33.75 
	65.66,31.64 63.19,33.51 64.9,38.8 63.01,47.78 66.45,60.9 63.66,65.9 66.23,73.06 63.01,85.51 65.85,91.42 65.68,95.27 
	63.45,99.99 64.12,106.84 62.13,110.82 64.04,117.63 65.36,118.04 68.52,110.6 72.92,110.37 74.51,118.01 75.68,117.71 
	77.66,108.61 73.09,105.82 73.06,101.18 69.82,95.66 74.34,80.57 79.61,80.63 84.46,87.08 85.78,87.07 "/>
<polygon class="st2" points="86.44,33.97 88.29,37.75 92.44,38.39 89.4,41.3 90.1,45.46 86.38,43.48 82.63,45.41 83.38,41.26 
	80.38,38.31 84.55,37.73 "/>
<polygon class="st2" points="86.33,49.58 88.17,53.38 92.34,54.01 89.3,56.92 89.98,61.08 86.27,59.09 82.52,61.03 83.27,56.88 
	80.27,53.93 84.44,53.35 "/>
<path class="st2" d="M49.53,66.46l1.76-9.94l8.02-9.03l-0.24-1.94l-3.16-0.29l0.94-6.78L53.66,36l4.21-0.39l0.96-1.96l-3.85-4.4
	l-3.9-0.86l-2.37-2.9c-4.3,2.2-12.64,7.67-17.87,14.3c-6.56,8.33-10.72,18.16-10.72,34.55c0,13.34,8.94,27.2,13.5,31.37l4.91-7.88
	l9.57-4.61l2.01-7.28l0.7-7.34l-0.94-2.52l1.99-4.38L49.53,66.46z"/>
<path d="M70.7,141.91C31.68,141.9-0.12,110.16-0.17,71.15C-0.23,32.07,31.51,0.23,70.58,0.17h0.11c39.01,0,70.8,31.74,70.87,70.76
	c0.05,39.07-31.69,70.91-70.76,70.97H70.7z M70.69,1.44h-0.1C32.21,1.49,1.03,32.76,1.09,71.14c0.06,38.32,31.28,69.49,69.61,69.5
	h0.09c38.38-0.06,69.55-31.33,69.5-69.7C140.23,32.61,109.01,1.44,70.69,1.44z"/>
<path d="M70.7,122.48c-28.32,0-51.4-23.04-51.45-51.36c-0.04-28.37,23-51.48,51.36-51.52c28.4,0,51.48,23.04,51.52,51.36
	c0.04,28.36-23,51.47-51.37,51.52H70.7z M70.69,20.85c-27.74,0.04-50.22,22.59-50.18,50.26c0.04,27.63,22.56,50.11,50.19,50.11v0.63
	l0.07-0.63c27.67-0.05,50.15-22.59,50.11-50.26C120.84,43.33,98.32,20.85,70.69,20.85z"/>
<path d="M15.49,101.67c0.09,1.05,0.48,1.9,0.81,2.43c0.2,0.32,0.53,0.76,0.85,0.88c0.18,0.06,0.44,0.08,0.7-0.08
	c0.26-0.16,0.36-0.38,0.39-0.66c0.05-0.44-0.12-0.93-0.3-1.6l-0.1-0.38c-0.19-0.72-0.21-1.61,0.23-2.28
	c0.2-0.29,0.52-0.59,0.82-0.77c0.85-0.53,1.77-0.6,2.75,0c0.67,0.41,1.26,1.11,1.71,1.83c0.28,0.45,0.72,1.25,0.97,2.2l-1.67,0.86
	c-0.04-0.34-0.17-1.06-0.71-1.93c-0.17-0.26-0.47-0.7-0.75-0.89c-0.32-0.23-0.6-0.18-0.83-0.04c-0.14,0.09-0.23,0.2-0.26,0.32
	c-0.11,0.3-0.01,0.76,0.21,1.51l0.04,0.14c0.14,0.45,0.36,1.34,0.28,1.95c-0.1,0.84-0.64,1.36-1.19,1.7c-1,0.63-1.86,0.55-2.47,0.31
	c-0.93-0.37-1.71-1.35-2.19-2.11c-0.39-0.62-0.82-1.48-1.1-2.5L15.49,101.67z"/>
<path d="M26.91,106.27l1.92,2.25l-4.65,8.55l-1.72-2.02l1.03-1.77l-2.21-2.59l-1.93,0.71l-1.59-1.87L26.91,106.27z M26.45,108.61
	l-0.02-0.02l-3.47,1.42l1.47,1.73L26.45,108.61z"/>
<polygon points="31.54,111.49 33.38,113.05 30.99,115.89 31,115.9 35.49,114.83 37.71,116.7 32.42,117.78 32.04,123.82 
	29.69,121.83 30.2,116.86 30.18,116.84 27.52,119.99 25.67,118.44 "/>
<polygon points="38.61,117.31 40.68,118.55 38.89,121.54 41.34,123.01 43.13,120.02 45.2,121.26 40.53,129.06 38.46,127.82 
	40.46,124.48 38.01,123.01 36.01,126.35 33.94,125.11 "/>
<path d="M49.08,122.93l2.76,1.07l-0.03,9.74l-2.47-0.96l0.07-2.05l-3.17-1.23l-1.36,1.55l-2.29-0.89L49.08,122.93z M49.78,125.21
	l-0.02-0.01l-2.38,2.9l2.12,0.82L49.78,125.21z"/>
<polygon points="55.62,125.26 57.97,125.79 56.36,132.91 60.01,133.73 59.62,135.48 53.61,134.12 "/>
<rect x="58.78" y="130.14" transform="matrix(0.1215 -0.9926 0.9926 0.1215 -74.7397 178.2493)" width="9.09" height="2.42"/>
<polygon points="67.17,127.27 70.25,127.21 73.42,133.33 73.45,133.33 73.3,127.16 75.51,127.12 75.67,136.21 72.67,136.27 
	69.39,130.11 69.36,130.11 69.55,136.32 67.33,136.36 "/>
<polygon points="80.18,126.53 86.41,125.11 86.8,126.78 82.92,127.67 83.34,129.5 87,128.66 87.39,130.34 83.73,131.17 
	84.19,133.18 88.2,132.27 88.59,133.94 82.22,135.39 "/>
<polygon points="88.01,124.68 90.86,123.51 96.03,128.06 96.06,128.06 93.69,122.36 95.73,121.53 99.17,129.95 96.39,131.08 
	91.11,126.53 91.09,126.54 93.51,132.26 91.45,133.09 "/>
<polygon points="97.26,120.66 102.71,117.33 103.6,118.79 100.21,120.86 101.19,122.47 104.4,120.51 105.29,121.98 102.09,123.93 
	103.17,125.69 106.68,123.55 107.58,125.01 102,128.42 "/>
<path d="M104.06,116.38l3.3-2.77c0.84-0.7,1.55-0.9,2.05-0.91c0.68-0.01,1.24,0.28,1.7,0.83c0.34,0.41,0.58,0.93,0.6,1.42
	c0.02,0.42-0.14,0.96-0.49,1.41l0.01,0.02c0.17-0.09,0.37-0.14,0.67-0.09c0.28,0.05,0.59,0.22,0.99,0.45l2.89,1.68l-1.93,1.62
	l-1.45-0.92c-0.88-0.57-1.31-0.75-1.66-0.76c-0.44-0.02-0.71,0.19-0.91,0.35l-0.39,0.33l2.31,2.76l-1.85,1.55L104.06,116.38z
	 M108.34,117.72l0.49-0.41c0.63-0.53,0.84-0.84,0.91-1.1c0.06-0.23,0.03-0.52-0.22-0.84c-0.31-0.37-0.66-0.4-0.99-0.29
	c-0.2,0.07-0.51,0.2-1.02,0.64l-0.49,0.41L108.34,117.72z"/>
<path d="M122.7,110.28c-0.44,0.87-1.08,1.88-1.85,2.78c-0.7,0.82-1.79,1.84-3.23,2.14c-1.02,0.22-2.44,0.11-3.91-1.15
	c-1.09-0.94-1.76-2.11-1.6-3.71c0.13-1.41,0.84-2.51,1.75-3.56c0.98-1.14,1.68-1.62,2.17-1.9l1.37,1.43c-0.62,0.22-1.27,0.58-2,1.43
	c-0.52,0.6-1,1.36-1.02,2.34c-0.01,0.85,0.35,1.55,1.04,2.15c0.78,0.67,1.53,0.77,1.98,0.74c0.79-0.04,1.63-0.54,2.18-1.17
	c0.23-0.26,0.36-0.52,0.43-0.74l-1.37-1.18l-0.92,1.07l-1.3-1.12l2.45-2.84L122.7,110.28z"/>
<polygon points="122.75,104.46 116.18,104.33 117.63,101.97 121.68,102.37 119.49,98.96 120.95,96.6 124.02,102.4 126.94,104.2 
	125.67,106.26 "/>
<path d="M19.14,48.47c-0.08,1-0.22,1.7-0.51,2.53c-1.24,3.47-3.71,4.35-6.2,3.46c-1.5-0.53-2.48-1.55-2.89-2.65
	c-0.39-1.06-0.31-2.43,0.18-3.82c0.17-0.48,0.52-1.32,1.34-2.38l1.78,0.84c-0.46,0.41-1.07,1.12-1.39,2
	c-0.32,0.9-0.19,1.65,0.06,2.17c0.29,0.6,0.89,1.18,1.77,1.5c0.82,0.29,1.65,0.24,2.26-0.07c0.64-0.33,1.18-1.03,1.46-1.82
	c0.23-0.64,0.35-1.49,0.32-2.29L19.14,48.47z"/>
<path d="M13.49,40.12l1.47-2.57l9.63,1.49l-1.32,2.3l-2.02-0.38l-1.69,2.95l1.33,1.58l-1.22,2.13L13.49,40.12z M15.85,39.76
	l-0.01,0.02l2.51,2.78l1.13-1.97L15.85,39.76z"/>
<polygon points="23.35,33.06 18.36,32.27 20.18,30.12 23.45,30.9 22.17,27.78 23.89,25.75 25.46,30.56 30.99,31.44 29.13,33.64 
	25.44,32.81 26.86,36.3 25.09,38.39 "/>
<path d="M28.48,21.61l2.29-1.87l8.46,4.83l-2.05,1.68l-1.75-1.07l-2.64,2.15l0.67,1.95l-1.9,1.55L28.48,21.61z M30.81,22.12
	l-0.02,0.02l1.34,3.5l1.76-1.44L30.81,22.12z"/>
<path d="M43.17,12.02l4.35,7.98l-2.12,1.15l-3.53-6.48l-1.95,1.06l0.52,0.96c0.35,0.64,0.95,1.82,1.33,2.66
	c0.4,0.9,0.77,1.89,0.57,2.69c-0.15,0.64-0.69,1.26-1.5,1.7c-0.25,0.14-0.63,0.28-0.94,0.39l-0.89-1.64
	c0.14-0.04,0.33-0.11,0.45-0.17c0.24-0.13,0.41-0.3,0.52-0.58c0.11-0.31,0.05-0.56-0.06-0.87c-0.21-0.67-0.47-1.15-0.77-1.76
	c-0.67-1.34-0.95-1.88-1.22-2.37l-0.79-1.45L43.17,12.02z"/>
<polygon points="47.02,10.36 49.32,9.62 50.51,13.33 51.12,15.49 51.19,15.46 51.99,8.77 54.75,7.88 57.52,16.54 55.22,17.28 
	54.03,13.57 53.43,11.42 53.35,11.44 52.55,18.14 49.79,19.02 "/>
<polygon points="58.81,7 61.21,6.7 61.64,10.16 64.48,9.8 64.05,6.35 66.45,6.05 67.58,15.07 65.18,15.37 64.7,11.5 61.86,11.86 
	62.34,15.73 59.95,16.02 "/>
<path d="M74.61,13.08c0.72,0.41,1.47,0.67,2.13,0.76c0.99,0.13,1.8-0.05,2.33-0.44c0.38-0.28,0.77-0.77,0.92-1.45l-3.43-0.46
	l0.22-1.65l3.38,0.45c-0.01-0.54-0.2-1.02-0.5-1.38c-0.34-0.41-0.94-0.82-1.96-0.95c-0.62-0.09-1.41-0.07-2.3,0.33V6.42
	c0.72-0.18,1.6-0.3,2.73-0.15c1.85,0.25,2.87,0.96,3.42,1.56c0.79,0.86,1.25,2.21,1.04,3.79c-0.22,1.62-1.02,2.67-1.81,3.23
	c-1.3,0.93-2.84,0.88-4.03,0.72c-0.91-0.12-1.56-0.29-2.47-0.71L74.61,13.08z"/>
<polygon points="86.97,7.97 89.27,8.71 88.2,12.02 90.92,12.9 91.98,9.59 94.28,10.33 91.49,18.98 89.19,18.24 90.39,14.53 
	87.67,13.65 86.47,17.36 84.17,16.62 "/>
<polygon points="98.06,11.98 103.72,14.96 102.92,16.48 99.41,14.63 98.53,16.29 101.85,18.04 101.05,19.56 97.73,17.81 
	96.77,19.64 100.42,21.55 99.62,23.07 93.83,20.03 "/>
<path d="M109.85,19.17c0.74,0.57,1.89,1.55,2.07,2.73c0.08,0.5,0,1.26-0.65,2.11c-0.4,0.53-0.96,0.95-1.68,1.09
	c-1.29,0.23-2.45-0.56-2.95-0.95l-0.74-0.57l-1.93,2.53l-1.92-1.47l5.52-7.22L109.85,19.17z M106.93,22.22l0.5,0.38
	c0.23,0.18,0.66,0.46,1.11,0.43c0.4-0.03,0.67-0.3,0.83-0.51c0.2-0.27,0.37-0.59,0.24-1.03c-0.12-0.42-0.49-0.72-0.68-0.86
	l-0.49-0.38L106.93,22.22z"/>
<path d="M109.58,28.33c0.54-0.15,1.29-0.42,1.84-0.69c0.76-0.39,1.68-1.04,2.91-2.22l1.4-1.33l4.66,4.89l-5.35,5.09l0.75,0.79
	l-2.78,2.64l-1.61-1.69l1.53-1.46l-3.54-3.72l-1.53,1.46l-1.61-1.69l2.78-2.64L109.58,28.33z M115.97,26.84l-0.48,0.46
	c-0.64,0.61-1.46,1.37-2.64,2.03c-0.62,0.34-1.13,0.54-1.68,0.68l2.2,2.32l4.11-3.9L115.97,26.84z"/>
<polygon points="123.56,40.44 123.62,40.54 128.22,40.54 129.56,42.74 124.52,42.61 121.96,47.75 120.57,45.45 122.94,40.95 
	122.88,40.85 119.15,43.12 117.89,41.06 121.63,38.79 121.57,38.69 116.48,38.73 115.08,36.43 120.83,36.53 123.03,32 124.36,34.2 
	122.24,38.28 122.3,38.38 125.67,36.33 126.92,38.4 "/>
<polygon points="130.92,46.2 131.7,48.49 128.01,49.75 125.88,50.4 125.9,50.47 132.61,51.14 133.55,53.88 124.95,56.83 
	124.16,54.54 127.85,53.28 129.99,52.63 129.96,52.55 123.25,51.89 122.32,49.15 "/>
<path d="M12.62,75.76c0.8,1.86-0.78,3.78-2.76,3.34c-0.71-0.16-1.32-0.66-1.6-1.33c-0.8-1.86,0.78-3.78,2.76-3.34
	C11.72,74.59,12.33,75.09,12.62,75.76"/>
</svg>
