<?xml version="1.0" encoding="UTF-8"?>
<!DOCTYPE svg PUBLIC "-//W3C//DTD SVG 1.1//EN" "http://www.w3.org/Graphics/SVG/1.1/DTD/svg11.dtd">
<!-- Creator: CorelDRAW 2020 (64-Bit) -->
<svg xmlns="http://www.w3.org/2000/svg" xml:space="preserve" width="569.27mm" height="123.778mm" version="1.1" style="shape-rendering:geometricPrecision; text-rendering:geometricPrecision; image-rendering:optimizeQuality; fill-rule:evenodd; clip-rule:evenodd"
viewBox="0 0 80546.5 17513.39"
 xmlns:xlink="http://www.w3.org/1999/xlink"
 xmlns:xodm="http://www.corel.com/coreldraw/odm/2003">
 <defs>
  <style type="text/css">
   <![CDATA[
    .fil0 {fill:#9D3236;fill-rule:nonzero}
   ]]>
  </style>
 </defs>
 <g id="Layer_x0020_1">
  <metadata id="CorelCorpID_0Corel-Layer"/>
  <path class="fil0" d="M22.96 7099.23l0 -986.05 726.82 -152.58 0 -4715.33 -726.82 -154.23 0 -990.97 726.82 0 2675.95 0c557.84,0 1041.84,98.45 1452.01,293.68 410.17,195.24 726.82,467.6 949.96,815.43 223.13,347.83 333.06,751.43 333.06,1212.46 0,462.68 -109.92,866.28 -333.06,1212.46 -223.13,346.19 -539.79,615.26 -949.96,807.22 -410.17,191.96 -894.17,288.75 -1452.01,288.75l-989.33 0 0 1230.52 725.18 152.58 0 986.05 -3138.62 0zm2413.44 -3662.01l989.33 0c342.9,0 603.78,-95.15 782.61,-282.19 177.19,-187.04 265.79,-428.22 265.79,-723.54 0,-303.53 -88.6,-554.56 -265.79,-749.79 -178.83,-195.24 -439.71,-292.05 -782.61,-292.05l-989.33 0 0 2047.57zm2772.75 3662.01l0 -986.05 490.56 -72.19 2086.95 -5940.92 1826.08 0 2090.23 5940.92 490.56 72.19 0 986.05 -2615.25 0 0 -986.05 457.75 -85.32 -211.64 -759.64 -2249.38 0 -201.81 759.64 456.11 85.32 0 986.05 -2620.17 0zm2721.89 -3013.94l1532.4 0 -682.52 -2119.76 -77.11 -244.45 -27.89 0 -82.04 269.06 -662.84 2095.15zm4690.72 3013.94l0 -986.05 726.82 -152.58 0 -4715.33 -726.82 -154.23 0 -990.97 5451.98 0 0 1913.04 -1240.35 0 -49.22 -623.47 -1748.97 0 0 1133.71 874.48 0c567.68,0 1059.88,93.53 1478.25,280.56 418.37,188.68 743.24,449.54 972.93,785.88 231.34,336.34 346.19,733.39 346.19,1187.86 0,461.03 -114.85,866.28 -347.83,1215.75 -232.98,349.47 -557.84,621.82 -977.86,815.43 -420.02,193.6 -910.58,290.4 -1471.69,290.4l-3287.92 0zm2413.44 -1283.01l874.48 0c342.9,0 615.26,-100.09 815.43,-298.6 200.15,-198.53 300.24,-447.92 300.24,-749.8 0,-285.47 -98.45,-515.17 -293.68,-692.36 -195.24,-175.56 -469.24,-264.15 -821.99,-264.15l-874.48 0 0 2004.91zm7493 1384.73c-484,-1.64 -928.63,-90.23 -1333.88,-267.43 -405.24,-178.83 -756.35,-426.57 -1054.96,-748.15 -298.62,-319.94 -528.3,-695.65 -689.09,-1127.14 -162.43,-429.86 -242.83,-899.1 -242.83,-1406.07l0 -109.92c0,-503.69 80.4,-969.65 242.83,-1397.87 160.79,-429.85 390.47,-805.56 687.45,-1125.5 295.32,-319.94 646.43,-570.96 1050.03,-749.79 403.6,-178.84 846.6,-269.07 1330.59,-269.07 474.16,0 915.5,90.23 1322.39,269.07 406.9,178.83 762.92,429.85 1069.73,749.79 305.17,319.94 543.07,695.65 713.69,1125.5 169,428.22 254.32,894.18 254.32,1397.87l0 109.92c0,506.96 -85.32,976.2 -254.32,1406.07 -170.62,431.49 -406.89,807.21 -712.05,1127.14 -303.53,321.58 -659.56,569.32 -1066.45,748.15 -406.89,177.2 -846.6,265.79 -1317.46,267.43zm0 -1279.73c352.74,0 654.64,-93.53 904.01,-283.84 249.38,-188.68 439.7,-452.83 570.96,-792.45 132.89,-339.62 198.53,-736.66 198.53,-1192.77l0 -119.77c0,-444.62 -67.26,-836.75 -200.17,-1174.73 -132.89,-337.98 -324.85,-602.13 -574.24,-790.81 -249.38,-188.68 -552.9,-283.84 -908.94,-283.84 -374.07,0 -680.88,93.53 -920.43,278.92 -237.89,185.4 -415.09,446.26 -531.58,784.24 -114.85,336.34 -172.27,731.75 -172.27,1186.22l0 119.77c0,456.11 59.06,853.15 175.55,1194.41 116.49,341.26 296.96,607.05 538.15,794.09 241.19,187.04 547.99,280.56 920.43,280.56zm4956.5 1178.01l0 -986.05 730.11 -152.58 0 -4552.89 -1081.2 0 -44.3 754.71 -1273.18 0 0 -2062.34 6503.67 0 0 2062.34 -1287.93 0 -39.38 -754.71 -1091.05 0 0 4552.89 731.73 152.58 0 986.05 -3148.47 0zm4315.01 0l0 -986.05 490.56 -72.19 2086.95 -5940.92 1826.08 0 2090.23 5940.92 490.56 72.19 0 986.05 -2615.25 0 0 -986.05 457.75 -85.32 -211.64 -759.64 -2249.38 0 -201.81 759.64 456.11 85.32 0 986.05 -2620.17 0zm2721.89 -3013.94l1532.4 0 -682.52 -2119.76 -77.11 -244.45 -27.89 0 -82.04 269.06 -662.84 2095.15zm4566.02 3013.94l0 -986.05 726.82 -152.58 0 -4715.33 -726.82 -154.23 0 -990.97 5589.81 0 0 2019.68 -1273.18 0 -37.74 -721.9 -1865.46 0 0 1437.24 2234.62 0 0 1292.86 -2234.62 0 0 1668.57 1955.7 0 39.38 -754.71 1258.41 0 0 2057.42 -5666.92 0zm6254.28 0l0 -986.05 720.26 -152.58 0 -4715.33 -720.26 -154.23 0 -990.97 720.26 0 2580.79 0 1693.19 4610.32 27.89 0 1643.97 -4610.32 3264.96 0 0 990.97 -726.82 154.23 0 4715.33 726.82 152.58 0 986.05 -3135.35 0 0 -986.05 754.71 -152.58 0 -913.86 39.38 -3292.85 -29.53 -4.92 -1980.31 5350.27 -1325.67 0 -2009.84 -5287.92 -34.45 4.92 116.49 2999.17 0 1145.2 812.13 152.58 0 986.05 -3138.62 0z"/>
  <path class="fil0" d="M3460.2 17513.39c-666.12,-1.64 -1261.69,-136.17 -1783.44,-405.24 -521.73,-269.07 -931.9,-657.92 -1230.5,-1169.8 -298.6,-511.9 -446.26,-1132.07 -446.26,-1862.18l0 -321.58c0,-674.32 136.17,-1268.24 410.17,-1786.7 274,-516.81 664.47,-922.07 1173.09,-1215.75 506.98,-293.68 1110.75,-439.7 1809.67,-439.7 487.28,0 949.96,63.98 1391.31,195.24 441.34,129.61 849.87,351.1 1228.86,664.47l0 1803.12 -1225.58 0 -169 -1033.63c-108.28,-73.83 -223.13,-137.81 -342.9,-191.96 -121.41,-54.15 -249.38,-96.79 -385.56,-124.7 -136.17,-29.53 -282.19,-44.3 -439.7,-44.3 -356.03,0 -666.12,85.32 -931.92,255.96 -265.79,168.98 -472.51,415.09 -618.53,736.66 -146.03,323.22 -218.22,712.07 -218.22,1171.45l0 331.43c0,428.21 75.47,805.58 226.41,1132.07 149.3,324.85 360.96,579.16 631.67,761.28 270.71,182.11 584.07,274 940.11,274 188.68,0 380.64,-19.7 575.88,-60.71 195.24,-39.38 385.56,-93.51 567.68,-160.78l167.36 -989.33 1230.5 0 0 1763.73c-277.28,191.96 -633.3,359.32 -1066.45,502.05 -433.13,142.74 -930.26,213.28 -1494.65,214.92zm5397.85 -101.72l0 -986.05 726.82 -152.58 0 -4715.33 -726.82 -154.23 0 -990.97 3138.62 0 0 990.97 -725.18 154.23 0 1768.65 2547.98 0 0 -1768.65 -726.81 -154.23 0 -990.97 726.81 0 1681.7 0 725.18 0 0 990.97 -725.18 154.23 0 4715.33 725.18 152.58 0 986.05 -3133.7 0 0 -986.05 726.81 -152.58 0 -1653.82 -2547.98 0 0 1653.82 725.18 152.58 0 986.05 -3138.62 0z"/>
  <path class="fil0" d="M16557.87 17411.67l0 -986.05 490.56 -72.19 2086.95 -5940.92 1826.08 0 2090.23 5940.92 490.56 72.19 0 986.05 -2615.25 0 0 -986.05 457.75 -85.32 -211.64 -759.64 -2249.38 0 -201.81 759.64 456.11 85.32 0 986.05 -2620.17 0zm2721.89 -3013.94l1532.4 0 -682.52 -2119.76 -77.11 -244.45 -27.89 0 -82.04 269.06 -662.84 2095.15zm6684.14 3013.94l0 -986.05 721.9 -152.58 0 -1432.31c-177.19,24.61 -357.66,45.93 -546.34,63.98 -187.04,18.04 -379,26.25 -574.24,26.25 -915.5,0 -1630.84,-195.24 -2146.02,-589 -513.53,-392.13 -771.13,-982.77 -771.13,-1770.31l0 -1013.94 -725.17 -154.23 0 -990.97 3133.7 0 0 990.97 -726.82 154.23 0 1013.94c0,406.9 96.81,687.45 292.05,843.31 193.59,155.87 508.6,232.98 943.39,232.98 164.06,0 349.47,-8.21 557.83,-26.25 208.37,-18.05 395.41,-41.02 562.75,-70.55l0 -1993.44 -721.9 -154.23 0 -990.97 3135.35 0 0 990.97 -731.75 154.23 0 4715.33 731.75 152.58 0 986.05 -3135.35 0zm3447.07 0l0 -986.05 490.56 -72.19 2086.95 -5940.92 1826.08 0 2090.23 5940.92 490.56 72.19 0 986.05 -2615.25 0 0 -986.05 457.75 -85.32 -211.64 -759.64 -2249.38 0 -201.81 759.64 456.11 85.32 0 986.05 -2620.17 0zm2721.89 -3013.94l1532.4 0 -682.52 -2119.76 -77.11 -244.45 -27.89 0 -82.04 269.06 -662.84 2095.15z"/>
  <path class="fil0" d="M44085.59 17411.67l0 -986.05 490.56 -72.19 2086.95 -5940.92 1826.08 0 2090.23 5940.92 490.56 72.19 0 986.05 -2615.25 0 0 -986.05 457.75 -85.32 -211.64 -759.64 -2249.38 0 -201.81 759.64 456.11 85.32 0 986.05 -2620.17 0zm2721.89 -3013.94l1532.4 0 -682.52 -2119.76 -77.11 -244.45 -27.89 0 -82.04 269.06 -662.84 2095.15zm6959.78 3013.94l0 -986.05 726.82 -152.58 0 -4715.33 -726.82 -154.23 0 -990.97 726.82 0 2441.34 0c881.04,0 1568.48,162.43 2062.33,485.64 493.85,323.22 739.95,805.58 739.95,1447.08 0,329.79 -78.75,625.11 -236.26,887.61 -155.87,260.87 -398.68,457.75 -725.18,592.28 278.92,62.36 506.98,165.71 682.52,310.09 175.56,146.02 305.17,323.22 388.85,529.94 83.68,206.73 124.7,429.86 124.7,669.41 0,685.81 -228.06,1204.26 -687.45,1553.73 -457.75,349.47 -1122.23,523.37 -1993.44,523.37l-3524.18 0zm2413.44 -1283.01l1110.75 0c333.06,0 584.09,-65.64 751.43,-196.88 169,-131.26 252.67,-331.41 252.67,-602.13 0,-201.81 -32.81,-369.16 -96.81,-502.05 -63.98,-132.9 -162.42,-231.34 -296.96,-296.96 -134.53,-65.62 -311.73,-98.45 -528.3,-98.45l-1192.78 0 0 1696.48zm0 -2812.13l682.52 0c397.05,0 694.01,-64 890.9,-190.32 198.53,-126.34 296.96,-323.22 296.96,-589.01 0,-290.4 -93.51,-503.68 -277.27,-636.58 -183.77,-132.9 -464.32,-198.53 -838.39,-198.53l-754.73 0 0 1614.44zm4123.04 4095.14l0 -986.05 726.82 -152.58 0 -4715.33 -726.82 -154.23 0 -990.97 5589.81 0 0 2019.68 -1273.18 0 -37.74 -721.9 -1865.46 0 0 1437.24 2234.62 0 0 1292.86 -2234.62 0 0 1668.57 1955.7 0 39.38 -754.71 1258.41 0 0 2057.42 -5666.92 0z"/>
  <path class="fil0" d="M73562.12 17411.67l0 -986.05 490.56 -72.19 2086.95 -5940.92 1826.08 0 2090.23 5940.92 490.56 72.19 0 986.05 -2615.25 0 0 -986.05 457.75 -85.32 -211.64 -759.64 -2249.38 0 -201.81 759.64 456.11 85.32 0 986.05 -2620.17 0zm2721.89 -3013.94l1532.4 0 -682.52 -2119.76 -77.11 -244.45 -27.89 0 -82.04 269.06 -662.84 2095.15z"/>
  <path class="fil0" d="M36700.9 17411.67l0 -1283.01 187.04 0c218.21,-29.53 397.04,-88.6 534.86,-178.84 137.81,-88.59 242.81,-228.06 316.64,-415.09 73.83,-187.04 123.05,-442.98 149.3,-766.19 24.62,-324.86 34.47,-736.67 27.9,-1235.44l-32.81 -1975.38 -726.82 -154.23 0 -990.97 6508.58 0 0 990.97 -725.17 154.23 0 4715.33 725.17 152.58 0 986.05 -3133.7 0 0 -986.05 725.18 -152.58 0 -4570.95 -1691.55 0 39.38 1831.01c6.57,692.37 -42.66,1283.01 -147.66,1775.22 -103.36,492.2 -260.87,892.54 -472.51,1202.63 -211.66,308.45 -474.16,536.51 -785.9,682.52 -313.36,146.02 -675.96,218.21 -1089.41,218.21l-408.53 0z"/>
  <path class="fil0" d="M66364.23 17411.67l0 -986.05 720.26 -152.58 0 -4715.33 -720.26 -154.23 0 -990.97 3071.36 0 0 990.97 -664.47 154.23 0 1532.4 544.7 0 1148.48 -1648.89c290.41,-410.17 569.32,-697.3 833.47,-859.71 264.15,-164.07 552.92,-246.11 867.92,-246.11 195.24,0 377.36,26.25 544.71,75.47 169,49.22 311.73,113.21 431.5,190.32l-293.69 1292.86c-57.42,-19.68 -109.92,-34.45 -159.13,-44.3 -47.58,-9.83 -96.81,-13.12 -149.3,-13.12 -127.98,0 -267.43,41.02 -420.02,124.68 -152.58,83.68 -328.15,251.03 -526.67,503.69l-840.02 1130.43 1691.54 2710.41 782.6 119.77 0 986.05 -3066.43 0 0 -986.05 318.3 -52.51 -4.92 -9.83 -933.56 -1701.4 -769.47 0 0 1611.16 664.47 152.58 0 986.05 -3071.36 0z"/>
 </g>
</svg>
