<?xml version="1.0" encoding="utf-8"?>
<!-- Generator: Adobe Illustrator 23.1.0, SVG Export Plug-In . SVG Version: 6.00 Build 0)  -->
<svg version="1.1" id="Capa_1" xmlns="http://www.w3.org/2000/svg" xmlns:xlink="http://www.w3.org/1999/xlink" x="0px" y="0px"
	 viewBox="0 0 264.7 264.7" style="enable-background:new 0 0 264.7 264.7;" xml:space="preserve">
<style type="text/css">
	.st0{fill:#FEED01;}
</style>
<g>
	<g>
		<g>
			<path class="st0" d="M219.2,216.8c-4.8,0-10.3,2.3-16.7,6.9l-35.2-13l35.7-13c6,3.9,11.6,5.8,16.7,5.8c5.6,0,9.3-2.9,11.1-8.7
				c0.4-1.2,0.5-2.6,0.5-4c0-7.4-4.8-11.4-14.3-11.9c3.9-3.9,5.8-7.7,5.8-11.4c0-3.9-2-7.1-6.1-9.8c-2.1-1-4.3-1.6-6.6-1.6
				c-7.8,0-13.1,6.3-15.9,18.8l-61.9,23l-61.9-22.5c-2.8-12.9-8.1-19.3-15.9-19.3c-2.3,0-4.5,0.5-6.6,1.6c-3.9,2.6-5.8,5.9-5.8,9.8
				c0,3.7,1.9,7.5,5.8,11.4c-9.7,0.5-14.6,4.5-14.6,11.9c0,1.4,0.2,2.7,0.5,4c1.9,5.8,5.7,8.7,11.1,8.7c5.1,0,10.7-1.9,16.7-5.8
				l36,13l-35.5,12.7c-6.2-4.4-11.6-6.6-16.4-6.6c-5.7,0-9.6,2.9-11.9,8.7c-0.3,1.2-0.5,2.6-0.5,4c0,7.4,4.9,11.4,14.6,11.9
				c-3.9,3.9-5.8,7.7-5.8,11.4c0,3.9,1.9,7.1,5.8,9.8c2.5,1.4,4.9,2.1,7.2,2.1c7.2,0,12.4-6.2,15.6-18.5l61.7-22.5l61.7,22.5
				c3.2,12.4,8.5,18.5,15.9,18.5c2.1,0,4.4-0.7,6.9-2.1c4.1-2.7,6.1-5.9,6.1-9.8c0-3.7-2-7.5-5.8-11.4c9.5-0.5,14.3-4.5,14.3-11.9
				c0-1.4-0.2-2.7-0.5-4C228.7,219.7,224.8,216.8,219.2,216.8z"/>
			<path class="st0" d="M48.4,128.9c9.7,11.1,23.4,19.2,41,24.3v4c0,4.9,1.7,9.1,5,12.4c3.3,3.4,7.5,5.2,12.4,5.6
				c5.1,0.4,8.9-0.5,11.4-2.6c3.9,2.8,8.2,4.2,13,4.2c4.4,0,8.5-1.3,12.2-4c2.5,1.9,6.1,2.7,10.9,2.4c4.9-0.5,9.1-2.4,12.4-5.7
				c3.4-3.3,5-7.4,5-12.3v-2.9c19.1-4.9,33.8-13.2,44.2-24.9c10.1-11.1,15.1-24.3,15.1-39.4c0-3.4-0.4-6.9-1.1-10.6
				c-3.5-22.6-13.9-41.2-31.2-55.8C180.6,7.9,158.5,0,132.3,0c-26.1,0-48.3,7.8-66.4,23.3c-17.3,14.8-27.6,33.5-31,56.1
				c-0.7,3.7-1.1,7.2-1.1,10.6C33.9,104.8,38.7,117.8,48.4,128.9L48.4,128.9z M152.9,60.7c5.2-6.1,11.5-9.1,18.9-9.1
				c7.6,0,14,3,19.2,9.1c5.2,6.1,7.8,13.4,7.8,22.1c0,8.6-2.6,16-7.8,22.1c-5.2,6.1-11.6,9.1-19.2,9.1c-7.4,0-13.7-3-18.9-9.1
				c-5.2-6.1-7.8-13.5-7.8-22.1C145.1,74.2,147.7,66.8,152.9,60.7z M124.8,121.4c2.6-3.3,5.1-5,7.5-5c2.5,0,4.8,1.8,7,5.5
				c2.2,3.7,3.3,7.1,3.3,10.5c0,5.1-3.4,7.6-10.1,7.6c-4.4,0-7.7-1.1-9.8-3.4c-1.2-1.4-1.8-3.1-1.8-5.2
				C121,128.1,122.2,124.8,124.8,121.4z M71.5,60.7c5.3-6.1,11.7-9.1,19.1-9.1c7.4,0,13.8,3,19.1,9.1c5.3,6.1,7.9,13.4,7.9,22.1
				c0,8.6-2.7,16-7.9,22.1c-5.3,6.1-11.7,9.1-19.1,9.1c-7.4,0-13.8-3-19.1-9.1c-5.3-6.1-7.9-13.5-7.9-22.1
				C63.5,74.2,66.2,66.8,71.5,60.7z"/>
		</g>
	</g>
</g>
</svg>
