<svg xmlns="http://www.w3.org/2000/svg" viewBox="0 0 248.01 155.8"><defs><style>.cls-1{fill:#1f1f1f;}</style></defs><title>Asset 1</title><g id="Layer_2" data-name="Layer 2"><g id="Layer_1-2" data-name="Layer 1"><path class="cls-1" d="M247.65,22.51c-.15-1.12-.29-1.8-.29-1.8-.34,0-1.1.44-2.08,1.43a28.63,28.63,0,0,0-3.48,4.59,59.81,59.81,0,0,0-4.12,8c-.6,1.35-1.15,2.82-1.72,4.4.09-.44.17-.87.24-1.27.15-.94.28-1.73.38-2.38s.15-1,.2-1.28c.05-.17.09-.35.13-.52.11-.43.22-.84.33-1.24.23-.8.49-1.54.75-2.23.56-1.4,1.07-2.67,1.63-4,.27-.68.56-1.37.79-2.12s.45-1.54.65-2.41a29.88,29.88,0,0,0,.72-6.33,23.47,23.47,0,0,0-.15-3.17,26.26,26.26,0,0,0-.44-2.94,35.48,35.48,0,0,0-1.41-4.88c-1.05-2.73-2-4.35-2.29-4.33s-1,1.77-1.76,4.52c-.36,1.38-.79,3-1.08,4.81-.14.89-.31,1.84-.42,2.81s-.16,2-.21,3c-.06,1.29-.06,2.44,0,3.48s.06,2,.16,2.84.2,1.65.34,2.39.25,1.43.4,2.1c.27,1.34.61,2.61.76,4a22.14,22.14,0,0,1,.17,2.26c0,.41,0,.83,0,1.26,0,.21,0,.43,0,.64s-.12.68-.2,1.14l-.41,2.35c-.11.54-.23,1.12-.37,1.75a33.38,33.38,0,0,0-.1-5.15,29.07,29.07,0,0,0-2-8.39,17.43,17.43,0,0,0-2.74-4.7c-.85-1-1.55-1.47-1.89-1.49,0,0-.22.58-.51,1.53s-.64,2.27-1,3.75c-.17.74-.32,1.53-.43,2.33a22.38,22.38,0,0,0-.27,2.45,14.43,14.43,0,0,0,.11,2.46,9.12,9.12,0,0,0,.58,2.34,14.33,14.33,0,0,0,1.15,2.29,10.54,10.54,0,0,0,1.23,1.62,18.36,18.36,0,0,0,2.45,2.07,5.79,5.79,0,0,1,1.83,2,5.93,5.93,0,0,1,.51,1.85l-.08.3c-.18.7-.35,1.44-.56,2.2l-.67,2.35c-.44,1.62-1,3.31-1.62,5.11-.27.9-.64,1.8-1,2.74l-.3.83a27.48,27.48,0,0,0,.45-4.7c0-.88,0-1.72-.07-2.52a27,27,0,0,0-1.26-6.21c-1.59-4.59-4-6.76-4.78-6.93,0,0-.31.52-.75,1.39s-1,2.07-1.58,3.45c-.13.35-.26.7-.39,1.07s-.26.73-.37,1.11a13.85,13.85,0,0,0-.54,2.33,9.86,9.86,0,0,0,.29,4.84,14.69,14.69,0,0,0,4.82,7,6.94,6.94,0,0,1,1.82,2.43,5.61,5.61,0,0,1,.35,1.76c-.41,1-.88,2-1.34,3-.23.51-.46,1-.71,1.54s-.51,1-.77,1.53c-.53,1-1,2.09-1.62,3.12s-1.19,2.17-1.82,3.25a29.7,29.7,0,0,0,.94-4.2,27,27,0,0,0,.2-4.92,23.88,23.88,0,0,0-.65-4.12c-1.28-5-3.71-7.57-4.63-7.92,0,0-.39.45-1,1.19-.3.38-.65.83-1,1.34s-.72,1.09-1.12,1.69A18.06,18.06,0,0,0,212,62.5a9.8,9.8,0,0,0-.4,2.36,8.7,8.7,0,0,0,.21,2.51,16.24,16.24,0,0,0,.91,2.76,14.69,14.69,0,0,0,1.14,2.17,31.27,31.27,0,0,0,2.48,3.22,7.8,7.8,0,0,1,1.71,2.9,5,5,0,0,1,.16,1.68q-1.5,2.31-3.17,4.6c-1.56,2.14-3.21,4.26-5,6.34.17-.36.33-.71.47-1.06s.36-.88.51-1.33.27-.88.38-1.32a22.23,22.23,0,0,0,.8-5A21.6,21.6,0,0,0,212,78c-.8-5.31-3.25-8.54-4.2-9.1,0,0-.49.34-1.2,1A29,29,0,0,0,204,72.41c-.23.27-.46.54-.68.83s-.46.58-.68.89a11.08,11.08,0,0,0-1.12,2,8.7,8.7,0,0,0-.71,4.9,17.59,17.59,0,0,0,1.64,5.54,39.59,39.59,0,0,0,2.26,3.89,9.46,9.46,0,0,1,1.47,3.4,5.33,5.33,0,0,1,0,1.55q-.72.78-1.47,1.56c-2.58,2.68-5.32,5.26-8.18,7.73l.37-.65a28.2,28.2,0,0,0,1.24-2.54,23.67,23.67,0,0,0,1.41-5,23.15,23.15,0,0,0,.28-4.54c0-.7-.08-1.37-.17-2s-.21-1.28-.34-1.87A20.65,20.65,0,0,0,198.4,85a15.87,15.87,0,0,0-1.07-2.18,5.07,5.07,0,0,0-.91-1.17l-.37.18c-.25.11-.6.28-1,.5s-.9.5-1.41.83-1,.72-1.61,1.13a12.88,12.88,0,0,0-3,3.26,8.14,8.14,0,0,0-.94,2.23,8.82,8.82,0,0,0-.32,2.7,21.19,21.19,0,0,0,.37,3.33,21.45,21.45,0,0,0,.73,2.82,46.22,46.22,0,0,0,1.92,4.59,11,11,0,0,1,1.16,3.88,5.61,5.61,0,0,1-.12,1.46A131.61,131.61,0,0,1,181,116.14l.24-.3a25.86,25.86,0,0,0,1.53-2.44A20.22,20.22,0,0,0,184,111a22.88,22.88,0,0,0,.82-2.46,24.38,24.38,0,0,0,.53-2.38c.13-.78.2-1.57.25-2.31a25,25,0,0,0-.08-4.19,23.32,23.32,0,0,0-.66-3.47,11.89,11.89,0,0,0-1.69-4,13.42,13.42,0,0,0-1.49.42A21.29,21.29,0,0,0,178.34,94c-2.42,1.37-4.94,3.53-5.23,7.78,0,.63-.06,1.27,0,1.85s.05,1.14.11,1.69a28.27,28.27,0,0,0,.5,3.12c.43,2,1,3.69,1.49,5.25a21.69,21.69,0,0,1,.57,2.24,9.48,9.48,0,0,1,.14,2.11,6.29,6.29,0,0,1-.24,1.34l-.42.24-1.8,1c-.55.31-1.18.63-1.77.95-2.38,1.28-4.79,2.42-7.17,3.53l-.4.17a21.09,21.09,0,0,0,3.29-4.71,21.72,21.72,0,0,0,1.08-2.43c.3-.82.55-1.63.76-2.44.11-.4.2-.8.28-1.19l0-.07s-.24.13-.13.06h0v-.06l0-.15.06-.3.12-.61a34,34,0,0,0,.51-4.57A17,17,0,0,0,170,105a14.5,14.5,0,0,0-1.37-4.52,11.06,11.06,0,0,0-1.44.1l-.35,0-.46.1c-.31.08-.65.16-1,.26a19.24,19.24,0,0,0-2.21.75l-.57.25-.29.14-.14.07h0l.33-.19h0l0,0-.06,0a7.86,7.86,0,0,0-1,.5,8.6,8.6,0,0,0-1.75,1.41,7.39,7.39,0,0,0-1.39,2,9.77,9.77,0,0,0-.85,2.85,28.18,28.18,0,0,0-.18,7.22c.2,2.15.61,4.08.92,5.81.39,2.23.62,4.15,0,5.92-2.64,1-5.27,2-7.85,2.78-1.44.47-2.87.9-4.27,1.31a21.12,21.12,0,0,0,1.88-1.91,24,24,0,0,0,5-9.56c1.71-6.47.74-12.26.08-13.8a14.74,14.74,0,0,0-1.55-.14,15.29,15.29,0,0,0-3.52.26c-2.64.55-5.56,2-6.88,6.7a27.22,27.22,0,0,0-.84,4,28.33,28.33,0,0,0-.3,3.69c0,2.35.14,4.47.26,6.37.15,2.36.19,4.39-.55,6.16-5.28,1.41-10.13,2.63-14.35,4.16l-1.18.4c-.38-.14-.77-.27-1.17-.4-4.22-1.53-9.07-2.75-14.35-4.16-.74-1.77-.7-3.8-.55-6.16.12-1.9.31-4,.26-6.37a28.33,28.33,0,0,0-.3-3.69,27.22,27.22,0,0,0-.84-4c-1.32-4.66-4.24-6.15-6.88-6.7a15.29,15.29,0,0,0-3.52-.26,14.74,14.74,0,0,0-1.55.14c-.66,1.54-1.63,7.33.08,13.8a24,24,0,0,0,5,9.56,21.12,21.12,0,0,0,1.88,1.91c-1.4-.41-2.83-.84-4.27-1.31-2.58-.82-5.21-1.75-7.85-2.78-.65-1.77-.42-3.69,0-5.92.31-1.73.71-3.66.92-5.81a28.18,28.18,0,0,0-.18-7.22,9.77,9.77,0,0,0-.85-2.85,7.61,7.61,0,0,0-1.39-2,8.6,8.6,0,0,0-1.75-1.41,7.86,7.86,0,0,0-1-.5l-.06,0,0,0h0l.32.19h0l-.14-.07-.29-.14-.57-.25a19.24,19.24,0,0,0-2.21-.75c-.34-.1-.68-.18-1-.26l-.46-.1-.35,0a11.06,11.06,0,0,0-1.44-.1A14.5,14.5,0,0,0,78.06,105a16.47,16.47,0,0,0-.17,3.87,34,34,0,0,0,.51,4.57l.12.61.06.3,0,.15v.06h0c.11.07-.16-.08-.13-.06l0,.07c.08.39.17.79.28,1.19a23.55,23.55,0,0,0,.76,2.44,21.72,21.72,0,0,0,1.08,2.43,21.09,21.09,0,0,0,3.29,4.71l-.4-.17c-2.38-1.11-4.8-2.25-7.17-3.53-.59-.32-1.22-.64-1.77-.95l-1.8-1-.42-.24a6.29,6.29,0,0,1-.24-1.34,8.92,8.92,0,0,1,.14-2.11,21.69,21.69,0,0,1,.57-2.24c.47-1.56,1.06-3.28,1.49-5.25a28.27,28.27,0,0,0,.5-3.12c0-.55.09-1.11.11-1.69s0-1.22,0-1.85c-.29-4.25-2.81-6.41-5.23-7.78a21.29,21.29,0,0,0-3.32-1.41,13.42,13.42,0,0,0-1.49-.42,11.47,11.47,0,0,0-1.69,4,23.32,23.32,0,0,0-.66,3.47,25,25,0,0,0-.08,4.19,21.14,21.14,0,0,0,.25,2.31,24.38,24.38,0,0,0,.53,2.38A22.88,22.88,0,0,0,64,111a20.22,20.22,0,0,0,1.17,2.45,25.86,25.86,0,0,0,1.53,2.44l.24.3a131.61,131.61,0,0,1-10.79-7.56,5.61,5.61,0,0,1-.12-1.46,11,11,0,0,1,1.16-3.88,48.73,48.73,0,0,0,1.92-4.59,21.45,21.45,0,0,0,.73-2.82,21.19,21.19,0,0,0,.37-3.33,8.82,8.82,0,0,0-.32-2.7A8.46,8.46,0,0,0,59,87.57a12.73,12.73,0,0,0-3-3.26c-.56-.41-1.09-.8-1.6-1.13s-1-.61-1.41-.83-.76-.39-1-.5l-.37-.18a5.07,5.07,0,0,0-.91,1.17A14.79,14.79,0,0,0,49.61,85a20.65,20.65,0,0,0-.94,3.11c-.14.59-.25,1.21-.34,1.87s-.14,1.32-.17,2a23.15,23.15,0,0,0,.28,4.54,23.67,23.67,0,0,0,1.41,5,25.76,25.76,0,0,0,1.24,2.54l.37.65c-2.86-2.47-5.6-5-8.18-7.73q-.75-.78-1.47-1.56a5.33,5.33,0,0,1,0-1.55,9.46,9.46,0,0,1,1.47-3.4,39.59,39.59,0,0,0,2.26-3.89A17.59,17.59,0,0,0,47.2,81a8.62,8.62,0,0,0-.72-4.9,10.47,10.47,0,0,0-1.11-2c-.22-.31-.44-.6-.68-.89s-.45-.56-.68-.83a29,29,0,0,0-2.62-2.52c-.71-.61-1.2-1-1.2-1-.95.56-3.41,3.79-4.2,9.1a22.75,22.75,0,0,0,.6,9.29c.11.44.24.88.38,1.32s.33.88.51,1.33.3.7.46,1.06c-1.75-2.08-3.4-4.2-5-6.34q-1.66-2.3-3.18-4.6A5.3,5.3,0,0,1,30,78.42a7.8,7.8,0,0,1,1.71-2.9,31.27,31.27,0,0,0,2.48-3.22,14.69,14.69,0,0,0,1.14-2.17,16.24,16.24,0,0,0,.91-2.76,8.35,8.35,0,0,0,.2-2.51A9.32,9.32,0,0,0,36,62.5a18.06,18.06,0,0,0-1.92-4.14c-.4-.6-.76-1.18-1.12-1.69s-.71-1-1-1.34c-.61-.74-1-1.19-1-1.19-.92.35-3.35,3-4.63,7.92a23.88,23.88,0,0,0-.65,4.12,27,27,0,0,0,.2,4.92,28.37,28.37,0,0,0,.94,4.2c-.64-1.08-1.24-2.17-1.82-3.25S23.92,70,23.39,68.93c-.26-.51-.52-1-.77-1.53s-.48-1-.71-1.54c-.46-1-.93-2-1.34-3a5.61,5.61,0,0,1,.35-1.76,6.94,6.94,0,0,1,1.82-2.43,14.69,14.69,0,0,0,4.82-7,9.86,9.86,0,0,0,.29-4.84,13.85,13.85,0,0,0-.54-2.33c-.11-.38-.24-.75-.38-1.11s-.25-.72-.38-1.07C26,41,25.38,39.83,25,39s-.75-1.39-.75-1.39c-.8.17-3.19,2.34-4.78,6.93a27,27,0,0,0-1.26,6.21c-.05.8-.08,1.64-.07,2.52a27.48,27.48,0,0,0,.45,4.7c-.1-.28-.2-.56-.31-.83-.33-.94-.7-1.84-1-2.74-.59-1.8-1.18-3.49-1.62-5.11L15,46.89c-.21-.76-.38-1.5-.56-2.2l-.08-.3a5.93,5.93,0,0,1,.51-1.85,5.79,5.79,0,0,1,1.83-2,18.36,18.36,0,0,0,2.45-2.07,10.52,10.52,0,0,0,1.22-1.62,13.53,13.53,0,0,0,1.16-2.29,9.12,9.12,0,0,0,.58-2.34,14.43,14.43,0,0,0,.11-2.46,22.38,22.38,0,0,0-.27-2.45c-.11-.8-.26-1.59-.43-2.33-.37-1.48-.72-2.8-1-3.75S20,19.66,20,19.66c-.35,0-1,.49-1.89,1.49a17.43,17.43,0,0,0-2.74,4.7,29.07,29.07,0,0,0-2,8.39,33.38,33.38,0,0,0-.1,5.15c-.14-.63-.26-1.21-.37-1.75l-.41-2.35c-.08-.46-.14-.84-.2-1.14s0-.43-.05-.64c0-.43,0-.85,0-1.26,0-.81.08-1.55.16-2.26.15-1.41.5-2.68.77-4,.15-.67.28-1.36.4-2.1s.26-1.53.34-2.39.11-1.79.16-2.84,0-2.19,0-3.48c-.05-1-.09-2-.21-3s-.29-1.92-.42-2.81c-.3-1.8-.72-3.43-1.09-4.81C11.55,1.77,10.79,0,10.52,0S9.28,1.6,8.22,4.33a37,37,0,0,0-1.4,4.88,26.26,26.26,0,0,0-.44,2.94,25.2,25.2,0,0,0-.16,3.17A30.47,30.47,0,0,0,7,21.65c.19.87.42,1.67.65,2.41s.52,1.44.79,2.12c.55,1.35,1.07,2.62,1.63,4,.26.69.52,1.43.75,2.23.11.4.21.81.32,1.24.05.17.09.35.14.52,0,.32.12.75.2,1.28s.23,1.44.38,2.38c.07.4.15.83.24,1.27-.57-1.58-1.12-3-1.72-4.4a59.81,59.81,0,0,0-4.12-8,28.63,28.63,0,0,0-3.48-4.59c-1-1-1.74-1.45-2.08-1.43,0,0-.14.68-.29,1.8A33,33,0,0,0,0,27c0,.88,0,1.81.07,2.77a21.68,21.68,0,0,0,.42,2.86,15.74,15.74,0,0,0,.81,2.74,11.69,11.69,0,0,0,1.37,2.39A10.66,10.66,0,0,0,6.38,41,14.58,14.58,0,0,0,9.46,42a5.74,5.74,0,0,1,3.7,2.42c0,.19.08.37.13.56.17.71.32,1.46.53,2.24s.42,1.56.64,2.39c.42,1.65,1,3.38,1.54,5.22.27.92.63,1.83.95,2.79,0,.1.07.19.1.29-.77-1.31-1.58-2.51-2.33-3.64-.51-.74-1-1.44-1.54-2.1s-1-1.3-1.49-1.89c-1-1.2-2-2.23-2.87-3.16-3.66-3.67-6.62-5.19-7.46-5,0,0-.06.71-.08,1.88a32.92,32.92,0,0,0,.28,4.58q.09.68.21,1.38c.09.47.2.94.31,1.41A23.74,23.74,0,0,0,3,54.22,12.22,12.22,0,0,0,6.29,59,12.08,12.08,0,0,0,11,61.43a17,17,0,0,0,3.68.4,7.6,7.6,0,0,1,3,.6,5.68,5.68,0,0,1,1.33.9l.09.24c.42,1,.88,2,1.33,3.08.23.52.44,1,.69,1.57s.51,1,.76,1.58c.51,1.06,1,2.15,1.59,3.21s1,1.89,1.51,2.83c-.93-1-1.85-2-2.8-2.84a43.67,43.67,0,0,0-3.91-3.33,42.91,42.91,0,0,0-3.66-2.54c-1.18-.71-2.25-1.31-3.26-1.8A23,23,0,0,0,8.68,64.2a6.31,6.31,0,0,0-3.23-.49,17.2,17.2,0,0,0,.2,1.92c.09.59.21,1.29.37,2.07a19.84,19.84,0,0,0,.64,2.52A20.57,20.57,0,0,0,9.12,75.6,14,14,0,0,0,11,77.94a10.1,10.1,0,0,0,2.48,1.72,14.07,14.07,0,0,0,3,1.11,12.49,12.49,0,0,0,2.59.3,20.87,20.87,0,0,0,4.11-.47,8.9,8.9,0,0,1,3.4-.11,5.69,5.69,0,0,1,1.43.5l1.14,1.81c.69,1.1,1.46,2.17,2.2,3.27,1.43,2.05,2.95,4.09,4.55,6.1l-.64-.46-1.22-.8-1.19-.76a51.62,51.62,0,0,0-4.66-2.45c-1.5-.7-3-1.22-4.34-1.7a31.93,31.93,0,0,0-7-1.55,7.54,7.54,0,0,0-3.64.25s.14.74.49,1.92a27.62,27.62,0,0,0,1.78,4.45c.21.42.44.86.68,1.28s.53.85.82,1.26A20,20,0,0,0,19,96a11.41,11.41,0,0,0,5.34,3.11c5.06,1.08,8.05-.38,10.59-1.39a10.55,10.55,0,0,1,3.63-.94,5.73,5.73,0,0,1,1.4.14c.56.64,1.13,1.28,1.72,1.91q3.66,4,7.73,7.69l-.36-.17c-.91-.4-1.82-.75-2.72-1a38.22,38.22,0,0,0-5.21-1.45,40.16,40.16,0,0,0-4.79-.73c-.76-.07-1.5-.11-2.2-.14s-1.38,0-2,0a28.93,28.93,0,0,0-3.47.24,9.45,9.45,0,0,0-3.89,1.15s.06.19.2.51.33.77.61,1.33.61,1.21,1,1.93A20.85,20.85,0,0,0,28,110.35a17.66,17.66,0,0,0,4.33,4.24A12.64,12.64,0,0,0,35.18,116a10.65,10.65,0,0,0,3.22.53,17.18,17.18,0,0,0,3.63-.37,15.61,15.61,0,0,0,2.92-1,31.87,31.87,0,0,0,4.37-2.51A12,12,0,0,1,53,110.91a6,6,0,0,1,1.28-.17c3.43,2.84,7,5.49,10.68,8l-.06,0c-1-.24-1.94-.42-2.89-.56s-1.91-.22-2.82-.3-1.82-.11-2.71-.11-1.76,0-2.61.09-1.65.11-2.44.21a35.44,35.44,0,0,0-4.42.78,30.17,30.17,0,0,0-3.58,1,10.75,10.75,0,0,0-3.93,2.07s.36.69,1.06,1.74a23.1,23.1,0,0,0,3.1,3.76c2.7,2.69,6.75,5.16,11.41,4.22.7-.14,1.34-.31,2-.5a15.39,15.39,0,0,0,1.78-.64,17.17,17.17,0,0,0,2.93-1.59,32.81,32.81,0,0,0,4.19-3.53,15,15,0,0,1,3.51-2.67,6.42,6.42,0,0,1,1.09-.4l.82.5,1.77,1.07,1.84,1.05c2.33,1.33,4.7,2.55,7.06,3.71a42.92,42.92,0,0,0-13.59,1.81,33.58,33.58,0,0,0-4.24,1.79c-1.28.64-2.38,1.35-3.45,1.91a12.41,12.41,0,0,0-3.83,2.95,21.33,21.33,0,0,0,1.37,1.68l.66.74c.21.24.45.49.7.74a19.47,19.47,0,0,0,1.74,1.56l.5.37.26.19.13.09.37.21,0,0,.08,0c.43.26.88.51,1.34.75a13.52,13.52,0,0,0,3,1.13,11.51,11.51,0,0,0,3.28.35,11.07,11.07,0,0,0,3.47-.76c5.6-2.28,8.09-5.95,10.27-8.73a13.22,13.22,0,0,1,4.2-4c2.85,1.22,5.67,2.31,8.44,3.28,1.29.46,2.54.87,3.76,1.25-.82.11-1.63.25-2.42.42a40.48,40.48,0,0,0-10.61,4.05,46,46,0,0,0-7.71,5.24,14.63,14.63,0,0,0-3.53,3.88,18.6,18.6,0,0,0,1.52,1.47,21.92,21.92,0,0,0,4.11,2.85c3.45,1.84,8.13,2.95,12.49.07a22.7,22.7,0,0,0,3.36-2.72,24.22,24.22,0,0,0,2.45-2.88,50.52,50.52,0,0,0,3.34-5.48c1.18-2.11,2.27-3.86,3.89-5,3.92,1,7.45,1.83,10.74,3a23.33,23.33,0,0,0-9.44,9c-1,3.41,5.32,6.91,5.46,5.76A23.23,23.23,0,0,1,124,143.53a23.25,23.25,0,0,1,9.9,12.05c.14,1.15,6.47-2.35,5.46-5.76a23.33,23.33,0,0,0-9.44-9c3.29-1.12,6.82-1.94,10.74-3,1.62,1.12,2.7,2.87,3.89,5a50.52,50.52,0,0,0,3.34,5.48,24.22,24.22,0,0,0,2.45,2.88A22.7,22.7,0,0,0,153.7,154c4.36,2.88,9,1.77,12.49-.07a21.92,21.92,0,0,0,4.11-2.85,18.6,18.6,0,0,0,1.52-1.47,14.63,14.63,0,0,0-3.53-3.88,46,46,0,0,0-7.71-5.24A40.48,40.48,0,0,0,150,136.41c-.8-.17-1.6-.31-2.42-.42,1.22-.38,2.47-.79,3.76-1.25,2.76-1,5.59-2.06,8.44-3.28a13.2,13.2,0,0,1,4.19,4c2.19,2.78,4.68,6.45,10.28,8.73a11.07,11.07,0,0,0,3.47.76,11.55,11.55,0,0,0,3.28-.35,13.52,13.52,0,0,0,3-1.13c.46-.24.91-.49,1.34-.75l.08,0,0,0,.37-.21.13-.09.26-.19.5-.37a19.47,19.47,0,0,0,1.74-1.56c.25-.25.48-.5.7-.74l.66-.74a21.33,21.33,0,0,0,1.37-1.68,12.37,12.37,0,0,0-3.84-2.95c-1.06-.56-2.16-1.27-3.44-1.91a34.22,34.22,0,0,0-4.24-1.79A42.92,42.92,0,0,0,166,128.61c2.36-1.16,4.73-2.38,7.06-3.71l1.84-1.05,1.77-1.07.82-.5a6.42,6.42,0,0,1,1.09.4,15,15,0,0,1,3.51,2.67,32.81,32.81,0,0,0,4.19,3.53,17.17,17.17,0,0,0,2.93,1.59,15.39,15.39,0,0,0,1.78.64c.63.19,1.27.36,2,.5,4.67.94,8.72-1.53,11.42-4.22a23.1,23.1,0,0,0,3.1-3.76c.7-1,1.06-1.74,1.06-1.74a10.75,10.75,0,0,0-3.93-2.07,30.17,30.17,0,0,0-3.58-1,35.44,35.44,0,0,0-4.42-.78c-.79-.1-1.6-.16-2.45-.21s-1.71-.09-2.6-.09-1.79,0-2.71.11-1.87.15-2.82.3-1.92.32-2.89.56l-.06,0c3.67-2.47,7.25-5.12,10.68-8a6,6,0,0,1,1.28.17,12,12,0,0,1,3.65,1.79,31.87,31.87,0,0,0,4.37,2.51,15.61,15.61,0,0,0,2.92,1,17.18,17.18,0,0,0,3.63.37,10.65,10.65,0,0,0,3.22-.53,12.64,12.64,0,0,0,2.81-1.44,17.83,17.83,0,0,0,4.33-4.24,20.85,20.85,0,0,0,1.47-2.24c.41-.72.75-1.37,1-1.93s.48-1,.61-1.33.2-.51.2-.51a9.45,9.45,0,0,0-3.89-1.15,28.93,28.93,0,0,0-3.47-.24c-.64,0-1.32,0-2,0s-1.44.07-2.2.14a40.16,40.16,0,0,0-4.79.73,38.22,38.22,0,0,0-5.21,1.45c-.9.3-1.81.65-2.72,1l-.36.17c2.7-2.47,5.29-5,7.73-7.69.59-.63,1.16-1.27,1.72-1.91a5.73,5.73,0,0,1,1.4-.14,10.55,10.55,0,0,1,3.63.94c2.54,1,5.53,2.47,10.59,1.39A11.41,11.41,0,0,0,229,96,20,20,0,0,0,231,93.61c.29-.41.56-.84.82-1.26s.47-.86.68-1.28a27.62,27.62,0,0,0,1.78-4.45c.34-1.18.49-1.92.49-1.92a7.54,7.54,0,0,0-3.64-.25,32.12,32.12,0,0,0-7,1.55c-1.34.48-2.84,1-4.33,1.7a51.62,51.62,0,0,0-4.66,2.45l-1.19.76-1.22.8-.64.46c1.6-2,3.12-4,4.55-6.1.74-1.1,1.51-2.17,2.2-3.27L219.93,81a5.89,5.89,0,0,1,1.44-.5,8.9,8.9,0,0,1,3.4.11,20.87,20.87,0,0,0,4.11.47,12.49,12.49,0,0,0,2.59-.3,14.27,14.27,0,0,0,3-1.11A10.1,10.1,0,0,0,237,77.94a14,14,0,0,0,1.92-2.34,20.57,20.57,0,0,0,2.46-5.38A19.84,19.84,0,0,0,242,67.7c.16-.78.28-1.48.37-2.07a17.2,17.2,0,0,0,.2-1.92,6.31,6.31,0,0,0-3.23.49,23,23,0,0,0-2.74,1.13c-1,.49-2.08,1.09-3.27,1.8s-2.38,1.57-3.65,2.54A45.19,45.19,0,0,0,225.75,73c-.94.86-1.86,1.82-2.79,2.84.52-.94,1-1.9,1.51-2.83s1.08-2.15,1.59-3.21c.25-.53.51-1,.76-1.58s.46-1,.69-1.57c.45-1,.91-2.06,1.33-3.08l.09-.24a5.68,5.68,0,0,1,1.33-.9,7.6,7.6,0,0,1,3-.6,17.09,17.09,0,0,0,3.68-.4A12.08,12.08,0,0,0,241.72,59a12.22,12.22,0,0,0,3.3-4.74,22,22,0,0,0,.9-2.82c.12-.47.23-.94.32-1.41s.15-.93.21-1.38a32.92,32.92,0,0,0,.28-4.58c0-1.17-.08-1.88-.08-1.88-.84-.18-3.81,1.34-7.46,5-.89.93-1.9,2-2.88,3.16-.49.59-1,1.23-1.48,1.89s-1,1.36-1.54,2.1c-.75,1.13-1.56,2.33-2.33,3.64,0-.1.06-.19.1-.29.32-1,.68-1.87.95-2.79.55-1.84,1.12-3.57,1.54-5.22.22-.83.44-1.62.64-2.39s.36-1.53.53-2.24c.05-.19.09-.37.13-.56A5.75,5.75,0,0,1,238.54,42,14.45,14.45,0,0,0,241.63,41a10.66,10.66,0,0,0,3.71-3.23,12.17,12.17,0,0,0,1.37-2.39,15.74,15.74,0,0,0,.81-2.74,21.68,21.68,0,0,0,.42-2.86c.06-1,.08-1.89.07-2.77A33,33,0,0,0,247.65,22.51Zm-233.44,15a36.13,36.13,0,0,1,1.56-4.68C17,30,18.15,28,18.48,27A9.77,9.77,0,0,1,18,30.7a17.12,17.12,0,0,1-.71,1.91c-.25.65-.54,1.3-.83,2-1.23,2.66-2.56,5.48-2.79,8.19A19.52,19.52,0,0,1,14.21,37.52Zm-3.16-6.69c-.2-1-.42-2.13-.59-3.39-.08-.63-.18-1.29-.27-2S10,24.12,10,23.42c-.13-1.39-.26-2.81-.33-4.19s-.08-2.72-.08-3.93a20.41,20.41,0,0,1,.54-5.22,22.2,22.2,0,0,1,.59,5.2c.08,1.2.14,2.52.18,3.89S11,22,11,23.34c0,.7.07,1.38.11,2.06s.08,1.32.11,2c.05,1.26.15,2.42.22,3.41s.12,1.82.16,2.39c0,.28,0,.5,0,.65l0,.24-.05-.23c0-.15-.09-.36-.15-.65C11.4,32.61,11.24,31.81,11.05,30.83ZM7.39,36.07c-.5-.57-1-1.16-1.46-1.75a20.24,20.24,0,0,1-1.2-1.81,9.88,9.88,0,0,1-1.39-3.82c.45.92,2.21,2.89,4.13,5.4,1,1.25,2.07,2.63,3,4.11a24.46,24.46,0,0,1,2.57,4.71C11.76,40.54,9.38,38.39,7.39,36.07ZM19.56,56.28a27.28,27.28,0,0,1,1.22-5c.26-.75.51-1.46.77-2.11s.53-1.26.76-1.79a21.43,21.43,0,0,0,.93-2.35,7.9,7.9,0,0,1-.15,3.69,29.84,29.84,0,0,1-1.32,4.15c-.28.72-.55,1.45-.8,2.19s-.51,1.48-.72,2.22a13.21,13.21,0,0,0-.63,4.33A14.92,14.92,0,0,1,19.35,59,21.68,21.68,0,0,1,19.56,56.28Zm-4,2.76c-.64-.46-1.32-.91-2-1.36s-1.38-.91-2-1.39a25.82,25.82,0,0,1-3.61-3,9.89,9.89,0,0,1-2.17-3.57A21.75,21.75,0,0,0,7.82,51.5l1.62,1.29,1.9,1.48c1.32,1.06,2.7,2.23,4.05,3.49a23.78,23.78,0,0,1,1.9,2,18.61,18.61,0,0,1,1.65,2.15A20.13,20.13,0,0,0,15.53,59Zm12.34,14.8a29.83,29.83,0,0,1,.75-5.29c.41-1.64.88-3.1,1.25-4.26s.73-2.06.81-2.55A6,6,0,0,1,31,63.48a10,10,0,0,1-.08,2,42.21,42.21,0,0,1-1,4.46c-.86,3.15-1.78,6.57-1.32,9.34a12.29,12.29,0,0,1-.6-2.65A16.72,16.72,0,0,1,27.87,73.84Zm-4.09,3.74-2.4-.91q-1.21-.45-2.43-.93a23,23,0,0,1-4.43-2.24,11.9,11.9,0,0,1-1.75-1.42,7.38,7.38,0,0,1-1.22-1.7,18.37,18.37,0,0,0,2.6,1.37c1.23.56,2.73,1.23,4.33,2a52.06,52.06,0,0,1,5,2.57,26.3,26.3,0,0,1,2.38,1.55,17.13,17.13,0,0,1,2.07,1.8A17.56,17.56,0,0,0,23.78,77.58ZM39,86.81c0-.94.13-1.86.24-2.74s.25-1.72.39-2.49.32-1.51.47-2.15a24.42,24.42,0,0,0,.56-2.77,6.55,6.55,0,0,1,.67,3.69,34.48,34.48,0,0,1-.56,4.79c-.52,3.39-1.15,7.17-.29,9.88a13.15,13.15,0,0,1-1-2.56,18.69,18.69,0,0,1-.44-2.81A20.72,20.72,0,0,1,39,86.81Zm-9.31,7a27.69,27.69,0,0,1-5.11-1.22,8.59,8.59,0,0,1-3.65-2.48,21.68,21.68,0,0,0,3,.77l2.3.47c.85.16,1.75.33,2.67.52s1.87.41,2.82.65,1.93.49,2.86.79a23,23,0,0,1,2.71,1,13.71,13.71,0,0,1,2.45,1.34C37.15,94.49,33.33,94.32,29.68,93.77ZM52.62,92.5a30.15,30.15,0,0,0,.3-3,4.86,4.86,0,0,1,.77,1.6A9.5,9.5,0,0,1,54,93.15,49.32,49.32,0,0,1,54,98.26c0,.91-.09,1.85-.12,2.79s0,1.89,0,2.78a14.19,14.19,0,0,0,.92,4.81,14.23,14.23,0,0,1-2.09-5.28,29.29,29.29,0,0,1-.45-5.85C52.29,95.62,52.47,93.89,52.62,92.5Zm-3.48,16.78c-1.86.15-3.81.36-5.77.51a25.19,25.19,0,0,1-5.52-.08,11,11,0,0,1-2.34-.58A5.88,5.88,0,0,1,33.66,108a19.23,19.23,0,0,0,3.31.08c1.52,0,3.39-.12,5.36-.13a52.59,52.59,0,0,1,6.14.17,17.08,17.08,0,0,1,5.65,1.31A16.74,16.74,0,0,0,49.14,109.28Zm19.46-5.55c.13.8.23,1.65.31,2.55s.13,1.87.18,2.85.1,2,.16,3,.16,1.95.29,2.89a20.65,20.65,0,0,0,.54,2.67c.12.42.25.82.4,1.2a9,9,0,0,0,.52,1,10.14,10.14,0,0,1-1.6-2.35,17.41,17.41,0,0,1-1.1-2.79,23,23,0,0,1-.69-3c-.17-1-.3-2-.38-3,0-.5-.08-1-.1-1.46s0-.95,0-1.4c0-.91,0-1.75,0-2.5a30.14,30.14,0,0,0,0-3.21A6.2,6.2,0,0,1,68.6,103.73ZM69.26,121c-.39,0-.81.09-1.23.16-.86.15-1.76.37-2.71.63s-1.93.55-2.93.86l-3,.86c-1,.27-2,.52-2.94.72a19.38,19.38,0,0,1-2.77.39,8,8,0,0,1-4.54-.84,24.71,24.71,0,0,0,3.46-.67l5.52-1.29a51.69,51.69,0,0,1,6.33-1.1,23.57,23.57,0,0,1,3.1-.14,14.88,14.88,0,0,1,2.83.37A9.24,9.24,0,0,0,69.26,121Zm14.37-3.34c-.35-2.09-.54-4-.67-5.64a32.59,32.59,0,0,0-.32-3.41,6.35,6.35,0,0,1,1.89,3.53c.21.8.39,1.7.55,2.65s.31,1.94.46,3c.59,4.11,1.31,8.62,3.11,11.07C85.84,126.36,84.35,121.73,83.63,117.61Zm-6.31,17.12c-1,.48-2,.93-2.93,1.32a21.24,21.24,0,0,1-2.8.92,7.47,7.47,0,0,1-4.74,0,26.45,26.45,0,0,0,3.46-1.33c1.57-.69,3.49-1.57,5.52-2.43a60.89,60.89,0,0,1,6.32-2.36,17.17,17.17,0,0,1,6-.88C85.18,130.38,81.25,132.83,77.32,134.73ZM101.05,124c-1.25-4.31-1.72-8.24-2.12-9.46,1.94,1.08,2.92,5,4.06,9.24s2.37,9,4.4,11.33C104.35,132.9,102.29,128.24,101.05,124Zm-4.29,19.33c-3.66,2.77-7.4,5-10.18,4.33,1.32-.57,4.68-3.11,8.53-5.71s8.19-5.3,11.91-5.54C104.06,137.28,100.43,140.54,96.76,143.29ZM145,123.74c1.15-4.28,2.13-8.16,4.07-9.24-.4,1.22-.87,5.15-2.12,9.46s-3.3,8.94-6.34,11.11C142.65,132.73,143.89,128,145,123.74Zm7.89,18.17c3.85,2.6,7.21,5.14,8.53,5.71-2.79.66-6.52-1.56-10.18-4.33s-7.3-6-10.26-6.92C144.71,136.61,149,139.32,152.9,141.91Zm9.57-24.2c.15-1,.3-2,.46-3s.34-1.85.55-2.65a6.35,6.35,0,0,1,1.89-3.53c-.14.59-.2,1.81-.33,3.41s-.31,3.55-.67,5.64c-.71,4.12-2.2,8.75-5,11.17C161.16,126.33,161.88,121.82,162.47,117.71Zm9.71,15.46c2,.86,3.95,1.74,5.52,2.43a26.45,26.45,0,0,0,3.46,1.33,7.49,7.49,0,0,1-4.75,0,21.61,21.61,0,0,1-2.79-.92c-1-.39-2-.84-2.93-1.32-3.93-1.9-7.86-4.35-10.85-4.8a17.2,17.2,0,0,1,6,.88A60.89,60.89,0,0,1,172.18,133.17Zm5.35-14.29c.15-.38.28-.78.4-1.2a22.49,22.49,0,0,0,.54-2.67c.13-.94.22-1.92.29-2.89s.11-2,.16-3,.11-1.94.18-2.85.18-1.75.31-2.55a6.2,6.2,0,0,1,1.55-3.6,30.14,30.14,0,0,0,0,3.21c0,.75,0,1.59,0,2.5,0,.45,0,.92,0,1.4s-.06,1-.1,1.46c-.09,1-.21,2-.38,3a23,23,0,0,1-.69,3,18.39,18.39,0,0,1-1.1,2.79,10.14,10.14,0,0,1-1.6,2.35A9,9,0,0,0,177.53,118.88Zm6,1.79a51.69,51.69,0,0,1,6.33,1.1l5.52,1.29a24.71,24.71,0,0,0,3.46.67,8,8,0,0,1-4.54.84,19.38,19.38,0,0,1-2.77-.39c-1-.2-2-.45-2.94-.72l-3-.86c-1-.31-2-.6-2.93-.86s-1.86-.48-2.71-.63c-.42-.07-.84-.13-1.24-.16a9.08,9.08,0,0,0-1.15,0,14.88,14.88,0,0,1,2.83-.37A23.57,23.57,0,0,1,183.52,120.67Zm10.63-16.84c0-.89,0-1.83,0-2.78s-.08-1.88-.12-2.79a49.32,49.32,0,0,1-.06-5.11,9.5,9.5,0,0,1,.35-2.06,4.86,4.86,0,0,1,.77-1.6,30.15,30.15,0,0,0,.3,3c.15,1.39.32,3.12.38,5a29.29,29.29,0,0,1-.45,5.85,14.23,14.23,0,0,1-2.09,5.28A14.19,14.19,0,0,0,194.15,103.83Zm5.39,4.31a52.59,52.59,0,0,1,6.14-.17c2,0,3.84.09,5.36.13a19.23,19.23,0,0,0,3.31-.08,5.88,5.88,0,0,1-1.85,1.11,11,11,0,0,1-2.34.58,25.19,25.19,0,0,1-5.52.08c-2-.15-3.91-.36-5.77-.51a16.74,16.74,0,0,0-5,.17A17.08,17.08,0,0,1,199.54,108.14Zm7.81-31.48a25.12,25.12,0,0,0,.57,2.77c.15.64.31,1.37.47,2.15s.27,1.61.39,2.49.2,1.8.24,2.74a22.44,22.44,0,0,1-.06,2.84,18.69,18.69,0,0,1-.44,2.81,13.15,13.15,0,0,1-1,2.56c.86-2.71.23-6.49-.29-9.88a33,33,0,0,1-.56-4.79A6.64,6.64,0,0,1,207.35,76.66Zm6.05,16.61c.93-.3,1.91-.55,2.86-.79s1.9-.46,2.82-.65,1.82-.36,2.67-.52l2.3-.47a21.68,21.68,0,0,0,3-.77,8.59,8.59,0,0,1-3.65,2.48,27.69,27.69,0,0,1-5.11,1.22c-3.65.55-7.47.72-10.09,1.87a13.71,13.71,0,0,1,2.45-1.34A23,23,0,0,1,213.4,93.27Zm4.69-23.38a42.21,42.21,0,0,1-1-4.46,10,10,0,0,1-.08-2,6,6,0,0,1,.33-1.74c.08.49.43,1.39.81,2.55s.84,2.62,1.24,4.26a28.92,28.92,0,0,1,.76,5.29,16.72,16.72,0,0,1-.13,2.74,12.29,12.29,0,0,1-.6,2.65C219.87,76.46,219,73,218.09,69.89Zm6.47,6.43a53.43,53.43,0,0,1,5-2.57c1.6-.77,3.1-1.44,4.33-2a17.55,17.55,0,0,0,2.59-1.37,7,7,0,0,1-1.21,1.7,11.9,11.9,0,0,1-1.75,1.42,23,23,0,0,1-4.43,2.24q-1.22.48-2.43.93l-2.4.91a17.56,17.56,0,0,0-4.11,2.09,17.13,17.13,0,0,1,2.07-1.8A27.6,27.6,0,0,1,224.56,76.32ZM227,55.08c-.25-.74-.52-1.47-.8-2.19a29.84,29.84,0,0,1-1.32-4.15,7.9,7.9,0,0,1-.15-3.69,21.43,21.43,0,0,0,.93,2.35c.23.53.49,1.13.76,1.79s.51,1.36.76,2.11a26.48,26.48,0,0,1,1.23,5,21.68,21.68,0,0,1,.21,2.68,14.92,14.92,0,0,1-.27,2.67,13.21,13.21,0,0,0-.63-4.33Q227.43,56.19,227,55.08Zm5.58,2.68c1.35-1.26,2.73-2.43,4-3.49l1.9-1.48,1.62-1.29a21.75,21.75,0,0,0,2.09-1.81,9.79,9.79,0,0,1-2.18,3.57,25.16,25.16,0,0,1-3.6,3c-.64.48-1.33.94-2,1.39s-1.36.9-2,1.36a20.45,20.45,0,0,0-3.4,2.86,18.61,18.61,0,0,1,1.65-2.15A23.78,23.78,0,0,1,232.62,57.76Zm3.7-23.95c0-.15,0-.37.05-.65,0-.57.09-1.39.15-2.39s.17-2.15.23-3.41c0-.64.07-1.29.11-2s.09-1.36.1-2.06c0-1.39.13-2.8.2-4.17s.1-2.69.18-3.89a22.2,22.2,0,0,1,.59-5.2,20.41,20.41,0,0,1,.54,5.22c0,1.21,0,2.55-.08,3.93s-.2,2.8-.33,4.19c-.06.7-.15,1.39-.24,2.06s-.19,1.33-.28,2c-.16,1.26-.38,2.41-.58,3.39s-.35,1.78-.46,2.34c-.06.29-.11.5-.15.65l-.06.23Zm-4.78.77c-.3-.67-.58-1.32-.83-2A17.12,17.12,0,0,1,230,30.7a10,10,0,0,1-.48-3.66c.34.92,1.49,3,2.72,5.8a37.72,37.72,0,0,1,1.56,4.68,19.93,19.93,0,0,1,.53,5.25C234.1,40.06,232.77,37.24,231.54,34.58Zm11.74-2.07a20.24,20.24,0,0,1-1.2,1.81c-.46.59-1,1.18-1.46,1.75-2,2.32-4.37,4.47-5.68,6.84a24.46,24.46,0,0,1,2.57-4.71c1-1.48,2-2.86,3-4.11,1.92-2.51,3.68-4.48,4.13-5.4A9.88,9.88,0,0,1,243.28,32.51Z"/></g></g></svg>